<svg xmlns="http://www.w3.org/2000/svg" viewBox="0 0 394.88 394.88"><defs><style>.cls-1{fill:none;stroke:#000;stroke-miterlimit:10;stroke-width:9px;}.cls-2{fill:#f65c9a;}.cls-3{fill:#fee070;}.cls-4{fill:#fed1ee;}.cls-5{fill:#fe71be;}.cls-6{fill:#866954;}.cls-7{fill:#feb8ee;}.cls-8{fill:#fe992d;}.cls-9{fill:#705245;}.cls-10{fill:#e45045;}.cls-11{fill:#c33730;}.cls-12{fill:#efa246;}.cls-13{fill:#ea8e21;}.cls-14{fill:#ce7a15;}.cls-15{fill:#a1560b;}.cls-16{fill:#fef2d8;}.cls-17{fill:#a1550b;}.cls-18{fill:#a2570c;}.cls-19{fill:#a2560b;}.cls-20{fill:#fef2d9;}.cls-21{fill:#a1550a;}</style></defs><g id="Capa_2" data-name="Capa 2"><g id="Modelo-1-Logo-LaMeriendita"><circle class="cls-1" cx="197.44" cy="197.44" r="192.94"/><g id="Muestra2CupCake"><path class="cls-2" d="M235.11,48.64c1-3.55,2.18-7,2.89-10.65a6.47,6.47,0,0,1,2.87-4.48H244c1.94,1.19,3.94,2.31,5.82,3.6,7.59,5.22,12,12.43,12.32,21.66.13,4.09-1,8.22-1.58,12.33-1.1,2.8-3.31,4.79-5.18,7a32.56,32.56,0,0,0-3.2,3.64,78.71,78.71,0,0,1-27.3,18.18,125.87,125.87,0,0,1-24.59,6.42,4.24,4.24,0,0,1-2.42,0c-.49-.29-.6-.65-.13-1a7.51,7.51,0,0,1,2.2-1.08c4.65-1.81,9.27-3.71,13.83-5.74,7.31-3.25,12.43-8.9,16.27-15.71a46.67,46.67,0,0,0,6.24-23.48,23,23,0,0,0-1.86-9.12A1.44,1.44,0,0,1,235.11,48.64Z"/><path class="cls-3" d="M305,158.5l.45,3.13c.82-.39,1.59-.82,2.41-1.13,2.13-.81,3.51.29,3.22,2.64-.4,3.17-.92,6.33-1.42,9.48q-2.39,15.09-4.79,30.16-2.65,16.72-5.28,33.46c-.64,4.11-1.3,8.22-1.88,12.34a16.07,16.07,0,0,1-15.94,14.07c-1.86,0-3.73,0-5.59-.06-1.08-2-.21-4.1,0-6.11,1.09-12.46,2.29-24.91,3.46-37.36,1.1-11.71,2.14-23.43,3.35-35.13a11.33,11.33,0,0,0,0-3.34,2.6,2.6,0,0,0-5.07-.37,10.29,10.29,0,0,0-.46,2.19c-.87,10.24-1.91,20.46-2.85,30.69q-1.15,12.79-2.39,25.58c-.68,7.11-1.31,14.23-2,21.34a3.88,3.88,0,0,1-.69,2.53l-17.07,0c-1.17-1.94-.78-4.11-.53-6.1.55-4.38.46-8.78.65-13.16q.54-12.5,1.11-25c.34-7.73.58-15.47,1.13-23.19.29-4,.28-8,.57-12a7,7,0,0,0-.21-2.66,2.53,2.53,0,0,0-2.44-2,2.38,2.38,0,0,0-2.51,1.81,9.83,9.83,0,0,0-.55,3.07c0,8.27-.65,16.52-1,24.77-.35,7.88-.57,15.77-1.17,23.64-.27,3.56-.36,7.15-.44,10.71-.12,5.06-.73,10.1-.59,15.18a8,8,0,0,1-1.06,4.93l-17.07,0c-1-1.23-.69-2.7-.69-4.08q0-37.24,0-74.49a19.77,19.77,0,0,0-.13-3.35,2.34,2.34,0,0,0-2.61-2.2,2.32,2.32,0,0,0-2.39,2.19,19.78,19.78,0,0,0-.14,3.35q0,37.24,0,74.49c0,1.38.33,2.85-.68,4.08H204.58c-1.12-2.37-1-4.95-1.07-7.43-.53-12.58-1.19-25.15-1.71-37.73-.34-8-.89-16.06-1-24.11-.07-3.72-.55-7.43-.47-11.17a4.83,4.83,0,0,0-.47-2.17,2.43,2.43,0,0,0-2.25-1.56,2.54,2.54,0,0,0-2.52,1.51,4.35,4.35,0,0,0-.44,2.4c.62,7.35.59,14.73,1.16,22.09.29,3.79.35,7.6.48,11.39.29,8.26.8,16.52,1.08,24.78.2,6.25.68,12.5.81,18.75,0,1.1.19,2.26-.62,3.21H180.83a2.92,2.92,0,0,1-1-2.16q-1.32-14.56-2.71-29.13c-1-10.6-2-21.2-3-31.8-.53-5.48-1-11-1.49-16.46a21.66,21.66,0,0,0-.68-4.41,2.53,2.53,0,0,0-2.88-1.94,2.38,2.38,0,0,0-2.18,2.43c-.29,2.32.22,4.61.43,6.9q1.42,15.45,2.89,30.91c1,10.46,2,20.91,2.91,31.36.34,3.78.65,7.57,1.1,11.34.13,1,.35,2.08-.44,3-4.61.14-9.22.45-13.46-2.09a16.09,16.09,0,0,1-8-11.75q-3.62-22.67-7.13-45.35C143.08,190,141,176.68,139,163.32a3.1,3.1,0,0,1,.79-2.54,3.57,3.57,0,0,1,2.64-.13,13.26,13.26,0,0,1,2.59,1.28c1.57.46,2.63,1.65,3.78,2.68,4.24,3.8,9.71,3.88,13.95.09a43,43,0,0,1,4.3-3.56,11,11,0,0,1,12.4.09c1.6,1.11,2.89,2.57,4.42,3.76,4.4,3.44,9.17,3.34,13.42-.29.91-.78,1.86-1.49,2.74-2.29a11,11,0,0,1,15.39-.08c.78.69,1.49,1.46,2.31,2.11,5.41,4.27,10.4,4.08,15.38-.69a15.13,15.13,0,0,1,5.88-3.93,10.74,10.74,0,0,1,10.64,2.25c1,.8,2,1.57,2.91,2.43,4.41,4,10.07,4,14.45-.18,2.13-2,4.28-3.92,7.21-4.7a9,9,0,0,1,5.28,0,12.69,12.69,0,0,1,6.57,4c5.58,5.73,11.89,4.88,17.31-.7a3.67,3.67,0,0,0,1-2.42C304.36,159.76,304.17,158.93,305,158.5Z"/><path class="cls-4" d="M198,106.08c18.39-2.67,35.68-8,49.75-20.92,1.42-1.31,2.87-2.59,4.3-3.88,1.88,1,2.51,3,3.21,4.69,2.91,7.23,3.82,14.55.2,21.86-2.33,4.7-6.38,7.63-10.85,10-8.51,4.45-17.79,6.44-27.15,8C204.24,128,190.94,129,177.64,130c-7.67.57-15.29,1.55-22.52,4.44a2.52,2.52,0,0,1-1.94.24,18.85,18.85,0,0,1,5.09-12.5,33.33,33.33,0,0,1,11.32-8.54c.61-.26,1-.94,1.53-1.42,7.82-3.32,16.11-4.73,24.4-6.14C196.36,105.92,197.14,106.16,198,106.08Z"/><path class="cls-5" d="M198,106.08c-4.84,1-9.7,1.89-14.51,3-3.45.81-6.81,2-10.23,2.92a10.29,10.29,0,0,1-2.09.17,24.66,24.66,0,0,1-4.5-12.9c-.2-6.69,2.63-12.22,6.7-17.3,6.07-7.58,14.43-10.64,23.59-12.25q9.66-1.69,19.25-3.69c1.32-.28,2.48-1.32,3.71-2,1.51-1,3.29-1.52,4.81-2.59a27.91,27.91,0,0,0,8.24-9.19c.46-.83.79-1.78,1.79-2.18.71,2.29,1.9,4.55,2,6.87a46.46,46.46,0,0,1-8,29.09,36.22,36.22,0,0,1-18.35,14.57c-4.18,1.5-8.27,3.3-12.39,5-.07,0-.17.08-.17.11A2.85,2.85,0,0,0,198,106.08Z"/><path class="cls-6" d="M279.37,160.07c-4.25-.88-7.75.56-10.74,3.51-2.15,2.12-4.38,4-7.59,4.35a10.49,10.49,0,0,1-8.3-2.39c-1.08-.91-2.12-1.87-3.18-2.81a10.56,10.56,0,0,0-14.59,0,49.53,49.53,0,0,1-4.06,3.49,10.25,10.25,0,0,1-12.29-.34c-1.3-1-2.46-2.16-3.7-3.24-4.43-3.85-10.17-3.7-14.61.14-2.12,1.82-4.36,3.81-6.9,4.76-4.21,1.55-8,0-11.17-3.13-2-2-4.12-3.85-7.11-4.36a10.3,10.3,0,0,0-8.41,2c-1.29,1-2.46,2.16-3.7,3.24a10.56,10.56,0,0,1-14.42,0c-1.23-1.08-2.41-2.22-3.61-3.33a31,31,0,0,1,.3-4.63,10.58,10.58,0,0,1,10.36-8.36l3.32-.07a3,3,0,0,1,2.09-.54c.6,0,1.19-.09,1.79-.08q50.72,0,101.42,0c2,.24,4.07-.17,6.09.19a11.68,11.68,0,0,1,9.28,9.1A2.47,2.47,0,0,1,279.37,160.07Z"/><path class="cls-7" d="M160.75,148.86H159c-1.53-2.74-3.27-5.38-4.52-8.24-.8-1.83-.87-4-1.27-6a50.5,50.5,0,0,1,16.88-4.47c5.95-.67,11.91-1.23,17.88-1.76,4.13-.38,8.28-.53,12.4-1,4.85-.5,9.72-1,14.51-1.88,6.61-1.25,13.2-2.65,19.69-4.41,6.27-1.71,12.21-4.36,16.93-9A18.35,18.35,0,0,0,257,99a30.38,30.38,0,0,0-5-17.69q3.57-4.25,7.12-8.5l1.44-1.68c3.32,2.07,6.95,3.78,9.89,6.29,4.89,4.17,7.43,9.78,8.51,16.15a25.21,25.21,0,0,1-2.26,15.07c-1,2.88-3.46,4.54-5.64,6.38a29.3,29.3,0,0,1-4.72,2.93c-5.16,3-10.84,4.55-16.56,5.93-10.59,2.56-21.41,3.65-32.22,4.77s-21.72,1.15-32.38,3.46c-8.37,1.82-15.76,5.34-21.07,12.42C163,146,162.56,147.94,160.75,148.86Z"/><path class="cls-2" d="M266.41,117.27a31,31,0,0,0,10.29-8.66,28.6,28.6,0,0,1,17.82,28.75,14.17,14.17,0,0,1-7.12,11.49,2.14,2.14,0,0,1-2,.8c-4.86-.06-9.75.51-14.56-.65l-6.26-.12c0-.74.55-1,1-1.34,5.15-3.64,6.51-8.84,5.85-14.73a28,28,0,0,0-4.57-13.13C266.44,119,265.73,118.25,266.41,117.27Z"/><path class="cls-8" d="M173.77,262.58q-1.1-11.17-2.18-22.37c-.5-5.4-.94-10.8-1.44-16.19-.54-5.77-1.13-11.52-1.68-17.28-.3-3.1-.6-6.21-.87-9.31-.51-6-1.07-12-1.46-18-.17-2.6,1.22-3.83,3.64-3.64a3.08,3.08,0,0,1,3,2.77c.41,2.64.65,5.3.9,8q1.37,14.29,2.67,28.59c.65,7.17,1.2,14.35,1.87,21.52s1.43,14.17,2.14,21.26c.16,1.55.3,3.1.45,4.65Z"/><path class="cls-8" d="M269.52,262.61c.41-4.88.81-9.76,1.23-14.63q.47-5.53,1-11.08c.55-5.9,1.15-11.8,1.7-17.71.5-5.39.93-10.79,1.44-16.18.53-5.61,1.11-11.21,1.66-16.81.19-1.85.29-3.7.55-5.54.34-2.35,1.54-3.26,3.79-3.07,1.91.16,3.05,1.45,2.92,3.73-.23,4-.61,8-1,12s-.83,7.81-1.22,11.72q-.89,9-1.72,17.93c-.51,5.54-.93,11.08-1.45,16.62s-1.12,11.21-1.67,16.82c-.21,2.06-.38,4.13-.57,6.2Z"/><path class="cls-8" d="M197.52,262.55c-.18-6-.32-12-.56-18.07-.25-6.46-.58-12.91-.88-19.37l-.9-19.59q-.44-9.69-.9-19.37c-.08-1.63-.36-3.26-.36-4.88,0-2.15,1.24-3.55,3.07-3.68,2.22-.17,3.43.77,3.91,3a5.88,5.88,0,0,1,.1,1.11c.18,5.28.3,10.56.52,15.83.42,9.95.89,19.9,1.34,29.84q.44,9.57.89,19.15c.26,5.34.56,10.68.83,16Z"/><path class="cls-8" d="M245.39,262.57c.41-7.7.84-15.41,1.24-23.12q.27-5.22.47-10.46c.19-5.28.3-10.55.51-15.83q.64-15.14,1.36-30.27a18.09,18.09,0,0,1,.4-2.64c.36-1.9,1.48-2.74,3.5-2.67a3.15,3.15,0,0,1,3.18,3.07c-.16,5.34-.46,10.68-.72,16,0,.52-.09,1-.11,1.55-.17,5.28-.3,10.56-.52,15.83-.41,9.94-.88,19.89-1.34,29.83q-.44,9.35-.91,18.69Z"/><path class="cls-8" d="M221.65,262.59q0-40.69,0-81.4c0-2.54,1.14-3.66,3.48-3.61s3.25,1.15,3.25,3.62q0,40.7,0,81.4Z"/><path class="cls-9" d="M270.87,149l16.53-.15,6.46.06C300,149,304,152.45,305,158.5c.82,4.66-2.83,6.39-5.79,8.23-3.41,2.12-7.15,1.83-10.58-.27-1.31-.81-2.33-2.09-3.61-3-1.83-1.24-3.77-2.3-5.67-3.43C279.11,154.41,276.09,150.85,270.87,149Z"/><path class="cls-10" d="M216.7,63c-5.19-2.35-7.92-6.48-7.92-12s2.78-9.69,7.93-12.06c5,1.77,9.73,10.11,6.71,16.82C222,58.91,220.09,61.68,216.7,63Z"/><path class="cls-11" d="M216.7,63c1.69-1.74,3.71-3.26,5-5.26,4.26-6.5,1.67-13.77-4-18a9.91,9.91,0,0,1-1-.88,13.16,13.16,0,0,1,17.82,7.81c.21.62.39,1.27.58,1.9l-.4,1.45A28,28,0,0,1,223.18,63a16.19,16.19,0,0,1-3.31,1Z"/><path class="cls-5" d="M266.41,117.27c.43.85.81,1.73,1.29,2.55,3.55,6,5.29,12.36,4.07,19.37-.77,4.46-3.45,7.44-7.16,9.69-.67,0-1.34.07-2,.07H162.76c-.67,0-1.34-.06-2-.09,5.35-10.77,14.76-15.73,26-17.71,5.6-1,11.31-1.29,17-1.88,8.47-.89,16.95-1.59,25.39-2.69a208.55,208.55,0,0,0,21.41-3.67C256,121.59,261.13,119.19,266.41,117.27Z"/></g><g id="PanDeJamón"><g id="PanLargo"><path class="cls-12" d="M190.23,188.21c-1.75-2.33-3.45-4.78-5.28-7-2.74-3.27-1.36-3.71-.07-3.77,5.75-.24,11.54-.39,17.4-.33a108.11,108.11,0,0,1,34.34,6.34c4.45,1.54,9.15,4.21,13.74,6.36a79,79,0,0,1,6.65,7.79c7.35,10,9.75,16.95,8.51,25.92-1,7.13-3.83,12.21-6.75,17.13a83.55,83.55,0,0,1-14.87,17.91,170.77,170.77,0,0,1-16,13.2,233.33,233.33,0,0,1-33.27,20.67c-10.22,5.22-21.08,9.19-31.78,13.46a175.19,175.19,0,0,1-21.69,6.84c-7.09,1.81-14.11,3.92-22,3.94-3.49,0-6.78.51-10.17.78-6.75.52-14.09-.87-21.4-2.14A5.23,5.23,0,0,1,84,313.53,53.24,53.24,0,0,1,75,287.79a85.8,85.8,0,0,1,.85-20.61,77.48,77.48,0,0,1,13.82-33.91c1.51-2.17,3-4.41,4.54-6.49,3.11-4.09,3.09-2.9,8.67,2.84.52.54,1,1.21,1.52,1.81,3.86,2.32,7.43,6.61,11.11,10.18,5.84,5.66,11.71,11.25,17.68,15.37,2.07,1.42,4.9,3.57,5.59,1.08s-1.69-6.12-3.53-8.94a185.86,185.86,0,0,0-15.65-20.92,42.94,42.94,0,0,1-5.16-7.21c-1.54-1.91-3-3.94-4.62-5.68-1.93-2.1-1.9-3.34-.89-4.15,4.17-3.31,8.39-6.55,12.6-9.8.53-.41,1.17-.62,1.67-1.08,3.92-3.57,5-1.11,8.87,3.42,1,1.14,2.33,1.34,3.51,2a4.79,4.79,0,0,0,1,1.86c10.95,10.95,21.76,22.81,33.19,30.45a9.41,9.41,0,0,0,2.23,1.2c2.18.64,2.8-.92,1.27-4.08-1.94-4-3.88-8.16-6.63-11.63-5.62-7.05-10.9-14.77-16.84-21.18a11.55,11.55,0,0,1-2.15-3.14c-1.5-2-3-4.06-4.5-6s-1.89-3.31-.64-3.85c2.85-1.26,5.67-2.55,8.64-3.56,3.88-1.32,8-2.2,11.78-3.67,1.38-.54,2.57-.15,4.28,1.74s3.25,3.62,4.92,5.14a11.36,11.36,0,0,0,2.85,1.58c3.31,4.62,7.08,7.53,10.66,11.1,5.71,5.71,11.5,11.19,17.43,15.2a23,23,0,0,0,2.54,1.59c1.44.71,2.87,1.25,3.42-.17s-.62-3.71-1.7-5.55A203.25,203.25,0,0,0,192.91,192,18.3,18.3,0,0,1,190.23,188.21Z"/><path class="cls-13" d="M84,313.53c8.61,1.65,17.31,3.66,25.06,2.62,5.09-.68,10.67-.18,15.73-.94,5.92-.89,11.53-2.52,17.23-3.94,4.67-1.16,9.33-2.37,13.89-3.77,2.93-.9,5.69-2.17,8.52-3.28,7-2.76,14.19-5.3,21.07-8.36a146.81,146.81,0,0,0,15.42-8.21c5.65-3.37,11.09-7.13,16.61-10.75s11-6.72,16.14-10.8a133.33,133.33,0,0,0,15.12-14.35,81.37,81.37,0,0,0,10.69-14.57,39.57,39.57,0,0,0,5.05-14.56c1.46-11.28-1.74-16.54-10.48-27.67-1.27-1.62-2.47-3.39-3.71-5.09,5.82,4,11.6,7.49,17.4,13.79a62.63,62.63,0,0,1,11.95,17.8,26,26,0,0,1,1.73,8.58c.52,9.43-2.87,14.84-5.81,20.63a36.27,36.27,0,0,1-5.65,8c-4.6,5-9.24,10-14.16,14.5-5.33,4.87-10.89,9.38-16.57,13.69a115.1,115.1,0,0,1-11.92,7.56c-7.33,4.26-14.59,8.68-22.19,12.44-6,3-12.5,5.1-18.8,7.54-4.08,1.59-8.12,3.27-12.34,4.57-7,2.15-14,4.21-21.17,6a90.91,90.91,0,0,1-15.76,2.78,170.36,170.36,0,0,1-24.69.25c-7-.54-14.39-1.9-22.69-8.39C87.78,318.05,85.91,315.56,84,313.53Z"/><path class="cls-14" d="M147.6,199.15c9,10.23,18.06,20.43,25.21,33.73,1.38,2.56,3,5.56,1.82,6.78-.84.88-3,.61-4.48-.54A194.45,194.45,0,0,1,155,226.6c-6.32-5.85-12.54-12.34-18.82-18.48-1.24-1.21-1.77-1.92-.68-2.45Z"/><path class="cls-14" d="M114.39,221c5.06,6.3,10.19,12.46,15.13,19a120.55,120.55,0,0,1,8.15,12.47c1.1,1.92,2.14,5.23,1.81,6.43s-2.43,1.22-3.79.27a142.86,142.86,0,0,1-14.23-11C115.7,243,110.05,237,104.35,231.43c2.67-2.91,5.32-5.84,8-8.72A22,22,0,0,1,114.39,221Z"/><path class="cls-14" d="M190.23,188.21a139.57,139.57,0,0,1,18,25.17c1,1.64,2,4.7,1.64,5.41a2.5,2.5,0,0,1-3.49.73,73.65,73.65,0,0,1-10.62-7.79c-6.24-5.54-12.43-11.55-18.61-17.53-.78-.76-2.78-1.45-2.25-3.7Z"/><path class="cls-15" d="M99,263c-.23,2.73.15,5.39-.66,5.76s-3.13-1.24-4.13-2.73c-1.59-2.38-1.6-4.94,0-5.25C95.1,260.6,96.74,261.94,99,263Z"/><path class="cls-16" d="M104.75,248.33c-.42,2.56-.27,4.91-1.11,5.53-.5.37-3.4-2.06-3.81-3.2-.69-1.92-.76-4.5-.1-5.44C100.1,244.68,102.4,246.81,104.75,248.33Z"/><path class="cls-16" d="M208.71,199.09c-1.31-1.24-2.94-2.24-3.86-3.78-1.28-2.16-1.63-4.43-.07-5,1.3-.48,2.95-.3,4.11,2.54.77,1.9.55,3.91.78,5.87Z"/><path class="cls-17" d="M166.25,201.79c-.34,2.61-.06,5.17-.89,5.47s-3.4-1.49-4-2.74c-.76-1.59-.85-4.5-.17-5.1S163.89,200.59,166.25,201.79Z"/><path class="cls-16" d="M182.24,211c-.2,1.55.07,4.15-.75,4.37s-3.39-1.52-4.07-2.88-.73-4.3,0-5,2.56,1.05,3.92,1.7Z"/><path class="cls-18" d="M180.13,222.92c1.37,1.41,3.32,2.74,4,4.27.74,1.76.34,3.7.44,5.56-1.46-1.09-3.49-1.9-4.23-3.32-.91-1.75-.74-4-1-6.06Z"/><path class="cls-19" d="M116.06,258.9c1.28,1.2,2.84,2.15,3.79,3.66,1.61,2.58,1.6,5,.09,5.28-.91.15-3.29-1.41-3.89-2.63-.85-1.74-.69-3.87-1-5.84Z"/><path class="cls-20" d="M146.11,244.7c2.37,2.21,4.39,3.39,5.07,4.9s.64,4.22,0,5c-.95,1.14-3-.39-4.08-2.94C146.33,249.81,146.51,247.87,146.11,244.7Z"/><path class="cls-16" d="M224.09,211.71c-.19,2.77.21,5.28-.54,5.86-1,.74-3.17.29-4.35-2.85-.65-1.71-.5-4.19.2-4.95C219.94,209.18,221.88,210.72,224.09,211.71Z"/><path class="cls-17" d="M148,236.66c-2.22-1.61-3.68-2.21-4.73-3.56-1.54-2-2-6.28-.75-6.07a7.53,7.53,0,0,1,4.26,3C147.67,231.38,147.55,233.71,148,236.66Z"/><path class="cls-20" d="M125.35,223.52c.19-1.56,0-3.8.68-4.51,1-1,3.05.3,4,3,.65,1.82.83,4.46.18,5.17s-2.57-1.18-4-1.9Z"/><path class="cls-21" d="M227.35,196.74c-.29,2.66,0,4.86-.74,5.67-1.16,1.38-3.19-1-4-3.22-.66-1.74-.64-4.17,0-5C223,193.62,225,195.41,227.35,196.74Z"/></g></g></g></g></svg>