<svg xmlns="http://www.w3.org/2000/svg" viewBox="0 0 366.45 366.45"><defs><style>.cls-1{fill:none;stroke:#1d1d1b;stroke-miterlimit:10;stroke-width:8px;}.cls-2{fill:#c2cbe8;}.cls-3{fill:#88c279;}.cls-4{fill:#96a3c4;}.cls-5{fill:#1e966a;}.cls-6{fill:#292831;}.cls-7{fill:#e52421;}.cls-8{fill:#2d509f;}.cls-9{fill:#fff;}.cls-10{fill:#f3e600;}.cls-11{fill:#1d1d1b;}.cls-12{fill:#334b5e;}.cls-13{fill:#adb4bb;}.cls-14{fill:#cfd6e0;}</style></defs><g id="Capa_2" data-name="Capa 2"><g id="AROM4Logotipo"><circle class="cls-1" cx="183.23" cy="183.23" r="179.23"/><g id="M4Logotipo"><g id="Cocina"><path class="cls-2" d="M185,195.05c17.37,0,34.79.07,52.16-.07,3,0,4,.64,4,3.85-.15,23-.07,46.07-.07,69.11,0,7.53-4.14,11.64-12,11.78-7.13.14-14.27,0-21.4,0H142.68c-9.89,0-13.88-4-13.88-13.7,0-22.3.07-44.56-.08-66.86,0-3.28.75-4.28,4.18-4.25C150.24,195.12,167.65,195.05,185,195.05Z"/><path class="cls-3" d="M122.37,233.62V267c0,8-4.14,12.45-12.13,12.73-5.35.18-10.7,0-16,.08-2.35.07-3-.86-3-3.14q.11-39.39,0-78.82c0-2.57,1.14-2.86,3.25-2.82,8.31.07,16.62.14,24.94,0,2.74,0,3.1,1.11,3.1,3.43C122.34,210.18,122.37,221.88,122.37,233.62Z"/><path class="cls-3" d="M285.39,237.62c0-12.92.08-25.84-.07-38.79,0-2.82.65-3.89,3.68-3.82,7.85.22,15.73.15,23.62,0,2.57,0,3.67.46,3.64,3.39-.11,23.16,0,46.35-.11,69.5,0,7.18-4,11.35-11.2,11.78-5.64.32-11.28,0-16.92.14-3.17.07-2.67-2-2.67-3.89Q285.4,256.76,285.39,237.62Z"/><path class="cls-3" d="M278.76,237.47c0,12.78-.07,25.55.07,38.29,0,3-.71,4.24-3.93,4.07-4.74-.25-9.49-.11-14.23-.08-7.64.11-12.81-4.81-12.67-12.59.39-22.55.22-45.14.07-67.69,0-3.28.54-4.71,4.29-4.53,7.42.32,14.84.25,22.26,0,3.28-.11,4.32.78,4.25,4.17C278.65,212,278.76,224.7,278.76,237.47Z"/><path class="cls-4" d="M38.45,144.63c3.22-2.42,7-2,10.6-2q130.65,0,261.25,0c5.92,0,11.88-.39,17.7,1.18-1.93,5.49-5.89,7.78-11.6,7.78q-133.63-.06-267.28,0C44.13,151.52,40.13,149.81,38.45,144.63Z"/><path class="cls-2" d="M240.9,173c.07,4-.07,8,.29,12,.28,3.14-1.11,3.68-3.82,3.64-18.41-.07-36.86,0-55.27,0-16.2,0-32.4-.18-48.59.11-4.14.07-5.14-1.22-4.79-5,.36-3.53.22-7.1.29-10.67,1.61-1.71,3.75-1.46,5.71-1.43,4.49.08,9-.5,13.49.47,1.42.5,1.85,1.78,2.35,3,1,2.35,2.64,3.78,5.35,3.78s4.28-1.54,5.28-3.89c.47-1.07.82-2.21,2-2.75a47.43,47.43,0,0,1,15.41-.07c1.53.57,2,2.07,2.64,3.32,1.21,2.25,3,3.57,5.64,3.39a5.13,5.13,0,0,0,4.74-3.89c.4-1.11.75-2.25,2-2.75a52.84,52.84,0,0,1,16.27-.07c1.6.64,1.74,2.21,2.39,3.53,2.1,4.21,6.81,4.46,9.45.5,1-1.43,1.36-3.32,3.25-4C230.34,171.72,235.73,170.4,240.9,173Z"/><path class="cls-4" d="M149,173l-20,0c-.07-4,0-8-.25-12-.14-2.54,1.07-2.93,3.21-2.93q53,.06,106,0c2.57,0,3.35.85,3.21,3.31-.21,3.86-.18,7.71-.25,11.56l-16.87,0c-1.11.21-1.47-.71-2-1.36-3.53-4.06-6.56-4-10,.11-.46.57-.82,1.21-1.68,1.28H193.16c-1-.14-1.35-1-1.89-1.67-3-3.61-6.35-3.61-9.49,0-.64.72-.93,1.93-2.28,1.64l-16.81,0a3,3,0,0,1-1.78-1.21c-3.78-4.21-6.32-4.21-10.1,0A2.81,2.81,0,0,1,149,173Z"/><path class="cls-3" d="M68.89,195.26c4.42-.07,8.88,0,13.31-.21,2.14-.07,2.78.71,2.75,2.82q-.17,40.62-.22,81.24c-3.5.89-7.06.18-10.6.39-1.85.11-3-1-4-2.39a15.42,15.42,0,0,1-2.71-9.24q-.06-33.56,0-67.15C67.5,198.8,67.46,196.83,68.89,195.26Z"/><path class="cls-5" d="M68.89,195.26q0,36,0,72c0,9.53,2.43,11.88,11.92,11.88h4a54,54,0,0,1-24.37-.71c-4.68-1.29-6.5-5.64-6.53-10.21-.11-23.33,0-46.67-.11-70,0-2.32.79-3.18,3.07-3.07C60.86,195.26,64.89,195.23,68.89,195.26Z"/><path class="cls-5" d="M68.82,188.27c-4,0-8,0-12,.11-2.36.07-3.07-.86-3-3.14q.15-12,0-24c0-2.14.82-2.82,2.89-2.82q31.31,0,62.65,0c2.32,0,3.14.82,3,3.1-.18,3.85-.1,7.71-.14,11.56a5,5,0,0,1-3.67,1.18c-7.46,0-14.92.39-22.38-.22a33.52,33.52,0,0,0-21-.17c-4,0-5.24,2.1-5.1,5.92C70.21,182.63,71,185.74,68.82,188.27Z"/><path class="cls-3" d="M315.94,173c.07,4.28.1,8.59.28,12.88.07,2.21-.93,2.78-2.92,2.78q-31.16-.06-62.34,0c-2.49,0-3-1-2.89-3.22.18-4.14.15-8.31.18-12.45a3.85,3.85,0,0,1,2.71-1.28c6.89-.11,13.81-.86,20.66.46,5.39,5.67,15.52,5.67,20.73,0C300.27,171.54,308.19,170.18,315.94,173Z"/><path class="cls-5" d="M272,173.07H248.29c0-3.57.07-7.13-.22-10.67-.25-3.1.86-4,4-4,15.42.14,30.83.07,46.28.07,4.89,0,9.78.07,14.67,0,2.24,0,3.24.68,3.13,3.07-.17,3.85-.14,7.71-.17,11.56l-23.84,0A74.26,74.26,0,0,0,272,173.07Z"/><path class="cls-3" d="M68.82,188.27c0-3.1,0-6.17,0-9.28,0-6,0-6,6.28-6A6.85,6.85,0,0,0,82,176.21a36.12,36.12,0,0,1,6.24,0A7.38,7.38,0,0,0,95.51,173l26.72,0c0,4.32,0,8.6.18,12.92,0,1.82-.46,2.75-2.46,2.71C102.89,188.45,85.87,189.06,68.82,188.27Z"/><path class="cls-6" d="M149,173c1.07-3.35,3-5.82,6.81-5.82s5.78,2.47,6.85,5.82c-1,5.21-3.07,7.46-7.06,7.24C151.1,180,149.42,177,149,173Z"/><path class="cls-6" d="M179.53,173c1.32-3.35,3.25-6,7.35-5.78,3.64.22,5.5,2.5,6.32,5.82-.32,4.1-2,7.06-6.53,7.21C181.78,180.39,180.25,177,179.53,173Z"/><path class="cls-6" d="M210.32,173c.86-3.32,2.68-5.6,6.32-5.82,4.1-.25,6,2.43,7.35,5.78-.61,3.11-1.46,6-5,7.07C214.53,181.35,211.29,178.71,210.32,173Z"/><path class="cls-6" d="M95.51,173c.46,3.24-1,4.71-4.21,4.67-4,0-8,0-12,0-3.25,0-4.57-1.57-4.18-4.71A25.16,25.16,0,0,1,95.51,173Z"/><path class="cls-6" d="M292.25,173.21c.46,3.25-1,4.71-4.22,4.68-4,0-8,0-12,0-3.25,0-4.57-1.57-4.18-4.71A25.2,25.2,0,0,1,292.25,173.21Z"/></g><g id="Tricolor"><path id="Rojo" class="cls-7" d="M131.79,248.28H238v22.09a3.58,3.58,0,0,1-3.57,3.57H135.36a3.59,3.59,0,0,1-3.57-3.57Z"/><g id="Azul"><rect id="PAzul" class="cls-8" x="131.79" y="222.6" width="106.22" height="25.65"/><g id="E-Superior"><polygon class="cls-9" points="184.92 230.77 184.24 228.66 181.99 228.73 183.81 227.41 183.06 225.31 184.88 226.59 186.63 225.27 185.96 227.38 187.78 228.63 185.56 228.66 184.92 230.77"/><polygon class="cls-9" points="177.93 232.37 176.39 230.77 174.4 231.76 175.47 229.8 173.9 228.23 176.07 228.63 177.07 226.66 177.39 228.84 179.57 229.2 177.57 230.16 177.93 232.37"/><polygon class="cls-9" points="172.32 236.83 170.26 236.05 168.9 237.83 168.97 235.62 166.87 234.87 169.01 234.26 169.08 232.05 170.29 233.91 172.43 233.26 171.04 235.01 172.32 236.83"/><polygon class="cls-9" points="169.19 243.29 166.97 243.5 166.54 245.68 165.65 243.61 163.44 243.9 165.12 242.4 164.19 240.4 166.12 241.51 167.76 240.01 167.26 242.18 169.19 243.29"/><polygon class="cls-9" points="200.62 243.32 202.51 242.18 201.97 240.04 203.65 241.47 205.51 240.29 204.65 242.36 206.36 243.75 204.15 243.57 203.33 245.64 202.83 243.47 200.62 243.32"/><polygon class="cls-9" points="197.51 236.87 198.73 235.01 197.3 233.3 199.44 233.87 200.62 232.01 200.73 234.23 202.9 234.76 200.8 235.55 200.98 237.76 199.59 236.05 197.51 236.87"/><polygon class="cls-9" points="191.91 232.37 192.2 230.19 190.16 229.27 192.34 228.88 192.59 226.66 193.66 228.59 195.84 228.16 194.3 229.77 195.41 231.69 193.41 230.73 191.91 232.37"/></g></g><path id="Amarillo" class="cls-10" d="M134.65,196.94H235.16A2.86,2.86,0,0,1,238,199.8v22.8H131.79V199.8A2.87,2.87,0,0,1,134.65,196.94Z"/></g><g id="LaMeriendita"><path id="A2_Mod" data-name="A2 Mod" class="cls-11" d="M321.9,122.3c0,1.68.07,4.14.21,7.42s1.25,6.82,1.25,8.46c0,.85-1.5,1.46-2,1.53-1.86.22-3.75-.93-6.14-.93-.28,0-.46-.6-.57-1.85s-.21-1.89-.35-1.89a3.24,3.24,0,0,0-.47.57c-1.68,2.46-3.42,3.67-5.31,3.67q-4.33,0-7.18-5a22.09,22.09,0,0,1-2.67-11.17c0-5,.93-9,2.78-12.06,1.93-3.18,4.57-4.75,7.92-4.75,2.32,0,4.18,1.18,5.5,3.57.07.11.1.18.14.18s.28-.53.46-1.57.36-1.57.61-1.57c.53,0,1.93-1,3.46-.57s2.85.07,3.5.36a17.26,17.26,0,0,1,.64,3.32c0,.07-1-.5-1-.11A102,102,0,0,0,321.9,122.3Zm-7.14.21a8.2,8.2,0,0,0-1.18-4.56,3.51,3.51,0,0,0-3.1-1.79,3.61,3.61,0,0,0-3.11,1.79,8.12,8.12,0,0,0-1.17,4.56,7.94,7.94,0,0,0,1.24,4.5,3.59,3.59,0,0,0,3,1.89,3.69,3.69,0,0,0,3.1-1.78,8.15,8.15,0,0,0,1.18-4.61Z"/><path id="T" class="cls-11" d="M297.24,129c0,.64-.07,1.64-.18,3s-.18,2.28-.18,2.89a2.68,2.68,0,0,1-.14,1.18,3.81,3.81,0,0,1-.75.75,9.9,9.9,0,0,1-6.35,2.31q-6.42,0-6.42-7.17c0-1.42,0-3.57.11-6.46s.1-5,.1-6.42c0-1-.39-1.42-1.14-1.35H282a.73.73,0,0,0-.29,0,.79.79,0,0,1-.86-.64v-.22a15.33,15.33,0,0,1,.07-1.6,13.49,13.49,0,0,0,.08-1.61c0-.46,0-1.14-.08-2.07s-.07-1.6-.07-2.07.47-.67,1.43-.71c.54,0,.82-.25.86-.64a29.75,29.75,0,0,0,.07-3.89c-.07-2.78-.07-4.1-.07-4,0-2.49.18-3.74.5-3.74a5.66,5.66,0,0,1,1.71.39,14.12,14.12,0,0,0,1.75.5c.75.14,1.89.36,3.42.61.36,0,.57.21.57.53,0,.86,0,2.18-.14,3.93s-.14,3.06-.14,4c0,1.07.21,1.6.64,1.6s1.32,0,2.36-.11,1.85-.1,2.39-.1a.44.44,0,0,1,.5.35v.11c0,.5,0,1.25-.11,2.25s-.11,1.75-.11,2.25,0,1.28,0,2.28,0,1.75,0,2.28-.21.68-.64.68-.78,0-1.5,0-1.18,0-1.5.71h-1.67c-.22-.75-.33-.29-.18.68v2.28a11.92,11.92,0,0,0-.11,2.32,10.91,10.91,0,0,0,.43,3.75,2.31,2.31,0,0,0,2.35,1.39,5.2,5.2,0,0,0,1.61-.36,5.21,5.21,0,0,1,1.46-.36C297.1,128.29,297.24,128.54,297.24,129Z"/><path id="I2_Mod" data-name="I2 Mod" class="cls-11" d="M278.12,123.58c0,1.57,0,3.93.07,7.07s.07,5.46.07,7a.7.7,0,0,1-.57.82,17.28,17.28,0,0,1-3.39.18,22.46,22.46,0,0,1-3.43-.18.82.82,0,0,1-.6-.43,4.41,4.41,0,0,1,0-1c0-1.5,0-3.75.07-6.75s.07-5.24.07-6.78q0-9.19-.5-14.66c0-.36,0-.57,0-.68,0-.43.21-.64.6-.64a14.57,14.57,0,0,1,1.9.18,12.47,12.47,0,0,0,1.92.18,12.6,12.6,0,0,0,1.93-.18,15.56,15.56,0,0,1,1.93-.18c.35,0,.53.21.53.64,0,.07,0,.29,0,.61C278.26,113.17,278.12,118.05,278.12,123.58ZM279.83,100c-.43,3.71-2.57,5.18-5.5,5.18a4,4,0,0,1-3.1-1.43,6.21,6.21,0,0,1-1.32-4.21,6,6,0,0,1,1.39-4.14c.86-1,1.75-2.1,2.93-2.14,2-.11,3.28-.5,5.17,1.14C281.58,96.15,280,98.25,279.83,100Z"/><path id="D" class="cls-11" d="M266.59,92.51c0-.47-.07.25-.18,2.14-.18,2.39-.28,5.46-.39,9.2-.11,4.25-.18,9.07-.18,14.45,0,8.92.18,15.27.5,19.09a7.52,7.52,0,0,1,0,.79.37.37,0,0,1-.32.42h0a51.1,51.1,0,0,1-5.89.18c-.79,0-1.25-.21-1.39-.67l-.07-2.47a1.5,1.5,0,0,0-.18-.5,1,1,0,0,0-.32.4,7.15,7.15,0,0,1-6,3.42q-4.71,0-7.49-4.78A22.68,22.68,0,0,1,242,122.62c0-4.71.86-8.6,2.61-11.63,1.85-3.25,4.39-4.85,7.56-4.85a5.78,5.78,0,0,1,5.21,3.1c.22.36.36.54.43.54s.21-.29.21-.86c0-1.68,0-4.14-.07-7.46s-.07-5.78-.07-7.42c0-.64.11-1,.36-1.07,1-.07,2.25-.18,3.92-.39a23.44,23.44,0,0,0,3.93-.82C266.45,91.69,266.59,91.94,266.59,92.51Zm-8.35,29.79a8.34,8.34,0,0,0-1.21-4.5,3.49,3.49,0,0,0-3-1.92,3.22,3.22,0,0,0-2.89,1.92,9.51,9.51,0,0,0-1.07,4.64,8.32,8.32,0,0,0,1.07,4.43,3.35,3.35,0,0,0,2.89,2,3.42,3.42,0,0,0,3-2A8.51,8.51,0,0,0,258.24,122.3Z"/><path id="N" class="cls-11" d="M239.33,137.68c0,.57-.21.92-.64,1a27.18,27.18,0,0,1-3.25.14,15.49,15.49,0,0,1-3.49-.22c-.43-.14-.68-.57-.68-1.35,0-1,0-2.57.07-4.64s.07-3.64.07-4.67c0-.79,0-2,0-3.61s0-2.78,0-3.6c0-3-.89-4.46-2.68-4.46a3.21,3.21,0,0,0-2,1.11,3.58,3.58,0,0,0-1.25,2.46v17.62c0,.72-.21,1.11-.68,1.22-1.07.1-2.14.14-3.21.14a15.48,15.48,0,0,1-3.39-.22c-.46-.1-.68-.46-.68-1.07,0-1.71,0-4.24,0-7.67s0-6,0-7.7a74.29,74.29,0,0,0-.86-12.78,2.11,2.11,0,0,1,0-.5.77.77,0,0,1,.33-.71c.92-.14,2.17-.39,3.74-.71a31.68,31.68,0,0,1,4-1c.18,0,.28.75.39,2.21s.21,2.21.39,2.21c-.14,0,.64-.75,2.39-2.25s3.32-2.28,4.64-2.28a6.44,6.44,0,0,1,4.75,2,8.8,8.8,0,0,1,2.14,6.28V125c0,1.42,0,3.53,0,6.35S239.33,136.25,239.33,137.68Z"/><path id="E2_Mod" data-name="E2 Mod" class="cls-11" d="M162.23,120.91c0,2.17-.47,3.42-1.43,3.74-.18,0-1.71.29-4.6.72-1.75.28-4.36.6-7.82,1a4.56,4.56,0,0,0,1.89,3.21,4.85,4.85,0,0,0,2.93.89,6.47,6.47,0,0,0,4-1.57l1.68-1.57c.32.21.82,1.32,1.57,3.32,1.32,3.6,1.57,2.5,2.5,4.92a5,5,0,0,1,.35,3.14c-1.82,2.82-6.71.75-10.49.75a10,10,0,0,1-8.52-4.49c-2.22-3-3.32-7.14-3.32-12.24s1-9.07,3-12.24,4.75-4.92,8.14-4.92c2.85,0,5.28,1.49,7.24,4.53A20.4,20.4,0,0,1,162.23,120.91Zm-7.78-2a6.51,6.51,0,0,0-1-3.54,2.47,2.47,0,0,0-4.64.18,7.86,7.86,0,0,0-.82,3.75c0,.57.21.85.64.85a26.91,26.91,0,0,0,5.1-.75c.43-.1.68-.28.68-.49Z"/><path id="I1_Mod" data-name="I1 Mod" class="cls-11" d="M190.2,123.62c0,1.57,0,3.92.07,7.06s.07,5.46.07,7a.7.7,0,0,1-.57.82,15.48,15.48,0,0,1-3.39.22,15.83,15.83,0,0,1-3.42-.22.8.8,0,0,1-.61-.42,4.52,4.52,0,0,1,0-1c0-1.5,0-3.74.07-6.74s.07-5.25.07-6.78c0-6.14-.18-11-.5-14.67a5.53,5.53,0,0,1,0-.67.57.57,0,0,1,.61-.65c.64,0,1.28.08,1.89.18a11.46,11.46,0,0,0,1.93.18,11.34,11.34,0,0,0,1.92-.18c.65-.1,1.29-.14,1.93-.18.36,0,.54.22.54.65a4.67,4.67,0,0,1,0,.6C190.34,113.17,190.2,118.09,190.2,123.62ZM191.91,100c-.42,3.71-2.6,5.17-5.49,5.17a3.82,3.82,0,0,1-3.07-1.42A6.3,6.3,0,0,1,182,99.54a6,6,0,0,1,1.39-4.14c.86-1,1.75-2.11,2.93-2.14,2-.11,3.24-.5,5.17,1.14C193.66,96.18,192.09,98.29,191.91,100Z"/><path id="R" class="cls-11" d="M179.39,118.3q0,1.29-1,1.29c-.29,0-.68,0-1.25-.07s-1-.08-1.22-.08a3,3,0,0,0-2.49.86,6.06,6.06,0,0,0-.68,3.39c0,.93,0,2.36,0,4.25s0,3.31,0,4.24c0,.64,0,1.57.07,2.82s.07,2.18.07,2.78a.75.75,0,0,1-.67.86h-.08a31.92,31.92,0,0,1-3.24.14,17.55,17.55,0,0,1-3.39-.21c-.5-.07-.75-.43-.75-1.07,0-1.71,0-4.32,0-7.78s0-6,0-7.78a67.85,67.85,0,0,0-1-12.56,2.11,2.11,0,0,1,0-.5.66.66,0,0,1,.33-.64c.82-.14,2-.36,3.56-.71,2.36-.68,3.54-1,3.61-1,.28,0,.43.68.5,2s.21,2,.39,2c-.21,0,.39-.57,1.82-1.72a6.65,6.65,0,0,1,4.1-1.71c.82,0,1.25.25,1.25.79s0,1.49-.14,2.67-.14,2.11-.14,2.68,0,1.46,0,2.5A24.77,24.77,0,0,1,179.39,118.3Z"/><path id="E1_Mod" data-name="E1 Mod" class="cls-11" d="M214.82,120.55c0,2.18-.5,3.43-1.43,3.71-.14,0-1.67.29-4.6.72-1.75.28-4.35.6-7.81,1a4.52,4.52,0,0,0,1.89,3.22,5.11,5.11,0,0,0,2.92.92,6.41,6.41,0,0,0,4-1.57l1.68-1.57c.32.22.82,1.32,1.57,3.32,1.32,3.61,1.57,2.5,2.5,4.93a5,5,0,0,1,.35,3.14c-1.82,2.81-6.7.74-10.49.74a10,10,0,0,1-8.52-4.49c-2.21-3-3.32-7.14-3.32-12.24s1-9.06,3-12.24,4.75-4.92,8.14-4.92c2.85,0,5.28,1.5,7.24,4.53A19.49,19.49,0,0,1,214.82,120.55Zm-7.78-2a6.47,6.47,0,0,0-1-3.53,2.81,2.81,0,0,0-2.32-1.53,2.68,2.68,0,0,0-2.32,1.71,8.35,8.35,0,0,0-.86,3.71c0,.57.22.89.61.89a26.91,26.91,0,0,0,5.1-.75c.54-.07.75-.25.75-.5Z"/><path id="M" class="cls-11" d="M137.89,137.89c0,.68-.21,1-.64,1H129.4c-.43,0-.64-.39-.64-1.14,0-2.18.07-5.46.18-9.85s.18-7.63.14-9.85c0-.64-.07-1-.21-1-.18.15-1.14,3.47-3,10l-3.21,11.52c-.14.5-.32.79-.57.9s-.61,0-.89,0c-.75,0-1.22-.21-1.4-.64-.78-2.39-1.85-5.85-3.14-10.38-1.39-4.78-2.42-8.28-3.14-10.42a.7.7,0,0,0-.21-.36,2,2,0,0,0-.14.93c0,2.1,0,5.32.1,9.53s.11,7.42.11,9.52c0,.75-.21,1.14-.6,1.14h-7.43c-.28,0-.46-.07-.53-.21s0-6.64.14-11.35.22-8.27.22-10.63-.08-7.21-.22-14.09c0-1.79-.07-4.46-.21-8l0-.53c0-.43.29-.65.93-.65.82,0,2,0,3.67-.1s2.86-.11,3.68-.11c.18,0,.39.46.68,1.35l6.49,20.81c.47,1.39.86,2.1,1.14,2.1s.5-.82,1-2.43q2.25-6.8,6.63-20.51c.25-.86.54-1.29.82-1.29.43,0,1.08,0,2,.11s1.53.11,2,.11,1.14-.07,1.68-.14a12.4,12.4,0,0,1,1.71-.18c.43,0,.68.25.68.78,0,2.57-.07,6.35-.18,11.42s-.18,8.88-.18,11.42q0,3.52.21,10.59C137.79,132,137.89,135.57,137.89,137.89Z"/><path id="A1_Mod" data-name="A1 Mod" class="cls-11" d="M88.83,122.3c0,1.68.08,4.14.22,7.42s1.25,6.82,1.25,8.46c0,.85-1.5,1.46-2,1.53-1.82.22-3.75-.93-6.14-.93-.28,0-.46-.6-.57-1.85s-.21-1.89-.36-1.89a1.86,1.86,0,0,0-.46.57c-1.68,2.46-3.42,3.67-5.32,3.67q-4.33,0-7.17-5a22.17,22.17,0,0,1-2.67-11.17c0-5,.92-9,2.78-12.06,1.93-3.18,4.57-4.75,7.92-4.75,2.32,0,4.18,1.18,5.5,3.57.07.11.1.18.14.18s.28-.53.46-1.57.36-1.57.61-1.57c.53,0,1.93-1,3.46-.57s2.85.07,3.5.36a17.26,17.26,0,0,1,.64,3.32c0,.07-1-.5-1-.11A91.15,91.15,0,0,0,88.83,122.3Zm-7.17.21A8.28,8.28,0,0,0,80.49,118a3.53,3.53,0,0,0-3.11-1.79,3.59,3.59,0,0,0-3.1,1.79,8,8,0,0,0-1.18,4.56,7.87,7.87,0,0,0,1.25,4.5,3.58,3.58,0,0,0,3,1.89,3.72,3.72,0,0,0,3.11-1.78A8.23,8.23,0,0,0,81.66,122.51Z"/><path id="L" class="cls-11" d="M61.61,139.21c-1.25,0-2.85,0-4.82-.14L52,138.93l-6.43-.15a23.64,23.64,0,0,1-2.78-.14.86.86,0,0,1-.64-1c0-2.29,0-5.71.07-10.28s.07-8,.07-10.27,0-6.07-.14-10.92S42,97.75,42,95.33c0-.47.21-.68.64-.68s1.07,0,1.93.1,1.49.11,1.89.11,1.17,0,2.1-.11,1.64-.1,2.11-.1c.21,0,.32.21.28.6l0,.4q-.27,5.88-.57,17.76l0,8.28c0,2.68,0,4.64,0,5.89l0,.75a.46.46,0,0,0,.32.46h.61c1.28,0,3.21-.1,5.78-.28s4.49-.29,5.78-.29c.39,0,.57.25.57.72a66.76,66.76,0,0,1-.53,9.27c-.08.54-.22.86-.47,1A6.79,6.79,0,0,1,61.61,139.21Z"/></g><g id="Gorro2"><circle class="cls-12" cx="274.66" cy="98.36" r="6.78"/><path class="cls-9" d="M279.4,96.25a1.89,1.89,0,0,0-1.93-1.89,1.8,1.8,0,0,0-1,.29,2.47,2.47,0,0,0-3.46-.22l-.21.22a1.94,1.94,0,0,0-1-.29,1.91,1.91,0,0,0-.72,3.68v4.49a16.66,16.66,0,0,1,7,0V98A1.93,1.93,0,0,0,279.4,96.25Z"/><path class="cls-13" d="M278.19,101.18v1.35a15.74,15.74,0,0,0-7,0v-1.35A15.46,15.46,0,0,1,278.19,101.18Z"/><path class="cls-14" d="M270.59,96.72c0,.07.07.1.07.14a.76.76,0,0,0,.11.14.56.56,0,0,1,.1.14.37.37,0,0,0,.15.11s.1.07.14.11.11,0,.14.07a.26.26,0,0,0,.18,0c.07,0,.11,0,.18,0H272a.92.92,0,0,0,.32-.07s.11,0,.14-.07l.15-.11.28-.18.07,0,.07.07.18.18.18.18.18.17.21.15a1.74,1.74,0,0,0,.93.25h.21c.08,0,.15,0,.25,0a1.3,1.3,0,0,0,.43-.18,1.68,1.68,0,0,0,.4-.28l.17-.18.18-.18.07-.07.07,0,.29.18.14.11s.11,0,.15.07a.88.88,0,0,0,.32.07h.35a.38.38,0,0,0,.18,0c.07,0,.11,0,.18,0s.11,0,.14-.07.11-.07.15-.11l.14-.1a1.18,1.18,0,0,0,.11-.15,1.7,1.7,0,0,0,.1-.14.23.23,0,0,0,.07-.14.34.34,0,0,1-.07.18.27.27,0,0,0-.07.14,1.34,1.34,0,0,1-.11.14l-.14.14a1.34,1.34,0,0,1-.14.11.26.26,0,0,1-.14.07c-.08,0-.11.07-.18.07a.3.3,0,0,1-.18,0l-.18,0h-.18a1.11,1.11,0,0,1-.35-.08,1,1,0,0,1-.18-.07l-.15-.07-.28-.18h.11l-.18.18a1,1,0,0,1-.18.18,1.55,1.55,0,0,1-.43.36,1.24,1.24,0,0,1-.5.21,1.63,1.63,0,0,1-.28.07h-.29a2.1,2.1,0,0,1-1-.28.92.92,0,0,1-.22-.18,1,1,0,0,1-.18-.18l-.17-.18-.18-.18h.1l-.32.18-.14.07a.34.34,0,0,1-.18.07,1.17,1.17,0,0,1-.36.08h-.21a.3.3,0,0,1-.18,0c-.07,0-.1,0-.18,0l-.17-.07-.18-.1-.15-.11a.56.56,0,0,1-.1-.14s-.07-.11-.11-.15a.21.21,0,0,1-.07-.14A.58.58,0,0,0,270.59,96.72Z"/></g><g id="Gorro1"><circle class="cls-12" cx="186.6" cy="98.43" r="6.78"/><path class="cls-9" d="M191.31,96.29a1.89,1.89,0,0,0-1.93-1.89,1.74,1.74,0,0,0-1,.28,2.47,2.47,0,0,0-3.46-.21l-.22.21a1.9,1.9,0,0,0-2,3.25,1.12,1.12,0,0,0,.32.14v4.5a16.66,16.66,0,0,1,7,0v-4.5A1.91,1.91,0,0,0,191.31,96.29Z"/><path class="cls-13" d="M190.09,101.21v1.36a15.46,15.46,0,0,0-7,0v-1.36A15.74,15.74,0,0,1,190.09,101.21Z"/><path class="cls-14" d="M182.53,96.79a.23.23,0,0,1,.07.14s.07.11.11.14a.73.73,0,0,1,.11.15.42.42,0,0,0,.14.1s.1.07.14.11.11,0,.14.07a.26.26,0,0,0,.18,0c.07,0,.11,0,.18,0h.32a.88.88,0,0,0,.32-.07s.11,0,.14-.07l.15-.11.28-.18.07,0,0,.07.18.18.18.18.18.18c.07,0,.14.1.21.14a1.71,1.71,0,0,0,.93.25h.21c.07,0,.18,0,.25,0a1.69,1.69,0,0,0,.82-.5l.18-.18.18-.17,0-.08.08,0,.28.18.14.11s.11,0,.15.07a1.14,1.14,0,0,0,.32.07h.35c.08,0,.11,0,.18,0s.11,0,.18,0,.11,0,.14-.07a1.43,1.43,0,0,1,.15-.11s.1-.07.14-.11a.61.61,0,0,0,.11-.14,1.7,1.7,0,0,1,.1-.14.26.26,0,0,0,.07-.15.31.31,0,0,1-.07.18c0,.07-.07.11-.07.14a1.43,1.43,0,0,1-.11.15l-.14.14c-.07.07-.1.07-.14.11a.33.33,0,0,1-.18.07.3.3,0,0,1-.18.07.28.28,0,0,1-.18,0l-.17,0h-.18a1.15,1.15,0,0,1-.36-.07,1.34,1.34,0,0,0-.18-.07l-.14-.07-.32-.18h.11l-.18.18-.18.18a7.12,7.12,0,0,1-.43.32,1.24,1.24,0,0,1-.5.21,1.63,1.63,0,0,1-.28.07h-.29a2.1,2.1,0,0,1-1-.28.92.92,0,0,1-.22-.18,1,1,0,0,1-.18-.18c-.07-.07-.1-.14-.18-.18l-.17-.18h.1l-.32.18-.14.07a.34.34,0,0,1-.18.07,1.17,1.17,0,0,1-.36.08h-.17a.28.28,0,0,1-.18,0c-.07,0-.11,0-.18,0a1.34,1.34,0,0,1-.18-.07l-.14-.1-.14-.11s-.11-.07-.15-.14l-.1-.15a.23.23,0,0,1-.08-.14C182.57,96.86,182.53,96.82,182.53,96.79Z"/></g></g></g></g></svg>