<svg xmlns="http://www.w3.org/2000/svg" viewBox="0 0 365.44 298.39"><defs><style>.cls-1{fill:#798c9c;}.cls-2{fill:#4f7bb6;}.cls-3{fill:#fff;}.cls-4{fill:#e1ebf3;}.cls-5{fill:#8eb5e1;}.cls-6{fill:#37404d;}</style></defs><g id="Capa_2" data-name="Capa 2"><g id="M1Info"><g id="InfoModeloLibro"><path class="cls-1" d="M18.88,53c.06-6.75.27-13.51.09-20.26a7.27,7.27,0,0,1,3-6.39A110,110,0,0,1,69.54,3.58c31.77-6.76,62.72-4.36,92,10.71,6.82,3.52,12.89,8.52,19.21,13,1.36.95,2.11,1.68,3.73.27,16-13.95,34.88-21.83,55.58-25.32,24.61-4.14,48.86-2.59,72.35,6.35a106.37,106.37,0,0,1,31.39,18.07,6.69,6.69,0,0,1,2.71,5.74c-.14,6.88,0,13.76.09,20.64,1.2,1.36,1.08,3,.9,4.6a33.29,33.29,0,0,0-.52,7.85q0,98.06-.05,196.11c0,2.37,1.15,5.69-1.42,6.84-2.21,1-4.14-1.78-6-3.13-20.72-15-43.88-22.5-69.39-23.35a135.63,135.63,0,0,0-43.79,5.2,118.14,118.14,0,0,0-39.54,20.28c-3.33,2.61-4.69,2.73-7.59.32-15.93-13.24-34.37-20.91-54.67-24.09-24.14-3.78-47.94-2.39-71,6.35a109.07,109.07,0,0,0-27.57,15.12c-1.89,1.44-3.79,4.47-6.25,3.16-2.11-1.12-1.12-4.37-1.12-6.69q-.06-90.91-.06-181.83c0-7.38.57-14.77-.49-22.13C17.79,56,17.68,54.38,18.88,53Z"/><path class="cls-2" d="M346.54,57.61c0-1.53,0-3.06,0-4.59,11.6.94,18.85,8.55,18.86,20.15q.06,97.7,0,195.37c0,12.52-8.27,20.23-21.5,20.24q-62.55.06-125.11,0c-3.26,0-6.52.17-9.77,0-5.57-.34-10.07.39-14.58,4.94-7.21,7.27-19.5,5.74-26-2.19a6.86,6.86,0,0,0-6-2.77q-70.26.11-140.52.05c-11.33,0-18.79-5.11-21.27-14.69a25.55,25.55,0,0,1-.6-6.31Q0,170.86,0,73.93C0,61.66,7,54,18.88,53c0,1.53,0,3.06,0,4.59-.73,1.39-2.15,1.61-3.44,2.06-6.18,2.15-9,6.77-9.65,13-.09,1,0,2,0,3V265.47a26.8,26.8,0,0,0,.68,7.08,13.23,13.23,0,0,0,12.22,10c1.63.1,3.26.05,4.89.05q69.32,0,138.65-.07c4.46,0,7.69,1.08,10.64,4.74,5.5,6.83,14.26,6.83,19.75,0,2.95-3.67,6.18-4.76,10.65-4.75q69.51.17,139,.07c1.63,0,3.26.06,4.89-.07a13.29,13.29,0,0,0,11.75-9.58,25.12,25.12,0,0,0,.78-7.07q0-95.25,0-190.5a19,19,0,0,0-1.36-8.08,13.36,13.36,0,0,0-8-7.47C348.94,59.3,347.34,59.14,346.54,57.61Z"/><path id="leftpage" class="cls-3" d="M181.86,262a121.31,121.31,0,0,0-47.46-22.4,144.79,144.79,0,0,0-41-3.53c-16.68.91-32.76,4.06-48,10.89-7.24,3.25-14.1,7.37-21.39,11.23v-3.51q0-109.92-.06-219.83a7.27,7.27,0,0,1,3.14-6.6C43.3,16.07,61.56,9.14,81.48,6.3c21.82-3.11,43.21-1.36,64,6.18,14,5.09,26.8,12.33,37.27,23.19,1.77,2,1.2,4.52,1.2,6.84q.06,70.46,0,140.91c0,24.3,0,48.6-.06,72.89C183.87,258.31,184.92,261,181.86,262Z"/><path id="rightpage" class="cls-4" d="M181.86,262a22.36,22.36,0,0,0,.82-4.21q.06-111.07,0-222.15c11.44-12.17,25.78-19.52,41.36-24.75C239.9,5.59,256.28,4,272.83,5c24,1.48,46.29,8.44,65.91,22.9a6.22,6.22,0,0,1,2.75,5.65q-.08,111.36-.05,222.71c0,.94-.12,1.89-.19,3-5.43-3.11-10.51-6.25-15.8-9a126.66,126.66,0,0,0-44.2-13.19c-27.2-3.11-53.26.73-77.79,13.06-6.44,3.24-12.31,7.6-18.5,11.34C184.12,262,182.9,261.86,181.86,262Z"/><path class="cls-5" d="M346.54,57.61c7.1,1,12,4.58,13.82,11.79a18.94,18.94,0,0,1,.44,4.45q0,96.77.1,193.53c0,9.46-6.64,16.59-16.6,16.52-47.84-.31-95.7-.12-143.55-.19-2.74,0-4.48.63-6.13,3.07-6.08,9-17.73,9-23.81,0-1.65-2.44-3.38-3.08-6.13-3.07q-71,.1-142,.05c-12.94,0-18-5.15-18-18.26v-189c0-12.1,2.81-15.8,14.29-18.87a43,43,0,0,1,.6,5.15q0,100.67,0,201.34v4c6.17-4.06,11.92-8.2,18-11.76a101.92,101.92,0,0,1,39.73-13.74A203.69,203.69,0,0,1,113,241.13a117.38,117.38,0,0,1,64.48,23.62c5.31,4,5.21,4,10.05.5a124.7,124.7,0,0,1,61-23.7c21.68-2.28,42.79-.31,63.23,7.5a116.63,116.63,0,0,1,31.85,18c.54.44,1.12.84,2.23,1.67V264.1q0-100.67,0-201.34A43,43,0,0,1,346.54,57.61Z"/><g id="letter-i"><path class="cls-6" d="M278.92,139.88c0,13.28.08,26.55-.06,39.83,0,2.66.71,3.35,3.33,3.3,6.92-.13,7,0,6.32,7.17a3.32,3.32,0,0,1-2.29,2.25q-21.78.21-43.58,0a3,3,0,0,1-2-2.1c-.76-7.22-.7-7.37,6.5-7.33,2.63,0,3.08-.95,3.07-3.26q-.09-35.33,0-70.63c0-2.27-.35-3.35-3-3.36-7.26,0-7.32-.15-6.54-7.32a3,3,0,0,1,2.1-2c11.39-.13,22.79,0,34.18-.13,2.54,0,2,1.57,2,3Q278.94,119.59,278.92,139.88Z"/><path class="cls-6" d="M250.18,62.48a14.12,14.12,0,0,1,14.36-14.17A14.33,14.33,0,0,1,278.9,62.57,14.53,14.53,0,0,1,264.27,77,14.35,14.35,0,0,1,250.18,62.48Z"/></g></g></g></g></svg>