<svg xmlns="http://www.w3.org/2000/svg" viewBox="0 0 274.11 294.77"><defs><style>.cls-1{fill:#f65c9a;}.cls-2{fill:#fee070;}.cls-3{fill:#fed1ee;}.cls-4{fill:#fe71be;}.cls-5{fill:#866954;}.cls-6{fill:#feb8ee;}.cls-7{fill:#fe992d;}.cls-8{fill:#705245;}.cls-9{fill:#e45045;}.cls-10{fill:#c33730;}.cls-11{font-size:36px;fill:#792348;font-family:BerlinSansFBDemi-Bold, Berlin Sans FB Demi;font-weight:700;}.cls-12{fill:#efa246;}.cls-13{fill:#ea8e21;}.cls-14{fill:#ce7a15;}.cls-15{fill:#a1560b;}.cls-16{fill:#fef2d8;}.cls-17{fill:#a1550b;}.cls-18{fill:#a2570c;}.cls-19{fill:#a2560b;}.cls-20{fill:#fef2d9;}.cls-21{fill:#a1550a;}</style></defs><g id="Capa_2" data-name="Capa 2"><g id="Modelo-1-Logo-LaMeriendita"><g id="Muestra2CupCake"><path class="cls-1" d="M160.45,15.13c1-3.54,2.18-7,2.89-10.65A6.49,6.49,0,0,1,166.21,0h3.13c1.94,1.2,3.94,2.31,5.81,3.6,7.6,5.23,12,12.43,12.33,21.66.13,4.09-1,8.22-1.58,12.34-1.1,2.8-3.31,4.79-5.18,7a32.66,32.66,0,0,0-3.2,3.65,78.85,78.85,0,0,1-27.3,18.18,126.75,126.75,0,0,1-24.59,6.41,4.24,4.24,0,0,1-2.42,0c-.49-.28-.61-.64-.13-1a7.71,7.71,0,0,1,2.19-1.08q7-2.7,13.83-5.73c7.32-3.26,12.44-8.9,16.28-15.71a46.73,46.73,0,0,0,6.24-23.48,23.13,23.13,0,0,0-1.86-9.12A1.45,1.45,0,0,1,160.45,15.13Z"/><path class="cls-2" d="M230.36,125l.45,3.12c.82-.39,1.59-.81,2.4-1.12,2.14-.81,3.52.28,3.23,2.64-.4,3.17-.92,6.32-1.42,9.48q-2.39,15.07-4.79,30.15Q227.58,186,225,202.73c-.65,4.11-1.3,8.22-1.88,12.34a16.07,16.07,0,0,1-15.94,14.07c-1.87,0-3.73,0-5.59,0-1.08-2-.21-4.11,0-6.11,1.09-12.46,2.28-24.91,3.46-37.36,1.1-11.72,2.14-23.44,3.35-35.14a11.33,11.33,0,0,0,0-3.34,2.6,2.6,0,0,0-5.08-.36,10.18,10.18,0,0,0-.45,2.18c-.87,10.24-1.92,20.46-2.85,30.69q-1.16,12.79-2.39,25.58c-.69,7.11-1.31,14.23-2,21.34a3.86,3.86,0,0,1-.68,2.53l-17.07,0c-1.18-1.94-.79-4.1-.53-6.1.55-4.38.46-8.78.65-13.16.35-8.33.74-16.66,1.11-25,.34-7.73.58-15.47,1.13-23.19.29-4,.27-8,.56-12.05a6.81,6.81,0,0,0-.21-2.66,2.54,2.54,0,0,0-2.43-2,2.39,2.39,0,0,0-2.51,1.81,9.84,9.84,0,0,0-.55,3.08c0,8.26-.65,16.51-1,24.77-.35,7.87-.57,15.76-1.17,23.63-.28,3.56-.37,7.15-.45,10.71-.11,5.06-.72,10.11-.58,15.18a8.11,8.11,0,0,1-1.06,4.94l-17.07,0c-1-1.23-.69-2.71-.69-4.09q0-37.24,0-74.48a19.73,19.73,0,0,0-.13-3.35,2.53,2.53,0,0,0-5,0,20.82,20.82,0,0,0-.13,3.35q0,37.23,0,74.48c0,1.38.33,2.86-.68,4.09H129.92c-1.12-2.36-1-4.94-1.07-7.43-.53-12.58-1.19-25.15-1.71-37.72-.34-8-.89-16.07-1-24.12-.07-3.72-.55-7.43-.47-11.16a4.87,4.87,0,0,0-.47-2.18,2.45,2.45,0,0,0-2.25-1.56,2.54,2.54,0,0,0-2.52,1.52,4.32,4.32,0,0,0-.44,2.39c.62,7.35.58,14.74,1.16,22.09.29,3.79.34,7.6.48,11.39.29,8.26.8,16.52,1.07,24.78.21,6.25.69,12.5.81,18.76,0,1.09.2,2.26-.61,3.21H106.17a2.88,2.88,0,0,1-1-2.15q-1.32-14.58-2.71-29.13c-1-10.6-2-21.21-3-31.81-.53-5.48-1-11-1.5-16.46a21.08,21.08,0,0,0-.67-4.41,2.53,2.53,0,0,0-2.88-1.94,2.39,2.39,0,0,0-2.18,2.43c-.29,2.33.22,4.61.43,6.9q1.42,15.47,2.89,30.92c1,10.45,2,20.9,2.91,31.36.34,3.78.65,7.56,1.1,11.33.12,1,.35,2.09-.44,3-4.62.14-9.23.44-13.46-2.1a16.05,16.05,0,0,1-8-11.75Q74,192.57,70.51,169.89c-2.09-13.36-4.19-26.71-6.2-40.08a3.14,3.14,0,0,1,.78-2.54,3.58,3.58,0,0,1,2.64-.12,12.06,12.06,0,0,1,2.6,1.28c1.57.45,2.63,1.64,3.78,2.67,4.24,3.8,9.7,3.88,14,.09a44.38,44.38,0,0,1,4.3-3.56,11,11,0,0,1,12.4.09c1.6,1.12,2.89,2.58,4.42,3.77,4.4,3.43,9.17,3.34,13.42-.3.9-.77,1.86-1.49,2.74-2.29a11.06,11.06,0,0,1,15.39-.08c.78.69,1.49,1.46,2.31,2.11,5.4,4.28,10.4,4.08,15.38-.69a15.16,15.16,0,0,1,5.88-3.93,10.72,10.72,0,0,1,10.63,2.25c1,.81,2,1.58,2.92,2.43,4.41,4,10.07,4,14.45-.17,2.13-2,4.28-3.92,7.21-4.71a9.13,9.13,0,0,1,5.28,0,12.75,12.75,0,0,1,6.57,4c5.57,5.73,11.89,4.88,17.31-.7a3.67,3.67,0,0,0,1-2.42C229.69,126.25,229.51,125.42,230.36,125Z"/><path class="cls-3" d="M123.28,72.57c18.4-2.67,35.68-8,49.76-20.92,1.42-1.31,2.87-2.58,4.3-3.88,1.88,1,2.51,2.95,3.21,4.69,2.91,7.23,3.82,14.55.2,21.86-2.33,4.7-6.38,7.63-10.86,10-8.5,4.46-17.78,6.45-27.14,8-13.17,2.18-26.47,3.19-39.78,4.17C95.31,97,87.69,98,80.46,100.91a2.46,2.46,0,0,1-1.95.24,18.86,18.86,0,0,1,5.1-12.5,33.21,33.21,0,0,1,11.32-8.53c.6-.27,1-.94,1.53-1.43,7.81-3.32,16.11-4.73,24.4-6.14C121.69,72.41,122.48,72.65,123.28,72.57Z"/><path class="cls-4" d="M123.28,72.57c-4.83,1-9.7,1.89-14.5,3-3.45.82-6.82,2-10.23,2.93a11.06,11.06,0,0,1-2.09.16A24.57,24.57,0,0,1,92,65.79c-.2-6.68,2.63-12.22,6.7-17.3,6.07-7.58,14.43-10.64,23.59-12.25,6.44-1.13,12.86-2.34,19.25-3.69,1.32-.28,2.47-1.32,3.71-2,1.51-1,3.29-1.52,4.81-2.6a27.57,27.57,0,0,0,8.23-9.19c.47-.82.8-1.77,1.79-2.17.71,2.28,1.91,4.54,2.05,6.86a46.57,46.57,0,0,1-8,29.1,36.27,36.27,0,0,1-18.35,14.57c-4.19,1.5-8.27,3.29-12.4,5-.06,0-.16.07-.16.1S123.25,72.44,123.28,72.57Z"/><path class="cls-5" d="M204.71,126.57c-4.25-.89-7.75.55-10.74,3.51-2.15,2.11-4.38,4-7.59,4.34a10.49,10.49,0,0,1-8.3-2.38c-1.08-.92-2.13-1.87-3.18-2.81a10.56,10.56,0,0,0-14.59,0,47.66,47.66,0,0,1-4.06,3.49,10.25,10.25,0,0,1-12.29-.34c-1.3-1-2.47-2.16-3.7-3.23-4.43-3.86-10.17-3.71-14.62.13-2.11,1.83-4.35,3.82-6.89,4.76-4.21,1.56-8,0-11.17-3.13-2-2-4.12-3.84-7.11-4.36a10.26,10.26,0,0,0-8.41,2c-1.3,1-2.47,2.16-3.7,3.23a10.56,10.56,0,0,1-14.42,0c-1.23-1.08-2.41-2.21-3.61-3.32a30.79,30.79,0,0,1,.3-4.63A10.56,10.56,0,0,1,81,115.44l3.32-.08a3,3,0,0,1,2.09-.53c.6,0,1.19-.09,1.79-.09q50.72,0,101.42,0c2,.25,4.07-.16,6.09.19A11.65,11.65,0,0,1,205,124,2.46,2.46,0,0,1,204.71,126.57Z"/><path class="cls-6" d="M86.09,115.35H84.31c-1.53-2.73-3.27-5.38-4.52-8.24-.8-1.83-.88-4-1.28-6A50.61,50.61,0,0,1,95.4,96.69c5.95-.68,11.91-1.23,17.87-1.77,4.13-.37,8.28-.53,12.41-1,4.85-.51,9.72-1,14.5-1.89,6.61-1.24,13.21-2.65,19.7-4.41,6.27-1.71,12.21-4.36,16.92-9a18.32,18.32,0,0,0,5.58-13.17,30.38,30.38,0,0,0-5-17.69q3.56-4.25,7.12-8.5l1.44-1.67c3.32,2.06,6.95,3.77,9.89,6.28,4.89,4.17,7.42,9.78,8.5,16.15A25.12,25.12,0,0,1,202,75.1c-1,2.88-3.47,4.54-5.65,6.38a27.48,27.48,0,0,1-4.71,2.93c-5.16,3-10.84,4.56-16.56,5.94C164.53,92.9,153.71,94,142.9,95.11s-21.72,1.15-32.38,3.47c-8.37,1.81-15.77,5.33-21.07,12.42C88.35,112.46,87.9,114.44,86.09,115.35Z"/><path class="cls-1" d="M191.75,83.76A30.81,30.81,0,0,0,202,75.1a28.63,28.63,0,0,1,17.82,28.75,14.17,14.17,0,0,1-7.13,11.49,2.1,2.1,0,0,1-2,.8c-4.86,0-9.75.51-14.56-.65l-6.27-.12c0-.73.56-1,1-1.33,5.15-3.65,6.51-8.85,5.85-14.74a28.23,28.23,0,0,0-4.57-13.13C191.78,85.48,191.07,84.74,191.75,83.76Z"/><path class="cls-7" d="M99.11,229.08Q98,217.89,96.93,206.7c-.51-5.39-.94-10.8-1.44-16.19-.54-5.76-1.13-11.52-1.68-17.28-.3-3.1-.6-6.2-.87-9.31-.51-6-1.07-12-1.46-18-.17-2.59,1.21-3.83,3.64-3.64a3.09,3.09,0,0,1,3,2.77c.4,2.64.65,5.3.9,8q1.36,14.29,2.67,28.6c.65,7.17,1.2,14.35,1.87,21.52s1.42,14.17,2.14,21.25c.16,1.55.3,3.1.45,4.65Z"/><path class="cls-7" d="M194.86,229.1c.41-4.88.8-9.75,1.22-14.63q.48-5.53,1-11.08c.56-5.9,1.16-11.8,1.71-17.7.5-5.4.93-10.79,1.44-16.18.53-5.61,1.11-11.21,1.66-16.82.19-1.85.29-3.7.55-5.53.34-2.36,1.53-3.27,3.78-3.08,1.92.17,3.06,1.46,2.93,3.73-.24,4-.61,8-1,12s-.83,7.81-1.22,11.72c-.59,6-1.18,12-1.72,17.93-.51,5.54-.93,11.09-1.45,16.63s-1.12,11.2-1.67,16.81c-.21,2.07-.38,4.14-.57,6.21Z"/><path class="cls-7" d="M122.86,229.05c-.18-6-.33-12.05-.56-18.07-.25-6.46-.59-12.92-.88-19.37l-.9-19.6q-.43-9.69-.9-19.37c-.08-1.63-.36-3.25-.37-4.88a3.34,3.34,0,0,1,3.08-3.68c2.22-.16,3.43.77,3.91,3a6.84,6.84,0,0,1,.1,1.11c.17,5.28.3,10.56.52,15.84.42,9.94.89,19.89,1.34,29.84q.44,9.57.89,19.14c.26,5.34.55,10.68.83,16Z"/><path class="cls-7" d="M170.73,229.07c.41-7.71.84-15.42,1.24-23.12.18-3.49.34-7,.46-10.47.19-5.27.3-10.55.52-15.82q.63-15.15,1.36-30.28a20,20,0,0,1,.39-2.64c.36-1.9,1.49-2.74,3.5-2.66a3.15,3.15,0,0,1,3.19,3.06c-.16,5.34-.47,10.68-.72,16,0,.52-.1,1-.11,1.56-.18,5.27-.3,10.55-.52,15.82q-.63,14.93-1.34,29.83c-.29,6.23-.61,12.46-.91,18.69Z"/><path class="cls-7" d="M147,229.09q0-40.71,0-81.4c0-2.55,1.14-3.67,3.48-3.62s3.25,1.15,3.25,3.62q0,40.71,0,81.41Z"/><path class="cls-8" d="M196.21,115.49l16.52-.15,6.47.06c6.15.09,10.17,3.55,11.16,9.6.82,4.66-2.83,6.38-5.79,8.23-3.41,2.12-7.15,1.83-10.58-.28-1.31-.81-2.33-2.09-3.61-3-1.83-1.24-3.77-2.29-5.67-3.42C204.45,120.9,201.43,117.35,196.21,115.49Z"/><path class="cls-9" d="M142,29.53c-5.18-2.34-7.91-6.48-7.91-12s2.78-9.69,7.93-12c5,1.76,9.72,10.1,6.71,16.81C147.34,25.41,145.43,28.17,142,29.53Z"/><path class="cls-10" d="M142,29.53c1.69-1.74,3.71-3.26,5-5.25,4.26-6.51,1.67-13.78-4-18-.35-.26-.64-.59-1-.88a13.15,13.15,0,0,1,17.82,7.8c.21.63.39,1.27.58,1.9L160,16.59a28,28,0,0,1-11.52,12.9,16.4,16.4,0,0,1-3.31,1.06Z"/><path class="cls-4" d="M191.75,83.76c.43.85.81,1.73,1.29,2.55,3.55,6,5.29,12.36,4.07,19.38-.77,4.46-3.45,7.44-7.17,9.68-.66,0-1.33.07-2,.07q-49.92,0-99.84,0c-.67,0-1.34-.06-2-.09,5.35-10.77,14.76-15.73,26-17.71,5.59-1,11.31-1.29,17-1.88,8.46-.89,16.95-1.58,25.39-2.69a203.06,203.06,0,0,0,21.4-3.67C181.3,88.09,186.47,85.68,191.75,83.76Z"/></g><text id="Trazo2-LaMeriendita" class="cls-11" transform="translate(90.27 145.59) rotate(-18.27) scale(0.7 1)">L</text><text class="cls-11" transform="translate(102.85 141.38) rotate(-13.59) scale(0.7 1)">a</text><text class="cls-11" transform="matrix(0.69, -0.11, 0.16, 0.99, 116.8, 138.13)"> </text><text class="cls-11" transform="translate(122.25 136.73) rotate(-2.72) scale(0.7 1)">M</text><text class="cls-11" transform="matrix(0.69, 0.11, -0.15, 0.99, 141.65, 135.99)">e</text><text class="cls-11" transform="translate(153.02 137.76) rotate(19.31) scale(0.7 1)">r</text><text class="cls-11" transform="translate(161.15 140.63) rotate(28.54) scale(0.7 1)">i</text><text class="cls-11" transform="translate(166.46 143.07) rotate(40.35) scale(0.7 1)">e</text><text class="cls-11" transform="translate(175.53 150.96) rotate(44.79) scale(0.7 1)">n</text><text class="cls-11" transform="translate(185.48 160.85) rotate(46.99) scale(0.7 1)">d</text><text class="cls-11" transform="translate(195.49 171.64) rotate(47.8) scale(0.7 1)">i</text><text class="cls-11" transform="matrix(0.47, 0.52, -0.74, 0.67, 200.12, 176.77)">t</text><text class="cls-11" transform="matrix(0.49, 0.49, -0.71, 0.71, 206.89, 184.36)">a</text><text class="cls-11" transform="translate(219.35 196.36) rotate(35.98) scale(0.7 1)"> </text><g id="PanDeJamón"><g id="PanLargo"><path class="cls-12" d="M115.57,154.7c-1.75-2.32-3.46-4.78-5.28-6.94-2.75-3.27-1.36-3.72-.07-3.77,5.75-.24,11.54-.4,17.4-.34A108.16,108.16,0,0,1,162,150c4.45,1.54,9.15,4.21,13.74,6.37a79,79,0,0,1,6.65,7.78c7.35,10,9.75,17,8.51,25.93-1,7.13-3.83,12.2-6.75,17.12a83.55,83.55,0,0,1-14.87,17.91,170.77,170.77,0,0,1-16,13.2A231.54,231.54,0,0,1,120,259c-10.23,5.22-21.08,9.19-31.78,13.47a176.86,176.86,0,0,1-21.69,6.83c-7.09,1.82-14.11,3.92-22,3.94-3.48,0-6.78.52-10.16.78-6.75.52-14.09-.87-21.4-2.13A5.25,5.25,0,0,1,9.36,280,53.09,53.09,0,0,1,.28,254.29a86.38,86.38,0,0,1,.86-20.62A77.41,77.41,0,0,1,15,199.76c1.51-2.16,3-4.41,4.54-6.49,3.11-4.09,3.09-2.9,8.67,2.84.52.54,1,1.21,1.52,1.82,3.86,2.31,7.43,6.6,11.11,10.17,5.84,5.66,11.7,11.25,17.68,15.38,2.06,1.42,4.9,3.56,5.58,1.08s-1.69-6.13-3.52-8.95a188,188,0,0,0-15.65-20.92,42.54,42.54,0,0,1-5.16-7.21c-1.54-1.9-3-3.94-4.63-5.68-1.92-2.1-1.89-3.34-.88-4.14,4.17-3.32,8.38-6.55,12.59-9.8.53-.41,1.18-.63,1.68-1.09,3.91-3.57,5-1.11,8.87,3.43,1,1.14,2.33,1.33,3.5,2a4.87,4.87,0,0,0,1,1.86C72.82,185,83.62,196.84,95.06,204.47a8.74,8.74,0,0,0,2.23,1.2c2.17.64,2.8-.92,1.27-4.07-2-4-3.88-8.17-6.64-11.63-5.61-7.06-10.89-14.78-16.84-21.19a11.75,11.75,0,0,1-2.14-3.14c-1.5-2-3-4-4.5-6s-1.89-3.3-.64-3.85c2.84-1.25,5.67-2.55,8.64-3.56,3.88-1.32,8-2.2,11.78-3.67,1.38-.53,2.57-.15,4.28,1.75s3.25,3.61,4.91,5.13a11.46,11.46,0,0,0,2.86,1.59c3.31,4.62,7.08,7.52,10.65,11.09,5.72,5.72,11.51,11.2,17.43,15.21a25.65,25.65,0,0,0,2.55,1.58c1.44.71,2.87,1.26,3.41-.17s-.62-3.71-1.69-5.55a203.17,203.17,0,0,0-14.38-20.67A18.23,18.23,0,0,1,115.57,154.7Z"/><path class="cls-13" d="M9.36,280c8.61,1.66,17.31,3.66,25.06,2.62,5.09-.68,10.67-.18,15.73-.94,5.92-.89,11.53-2.52,17.23-3.93,4.67-1.16,9.32-2.38,13.89-3.78,2.93-.89,5.69-2.16,8.52-3.27,7-2.76,14.19-5.3,21.07-8.37a146.73,146.73,0,0,0,15.42-8.2c5.65-3.38,11.09-7.14,16.61-10.75s11-6.72,16.13-10.81a131.71,131.71,0,0,0,15.13-14.35,81.65,81.65,0,0,0,10.69-14.56,39.63,39.63,0,0,0,5-14.57c1.46-11.28-1.74-16.54-10.48-27.66-1.27-1.63-2.48-3.39-3.71-5.09,5.82,4,11.6,7.48,17.4,13.78a62.91,62.91,0,0,1,12,17.8,26,26,0,0,1,1.73,8.58c.52,9.44-2.87,14.85-5.81,20.63a35.74,35.74,0,0,1-5.66,8c-4.59,5-9.23,10-14.15,14.5-5.33,4.87-10.89,9.39-16.57,13.69a115.1,115.1,0,0,1-11.92,7.56c-7.33,4.27-14.59,8.69-22.19,12.45-6,3-12.5,5.09-18.8,7.54-4.08,1.58-8.12,3.27-12.34,4.57-7,2.15-14,4.2-21.17,6a90.91,90.91,0,0,1-15.76,2.77,169,169,0,0,1-24.69.25c-7-.54-14.4-1.9-22.69-8.38C13.12,284.55,11.25,282.05,9.36,280Z"/><path class="cls-14" d="M72.94,165.64c9,10.24,18.06,20.43,25.21,33.73,1.37,2.56,3,5.56,1.82,6.78-.84.88-3,.61-4.48-.54a192.21,192.21,0,0,1-15.12-12.52c-6.32-5.85-12.54-12.34-18.82-18.48-1.24-1.21-1.77-1.91-.69-2.45Q66.91,168.91,72.94,165.64Z"/><path class="cls-14" d="M39.73,187.48c5.05,6.31,10.19,12.46,15.12,19A119,119,0,0,1,63,218.92c1.1,1.92,2.14,5.23,1.81,6.43s-2.43,1.22-3.79.28a144.51,144.51,0,0,1-14.23-11c-5.76-5.16-11.41-11.08-17.11-16.67,2.66-2.92,5.32-5.85,8-8.73A22,22,0,0,1,39.73,187.48Z"/><path class="cls-14" d="M115.57,154.7a139.3,139.3,0,0,1,18,25.18c.94,1.63,2,4.7,1.64,5.4a2.5,2.5,0,0,1-3.49.74,74.41,74.41,0,0,1-10.62-7.79c-6.24-5.55-12.43-11.55-18.61-17.53-.78-.77-2.78-1.45-2.25-3.7Z"/><path class="cls-15" d="M24.3,229.51c-.23,2.72.14,5.38-.66,5.75s-3.13-1.23-4.13-2.73c-1.59-2.38-1.6-4.94,0-5.25C20.44,227.09,22.08,228.43,24.3,229.51Z"/><path class="cls-16" d="M30.09,214.82c-.42,2.57-.27,4.91-1.12,5.54-.49.36-3.39-2.07-3.8-3.21-.69-1.91-.76-4.5-.11-5.43C25.44,211.17,27.74,213.3,30.09,214.82Z"/><path class="cls-16" d="M134.05,165.58c-1.31-1.24-3-2.23-3.86-3.78-1.28-2.15-1.63-4.43-.08-5,1.31-.48,3-.3,4.12,2.55.77,1.89.55,3.9.77,5.86Z"/><path class="cls-17" d="M91.59,168.29c-.34,2.61-.06,5.16-.89,5.47s-3.4-1.49-4-2.75c-.75-1.59-.85-4.5-.16-5.1S89.23,167.09,91.59,168.29Z"/><path class="cls-16" d="M107.58,177.52c-.21,1.55.07,4.15-.75,4.38s-3.39-1.53-4.07-2.88-.73-4.3-.06-5,2.57,1.05,3.93,1.7Z"/><path class="cls-18" d="M105.47,189.41c1.37,1.42,3.31,2.74,4,4.28.74,1.75.34,3.69.44,5.55-1.46-1.08-3.49-1.89-4.23-3.32-.91-1.75-.75-4-1-6.06Z"/><path class="cls-19" d="M41.4,225.39c1.28,1.21,2.84,2.15,3.79,3.67,1.61,2.57,1.6,5,.09,5.27-.91.15-3.29-1.41-3.89-2.62-.86-1.75-.69-3.88-1-5.85Z"/><path class="cls-20" d="M71.45,211.2c2.37,2.2,4.39,3.39,5.07,4.89s.64,4.22,0,5c-1,1.13-3-.39-4.08-3C71.67,216.31,71.85,214.36,71.45,211.2Z"/><path class="cls-16" d="M149.43,178.2c-.19,2.77.2,5.29-.55,5.86-1,.75-3.17.29-4.35-2.85-.64-1.71-.49-4.19.2-4.94C145.28,175.68,147.21,177.21,149.43,178.2Z"/><path class="cls-17" d="M73.37,203.16c-2.22-1.62-3.68-2.21-4.73-3.57-1.54-2-2-6.28-.75-6.07a7.5,7.5,0,0,1,4.25,3C73,197.87,72.88,200.2,73.37,203.16Z"/><path class="cls-20" d="M50.69,190c.19-1.55,0-3.79.68-4.5,1-1,3,.29,4,3,.65,1.83.83,4.46.18,5.17s-2.58-1.18-4-1.9Z"/><path class="cls-21" d="M152.69,163.23c-.29,2.66-.05,4.86-.74,5.68-1.16,1.37-3.19-1-4-3.22-.66-1.74-.64-4.18,0-5C148.32,160.12,150.36,161.9,152.69,163.23Z"/></g></g></g></g></svg>