<svg xmlns="http://www.w3.org/2000/svg" viewBox="0 0 199.78 199.78"><defs><style>.cls-1{fill:#2fa837;}.cls-2{fill:#fff;}</style></defs><g id="Capa_2" data-name="Capa 2"><g id="M1Whatasapp"><g id="M1WhatsappInv"><path class="cls-1" d="M0,175.36V24.16c.45-2.84.29-5.8,1.57-8.49C4.89,8.7,10,3.61,17.3,1,19.36.21,21.63.4,23.77,0h151.6c2.79.46,5.69.28,8.36,1.49a27.15,27.15,0,0,1,15.15,16.6,22.84,22.84,0,0,1,.83,7.32c0,49.55-.06,99.1.07,148.65,0,12.28-8.56,21.44-18,24.72a24.48,24.48,0,0,1-8.08.91c-49.3,0-98.59-.07-147.89.09a26.35,26.35,0,0,1-24.64-17C.23,180.41.41,177.84,0,175.36Z"/><path class="cls-2" d="M161.59,98.51a61.74,61.74,0,0,1-6,27.26,5,5,0,0,0-.39,3.36q3,14.53,6.06,29.07c.63,3.06-.63,4.28-3.72,3.55-9.57-2.24-19.15-4.48-28.7-6.79a4.26,4.26,0,0,0-3,.31C90,171.6,49.09,151.84,39.67,113.6,31.26,79.45,53.82,44.78,88.52,38.53a61.8,61.8,0,0,1,73.07,60Z"/><path class="cls-1" d="M144.46,144.87c-5.51-1.29-11.05-2.5-16.54-3.91a5.67,5.67,0,0,0-4.42.52,49.67,49.67,0,0,1-25.56,6.18c-23.37-.75-43.29-18.84-46.15-41.95-3-24.59,11.58-46.56,35.48-53.27,26.74-7.52,55.11,10.34,60.07,37.78,1.93,10.68.79,21-4.32,30.57a13.46,13.46,0,0,0-1,10.51c1,3.94,1.72,8,2.53,12A2,2,0,0,1,144.46,144.87Z"/><path class="cls-2" d="M83.43,129.31c-7.87.39-12.68-4.13-16.33-10.31a4.33,4.33,0,0,1,2.63-6.29c4.07-1.27,8.19-2.38,12.3-3.49a4.19,4.19,0,0,1,4.11,1.21c.89.85,1.74,1.74,2.62,2.61,1.87,1.83,3.63,2.15,6,.95,4.31-2.2,8-5.34,11.51-8.56a51.35,51.35,0,0,0,7.31-7.79c2.07-2.87,2.05-4.39-.06-7.17-.32-.41-.61-.85-1-1.23-2.18-2.27-2.28-4.65-.83-7.43s2.7-6,4-9c1.63-3.68,4.75-4.4,7.79-1.77,7.88,6.82,10,13.78,4.15,26.19-3.09,6.61-8,11.92-13.32,16.83-6.17,5.7-12.82,10.7-20.89,13.49A32.08,32.08,0,0,1,83.43,129.31Z"/></g></g></g></svg>