<svg xmlns="http://www.w3.org/2000/svg" viewBox="0 0 217.14 267.45"><defs><style>.cls-1{fill:#fee070;}.cls-2{fill:#fe992d;}.cls-3{fill:#fed1ee;}.cls-4{fill:#fe71be;}.cls-5{fill:#866954;}.cls-6{fill:#feb8ee;}.cls-7{fill:#f65c9a;}.cls-8{fill:#705245;}.cls-9{fill:#e45045;}.cls-10{fill:#c33730;}.cls-11{font-size:36px;fill:#815565;font-family:BerlinSansFBDemi-Bold, Berlin Sans FB Demi;font-weight:700;}</style></defs><g id="Capa_2" data-name="Capa 2"><g id="Modelo-2-Logo-LaMeriendita"><g id="Muestra1CupCake"><g id="M1_Cup_Cake" data-name="M1 Cup Cake"><path class="cls-1" d="M194.26,145.92c.17,1.18.34,2.36.43,3l5.86-.38a26.8,26.8,0,0,1,.3,5.41c-1.54,10.65-3.22,21.27-4.88,31.9q-3,19.41-6.07,38.81c-1.43,9.17-2.74,18.36-4.31,27.51A18.48,18.48,0,0,1,170.94,267a3.22,3.22,0,0,0-.88.46h-9.4c-1.34-2.36-.28-4.8-.07-7.14,1.28-14.54,2.66-29.08,4-43.62,1.3-13.68,2.51-27.36,3.91-41a13.08,13.08,0,0,0,.05-3.9,3,3,0,0,0-5.92-.44,11.7,11.7,0,0,0-.54,2.55c-1,12-2.25,24.06-3.34,36.1q-1.32,14.67-2.75,29.34c-.8,8.4-1.54,16.8-2.4,25.18-.1,1,0,2.11-.81,3H133c-1.42-2.16-1-4.62-.7-6.85.65-5.2.54-10.42.77-15.62q.63-14.56,1.29-29.15c.6-12.92,1-25.86,1.92-38.76a23.4,23.4,0,0,0,0-4.95,3,3,0,0,0-2.84-2.9c-1.76-.16-2.73.84-3.17,2.46a12.49,12.49,0,0,0-.52,3.08c-.06,9.48-.75,18.92-1.17,28.38s-.7,18.74-1.4,28.1c-.31,4.15-.37,8.33-.5,12.49-.17,5.9-.85,11.79-.69,17.71,0,2.06,0,4.19-1.3,6H104.78c-1.17-1.44-.83-3.15-.83-4.77q0-43.56,0-87.12a20.35,20.35,0,0,0-.17-3.9,2.94,2.94,0,0,0-5.8,0,20.35,20.35,0,0,0-.17,3.9q0,43.56,0,87.12c0,1.62.34,3.33-.83,4.77H77.1c-1.36-2.75-1.19-5.77-1.28-8.67-.37-13.46-1.26-26.91-1.73-40.37-.38-11.12-1.1-22.22-1.53-33.34-.15-3.81-.49-7.63-.5-11.46a6.37,6.37,0,0,0-.51-2.54,2.87,2.87,0,0,0-2.82-1.92,3,3,0,0,0-2.85,1.91,8.1,8.1,0,0,0-.4,4.11c.5,6.59.61,13.2,1,19.79.55,9.37.66,18.76,1.4,28.12.32,3.9.31,7.81.46,11.72.39,9.64,1.14,19.26,1.22,28.91,0,1.29.14,2.64-.81,3.74H49.42a3.5,3.5,0,0,1-1.24-2.5c-.86-9.42-1.77-18.85-2.63-28.28-.94-10.2-1.91-20.41-2.85-30.61q-1.46-15.7-2.93-31.4a35,35,0,0,0-.68-4.9,3,3,0,0,0-3.33-2.67c-2,.12-2.72,1.48-2.71,3.21,0,5.13.77,10.21,1.22,15.32,1.08,12.37,2.29,24.74,3.45,37.1,1,10.12,1.86,20.24,2.87,30.36.39,3.89.67,7.79,1.14,11.67a3.27,3.27,0,0,1-.67,2.7H31.14c-2.68-1.36-5.55-2.44-8-4.14-5.27-3.67-6.77-9.35-7.66-15.36-2.11-14.15-4.4-28.28-6.6-42.42q-3.54-22.75-7-45.52c-.4-2.57-.94-5.13-1.16-7.72-.1-1.25,0-3.08.75-3.68s2.49-.12,3.76.14a9.62,9.62,0,0,1,2.31,1.16c1.83.53,3.07,1.92,4.41,3.13,5,4.43,11.33,4.52,16.28.1a49.57,49.57,0,0,1,5-4.15,12.83,12.83,0,0,1,14.46.1c1.87,1.3,3.38,3,5.16,4.39,5.14,4,10.71,3.9,15.66-.34,1.06-.9,2.17-1.74,3.2-2.68,5.39-4.88,12.48-4.91,18-.09.91.81,1.74,1.7,2.69,2.46,6.31,5,12.15,4.76,18-.8a17.53,17.53,0,0,1,6.86-4.58,12.47,12.47,0,0,1,12.41,2.62c1.14.94,2.31,1.84,3.41,2.83,5.14,4.69,11.74,4.63,16.86-.2,2.48-2.35,5-4.57,8.41-5.49a10.68,10.68,0,0,1,6.16,0,14.89,14.89,0,0,1,7.67,4.66c6.49,6.68,13.86,5.7,20.19-.81a4.29,4.29,0,0,0,1.15-2.82C193.48,147.38,193.26,146.41,194.26,145.92Z"/><path class="cls-2" d="M41.06,267.45q-1-10.47-2-20.94c-.57-6.12-1.09-12.25-1.67-18.37-.82-8.7-1.7-17.4-2.51-26.1-.59-6.38-1.12-12.77-1.67-19.16-.36-4.14-.81-8.27-1-12.42-.16-2.91,1.1-4.25,3.61-4.37s4,1.36,4.24,4.17q1.83,19.78,3.67,39.57,1.56,16.68,3.13,33.36,1,11,2.09,22a23.32,23.32,0,0,0,.48,2.29Z"/><path class="cls-2" d="M152.82,267.45c.64-7.42,1.26-14.84,1.92-22.25.55-6.21,1.14-12.42,1.73-18.63.83-8.87,1.69-17.75,2.52-26.62.58-6.21,1.09-12.43,1.67-18.63.3-3.19.59-6.38,1-9.55.38-2.75,1.8-3.82,4.42-3.59,2.23.2,3.56,1.71,3.41,4.36-.28,4.67-.71,9.33-1.15,14-.62,6.55-1.31,13.09-2,19.63q-1.28,12.93-2.51,25.85-.85,8.93-1.65,17.85t-1.59,17.59Z"/><path class="cls-2" d="M68.74,267.45q-.75-17.56-1.51-35.12c-.17-4.07-.39-8.15-.53-12.22-.23-6.34-.32-12.69-.63-19-.4-8.57-1-17.14-1.44-25.72a18.28,18.28,0,0,1,0-3.39c.27-2,1.23-3.59,3.56-3.81s3.86.73,4.41,3.07a9.72,9.72,0,0,1,.29,1.78c.38,9.9.71,19.79,1.13,29.68.49,11.71,1,23.41,1.57,35.12q.49,10.92,1,21.84c.13,2.6.33,5.19.49,7.79Z"/><path class="cls-2" d="M124.62,267.45q.81-18.07,1.62-36.14c.33-7.28.69-14.56,1-21.84.54-11.7,1-23.4,1.6-35.1,0-.94.31-1.88.43-2.82.3-2.44,1.76-3.45,4.11-3.38a3.69,3.69,0,0,1,3.72,3.85c-.22,6.24-.59,12.47-.9,18.71-.2,4-.43,8-.58,12-.23,6.08-.36,12.16-.61,18.23q-.75,18.19-1.59,36.4c-.15,3.38-.31,6.76-.46,10.14Z"/><path class="cls-2" d="M96.94,267.45q0-47.26,0-94.53c0-3.47,1.18-4.81,4.07-4.75,2.71.06,3.8,1.39,3.8,4.75q0,47.27,0,94.53Z"/><path class="cls-3" d="M17.08,118.08a21.82,21.82,0,0,1,5.76-14.39A38.37,38.37,0,0,1,36,93.65a8.58,8.58,0,0,0,2-1.78c10-4.26,20.57-5.74,31.09-7.66,11.3-1.94,22.48-4.29,33.14-8.68,10.34-4.26,19.21-10.68,27.47-18.07.86-.77,1.54-2,3-1.57,3.75,4,5.17,9,5.91,14.2,1.3,9.12-.43,17.36-7.86,23.6a43.35,43.35,0,0,1-11.39,6.79,123.41,123.41,0,0,1-27.68,7.32c-13.14,2.14-26.38,3.31-39.64,4.31-9.61.73-19.25,1.37-28.58,4.17C21.38,116.92,19.47,118.39,17.08,118.08Z"/><path class="cls-4" d="M69.33,84.74C63.68,85.9,58,86.94,52.4,88.26c-4,.95-8,2.31-11.95,3.42a13,13,0,0,1-2.44.19c-3.15-4.81-5.26-10-5.25-15.83,0-7.49,3.25-13.7,7.82-19.41,7.08-8.84,16.82-12.42,27.52-14.3q11.27-2,22.45-4.3c1.55-.33,2.91-1.54,4.35-2.34a66.87,66.87,0,0,0,6-3.33,31.72,31.72,0,0,0,9.29-10.6c.54-1,.93-2.07,2.08-2.55,1.86.6,1.9,2.38,2.27,3.8a36.47,36.47,0,0,1,.29,15.25c-2.12,12.4-7,23.37-16.43,32.08a36.45,36.45,0,0,1-10.57,7C81.73,79.94,75.63,82.58,69.33,84.74Z"/><path class="cls-5" d="M164.33,147.74c-5-1-9,.65-12.54,4.1-2.37,2.33-4.82,4.46-8.33,5a12.27,12.27,0,0,1-10.79-3.22c-1-.89-2-1.73-2.94-2.59-5.48-4.86-12.19-4.8-17.59.2-2.74,2.54-5.37,5.14-9.4,5.68a12.15,12.15,0,0,1-9.3-2.37c-1.39-1-2.65-2.26-3.93-3.43-5.4-4.9-12.21-4.89-17.6,0-.83.76-1.71,1.48-2.56,2.22-5.72,5-12.45,5.37-17.7-.09-7.08-7.36-15-7.87-22.77.12-5.06,5.22-12.08,5-17.54.07-1.29-1.16-2.54-2.36-3.82-3.54-.3-6.27,1.42-11.63,7.72-14.07,2.62-1,5.72-.82,8.6-1.17a3.47,3.47,0,0,1,2.44-.63c.69,0,1.39-.1,2.08-.1q59.18,0,118.35,0c2.36.29,4.75-.19,7.11.23,5.77,1.32,9.35,4.9,10.82,10.61C164.89,145.79,165.15,146.83,164.33,147.74Z"/><path class="cls-6" d="M25.92,134.66H23.84c-1.79-3.2-3.82-6.29-5.28-9.62-.93-2.13-1-4.63-1.48-7a58,58,0,0,1,19.7-5.2c9.09-1,18.23-1.59,27.31-2.66,11.9-1.4,23.83-2.71,35.62-4.79,10.76-1.89,21.33-4.84,30.12-11.91a21.38,21.38,0,0,0,8.41-16.31,35.24,35.24,0,0,0-5.83-21.43c-.47-.77,0-1.38.46-1.84,3-2.89,5.49-6.26,8.21-9.42.33-.37.67-.83,1.3-.61,6.41,2.93,12.37,6.55,16.18,12.65,6,9.59,8,19.67,2.8,30.36a3.2,3.2,0,0,0-.15.76c-1.2,3.36-4,5.3-6.59,7.45a32.9,32.9,0,0,1-5.5,3.42c-6,3.48-12.65,5.31-19.32,6.92-12.36,3-25,4.26-37.6,5.56s-25.34,1.35-37.78,4c-9.76,2.11-18.39,6.22-24.59,14.49C28.55,131.28,28,133.58,25.92,134.66Z"/><path class="cls-7" d="M142.38,43.91l-10,11.87C125,62.9,117,69.2,107.67,73.78,96.83,79.13,85.25,82,73.44,84.13c-1.36.24-2.74.4-4.11.61,2.68-1.25,5.37-2.47,8-3.75,5.82-2.82,12-5.12,17.36-8.64C102.14,67.48,107,60.15,110.31,52c3.12-7.67,5.08-15.69,4.3-24-.27-2.9-1.57-5.7-2.4-8.54-.52-.75-.13-1.25.47-1.7,1.19-4.39,2.52-8.76,3.54-13.2C117.1.69,120-1,123.59.65c12.07,5.79,19.87,14.89,20.61,28.64C144.46,34.12,143,39,142.38,43.91Z"/><path class="cls-7" d="M149.21,97.79a36.12,36.12,0,0,0,12-10.11A33.34,33.34,0,0,1,182,121a16.46,16.46,0,0,1-8.32,13.66,2.47,2.47,0,0,1-2.3.93c-5.67-.06-11.37.6-17-.75l-7.31-.14c0-.86.65-1.18,1.19-1.56,6-4.26,7.6-10.33,6.83-17.19a32.84,32.84,0,0,0-5.33-15.33C149.24,99.8,148.41,98.93,149.21,97.79Z"/><path class="cls-8" d="M154.41,134.82l19.28-.18,7.54.07c7.18.1,11.87,4.14,13,11.21,1,5.45-3.31,7.44-6.77,9.59-4,2.48-8.33,2.13-12.34-.32-1.53-.94-2.71-2.44-4.21-3.46-2.13-1.44-4.4-2.67-6.61-4C164,141.13,160.5,137,154.41,134.82Z"/><path class="cls-9" d="M91.19,34.51C85.14,31.77,82,27,82,20.44S85.2,9.14,91.21,6.37C97.1,8.43,102.56,18.17,99,26,97.38,29.69,95.16,32.92,91.19,34.51Z"/><path class="cls-10" d="M91.19,34.51c2-2,4.33-3.81,5.85-6.14,5-7.57,2-16-4.71-21a13.52,13.52,0,0,1-1.12-1A15.35,15.35,0,0,1,112,15.48c.25.73.46,1.48.68,2.22l-.47,1.7A32.61,32.61,0,0,1,98.76,34.45a18.92,18.92,0,0,1-3.86,1.24Z"/><path class="cls-4" d="M149.21,97.79c1.75,3.84,3.77,7.58,5.21,11.53a25.53,25.53,0,0,1,.89,15.08c-1.15,4.65-4.15,7.91-8.21,10.28-.61,0-1.21.08-1.82.08H27.74c-.61,0-1.22-.07-1.82-.1C32.16,122.08,43.14,116.3,56.26,114c6.53-1.15,13.2-1.5,19.81-2.19,9.88-1,19.75-2.09,29.64-3.06a151.76,151.76,0,0,0,32.23-6.34C141.78,101.14,145.45,99.34,149.21,97.79Z"/></g></g><text id="Trazo1-LaMeriendita" class="cls-11" transform="translate(33.29 204.74) rotate(-18.27) scale(0.7 1)">L</text><text class="cls-11" transform="translate(45.87 200.52) rotate(-13.59) scale(0.7 1)">a</text><text class="cls-11" transform="matrix(0.69, -0.11, 0.16, 0.99, 59.83, 197.28)"> </text><text class="cls-11" transform="translate(65.28 195.87) rotate(-2.72) scale(0.7 1)">M</text><text class="cls-11" transform="matrix(0.69, 0.11, -0.15, 0.99, 84.68, 195.14)">e</text><text class="cls-11" transform="translate(96.05 196.91) rotate(19.31) scale(0.7 1)">r</text><text class="cls-11" transform="translate(104.17 199.78) rotate(28.54) scale(0.7 1)">i</text><text class="cls-11" transform="translate(109.48 202.22) rotate(40.35) scale(0.7 1)">e</text><text class="cls-11" transform="translate(118.56 210.11) rotate(44.79) scale(0.7 1)">n</text><text class="cls-11" transform="translate(128.5 220) rotate(46.99) scale(0.7 1)">d</text><text class="cls-11" transform="translate(138.51 230.79) rotate(47.8) scale(0.7 1)">i</text><text class="cls-11" transform="matrix(0.47, 0.52, -0.74, 0.67, 143.15, 235.92)">t</text><text class="cls-11" transform="matrix(0.49, 0.49, -0.71, 0.71, 149.92, 243.51)">a</text><text class="cls-11" transform="translate(162.38 255.5) rotate(35.98) scale(0.7 1)"> </text></g></g></svg>