<svg xmlns="http://www.w3.org/2000/svg" viewBox="0 0 200.26 267.45"><defs><style>.cls-1{fill:#fee070;}.cls-2{fill:#fe992d;}.cls-3{fill:#fed1ee;}.cls-4{fill:#fe71be;}.cls-5{fill:#866954;}.cls-6{fill:#feb8ee;}.cls-7{fill:#f65c9a;}.cls-8{fill:#705245;}.cls-9{fill:#e45045;}.cls-10{fill:#c33730;}</style></defs><g id="Capa_2" data-name="Capa 2"><g id="Modelo-2-Logo-LaMeriendita"><g id="Muestra1CupCake"><g id="M1_Cup_Cake" data-name="M1 Cup Cake"><path class="cls-1" d="M193.6,145.92c.16,1.18.33,2.36.42,3l5.87-.38c.11,1.81.55,3.66.29,5.41-1.54,10.65-3.22,21.27-4.88,31.9q-3,19.41-6.07,38.81c-1.43,9.17-2.73,18.36-4.31,27.51A18.48,18.48,0,0,1,170.27,267a3.37,3.37,0,0,0-.88.46H160c-1.34-2.36-.28-4.8-.07-7.14,1.28-14.54,2.66-29.08,4-43.62,1.29-13.68,2.5-27.36,3.9-41a12.75,12.75,0,0,0,0-3.9,3,3,0,0,0-5.92-.44,11.12,11.12,0,0,0-.53,2.55c-1,12-2.26,24.06-3.35,36.1q-1.32,14.67-2.75,29.34c-.8,8.4-1.54,16.8-2.4,25.18-.1,1,0,2.11-.81,3H132.31c-1.42-2.16-1-4.62-.7-6.85.66-5.2.54-10.42.77-15.62q.63-14.56,1.29-29.15c.6-12.92,1-25.86,1.92-38.76a22.75,22.75,0,0,0-.05-4.95,3,3,0,0,0-2.84-2.9c-1.76-.16-2.73.84-3.17,2.46a12.49,12.49,0,0,0-.52,3.08c-.06,9.48-.75,18.92-1.17,28.38s-.69,18.74-1.39,28.1c-.31,4.15-.38,8.33-.51,12.49-.17,5.9-.85,11.79-.69,17.71,0,2.06,0,4.19-1.3,6H104.11c-1.17-1.44-.83-3.15-.83-4.77q0-43.56,0-87.12a20.35,20.35,0,0,0-.18-3.9,2.94,2.94,0,0,0-5.8,0,21.19,21.19,0,0,0-.17,3.9q0,43.56,0,87.12c0,1.62.34,3.33-.82,4.77H76.43c-1.36-2.75-1.19-5.77-1.27-8.67-.38-13.46-1.27-26.91-1.73-40.37-.39-11.12-1.11-22.22-1.54-33.34-.15-3.81-.49-7.63-.5-11.46a6.37,6.37,0,0,0-.51-2.54,2.86,2.86,0,0,0-2.82-1.92,3,3,0,0,0-2.85,1.91,8.1,8.1,0,0,0-.4,4.11c.5,6.59.61,13.2,1,19.79.55,9.37.66,18.76,1.41,28.12.31,3.9.3,7.81.46,11.72.39,9.64,1.14,19.26,1.21,28.91,0,1.29.15,2.64-.81,3.74H48.75a3.5,3.5,0,0,1-1.24-2.5c-.85-9.42-1.76-18.85-2.63-28.28q-1.41-15.3-2.85-30.61-1.45-15.7-2.93-31.4a35,35,0,0,0-.68-4.9,3,3,0,0,0-3.33-2.67c-2,.12-2.71,1.48-2.71,3.21,0,5.13.77,10.21,1.22,15.32,1.08,12.37,2.29,24.74,3.45,37.1,1,10.12,1.86,20.24,2.87,30.36.39,3.89.67,7.79,1.14,11.67a3.29,3.29,0,0,1-.66,2.7H30.47c-2.67-1.36-5.55-2.44-8-4.14-5.27-3.67-6.76-9.35-7.66-15.36-2.11-14.15-4.4-28.28-6.6-42.42q-3.54-22.75-7-45.52c-.4-2.57-.94-5.13-1.15-7.72-.11-1.25,0-3.08.74-3.68s2.5-.12,3.76.14a9.5,9.5,0,0,1,2.32,1.16c1.83.53,3.06,1.92,4.41,3.13,4.95,4.43,11.32,4.52,16.27.1a49.57,49.57,0,0,1,5-4.15,12.85,12.85,0,0,1,14.47.1c1.87,1.3,3.37,3,5.16,4.39,5.13,4,10.7,3.9,15.66-.34,1.05-.9,2.16-1.74,3.2-2.68,5.38-4.88,12.48-4.91,18-.09.91.81,1.74,1.7,2.7,2.46,6.3,5,12.14,4.76,17.94-.8a17.57,17.57,0,0,1,6.87-4.58c4.65-1.47,8.74-.42,12.41,2.62,1.13.94,2.31,1.84,3.4,2.83,5.15,4.69,11.74,4.63,16.86-.2,2.48-2.35,5-4.57,8.41-5.49a10.68,10.68,0,0,1,6.16,0,14.85,14.85,0,0,1,7.67,4.66c6.5,6.68,13.87,5.7,20.19-.81a4.29,4.29,0,0,0,1.15-2.82C192.82,147.38,192.6,146.41,193.6,145.92Z"/><path class="cls-2" d="M40.4,267.45q-1-10.47-2-20.94c-.57-6.12-1.1-12.25-1.68-18.37-.82-8.7-1.69-17.4-2.5-26.1-.6-6.38-1.13-12.77-1.68-19.16-.36-4.14-.81-8.27-1-12.42-.16-2.91,1.1-4.25,3.62-4.37s4,1.36,4.23,4.17q1.83,19.78,3.67,39.57,1.56,16.68,3.13,33.36,1,11,2.09,22a23.32,23.32,0,0,0,.48,2.29Z"/><path class="cls-2" d="M152.15,267.45q1-11.13,1.92-22.25.84-9.31,1.73-18.63c.83-8.87,1.7-17.75,2.52-26.62.58-6.21,1.1-12.43,1.67-18.63.3-3.19.59-6.38,1-9.55.37-2.75,1.8-3.82,4.41-3.59,2.23.2,3.57,1.71,3.41,4.36-.28,4.67-.71,9.33-1.15,14-.62,6.55-1.31,13.09-1.95,19.63q-1.26,12.93-2.51,25.85-.84,8.93-1.65,17.85T160,267.45Z"/><path class="cls-2" d="M68.07,267.45l-1.5-35.12c-.18-4.07-.39-8.15-.54-12.22-.22-6.34-.32-12.69-.62-19-.41-8.57-1-17.14-1.45-25.72A18.28,18.28,0,0,1,64,172c.28-2,1.23-3.59,3.56-3.81s3.87.73,4.41,3.07a8.93,8.93,0,0,1,.29,1.78c.38,9.9.72,19.79,1.13,29.68.49,11.71,1,23.41,1.57,35.12q.5,10.92,1,21.84c.13,2.6.32,5.19.48,7.79Z"/><path class="cls-2" d="M124,267.45q.81-18.07,1.62-36.14c.33-7.28.69-14.56,1-21.84q.8-17.55,1.59-35.1c0-.94.31-1.88.43-2.82.3-2.44,1.77-3.45,4.11-3.38a3.69,3.69,0,0,1,3.72,3.85c-.21,6.24-.59,12.47-.9,18.71-.19,4-.43,8-.58,12-.23,6.08-.35,12.16-.61,18.23q-.75,18.19-1.59,36.4c-.14,3.38-.31,6.76-.46,10.14Z"/><path class="cls-2" d="M96.28,267.45q0-47.26,0-94.53c0-3.47,1.18-4.81,4.07-4.75,2.72.06,3.81,1.39,3.81,4.75l0,94.53Z"/><path class="cls-3" d="M16.41,118.08a21.78,21.78,0,0,1,5.77-14.39,38.34,38.34,0,0,1,13.15-10,8.82,8.82,0,0,0,2-1.78c9.94-4.26,20.57-5.74,31.08-7.66,11.3-1.94,22.48-4.29,33.14-8.68,10.34-4.26,19.22-10.68,27.47-18.07.86-.77,1.54-2,3-1.57,3.76,4,5.17,9,5.91,14.2,1.31,9.12-.43,17.36-7.86,23.6a43.35,43.35,0,0,1-11.39,6.79,123.41,123.41,0,0,1-27.68,7.32c-13.13,2.14-26.37,3.31-39.64,4.31-9.61.73-19.25,1.37-28.58,4.17C20.71,116.92,18.8,118.39,16.41,118.08Z"/><path class="cls-4" d="M68.67,84.74C63,85.9,57.34,86.94,51.73,88.26c-4,.95-8,2.31-11.95,3.42a13,13,0,0,1-2.43.19c-3.16-4.81-5.27-10-5.26-15.83,0-7.49,3.25-13.7,7.82-19.41C47,47.79,56.74,44.21,67.43,42.33q11.26-2,22.46-4.3c1.54-.33,2.9-1.54,4.34-2.34a65.53,65.53,0,0,0,6-3.33,31.86,31.86,0,0,0,9.3-10.6c.53-1,.92-2.07,2.07-2.55,1.86.6,1.91,2.38,2.27,3.8a36.47,36.47,0,0,1,.29,15.25c-2.12,12.4-7,23.37-16.42,32.08a36.5,36.5,0,0,1-10.58,7C81.06,79.94,75,82.58,68.67,84.74Z"/><path class="cls-5" d="M163.66,147.74c-5-1-9,.65-12.54,4.1-2.37,2.33-4.82,4.46-8.33,5A12.27,12.27,0,0,1,132,153.61c-1-.89-2-1.73-2.94-2.59-5.48-4.86-12.19-4.8-17.59.2-2.74,2.54-5.37,5.14-9.4,5.68a12.15,12.15,0,0,1-9.3-2.37c-1.39-1-2.64-2.26-3.93-3.43-5.4-4.9-12.21-4.89-17.6,0-.83.76-1.7,1.48-2.55,2.22-5.73,5-12.46,5.37-17.71-.09-7.08-7.36-15-7.87-22.76.12-5.07,5.22-12.08,5-17.54.07-1.3-1.16-2.55-2.36-3.82-3.54-.31-6.27,1.42-11.63,7.71-14.07,2.63-1,5.72-.82,8.6-1.17a3.49,3.49,0,0,1,2.44-.63c.7,0,1.39-.1,2.08-.1q59.18,0,118.35,0c2.36.29,4.75-.19,7.11.23,5.77,1.32,9.35,4.9,10.82,10.61C164.23,145.79,164.49,146.83,163.66,147.74Z"/><path class="cls-6" d="M25.25,134.66H23.17c-1.79-3.2-3.82-6.29-5.28-9.62-.93-2.13-1-4.63-1.48-7a58,58,0,0,1,19.7-5.2c9.09-1,18.23-1.59,27.31-2.66,11.9-1.4,23.83-2.71,35.62-4.79,10.76-1.89,21.33-4.84,30.12-11.91a21.38,21.38,0,0,0,8.41-16.31,35.18,35.18,0,0,0-5.83-21.43c-.47-.77,0-1.38.46-1.84,3-2.89,5.49-6.26,8.21-9.42.33-.37.67-.83,1.3-.61,6.41,2.93,12.37,6.55,16.18,12.65,6,9.59,8,19.67,2.8,30.36a3.2,3.2,0,0,0-.15.76c-1.2,3.36-4,5.3-6.58,7.45a33.4,33.4,0,0,1-5.51,3.42c-6,3.48-12.65,5.31-19.32,6.92-12.36,3-25,4.26-37.6,5.56s-25.33,1.35-37.77,4c-9.77,2.11-18.4,6.22-24.6,14.49C27.88,131.28,27.36,133.58,25.25,134.66Z"/><path class="cls-7" d="M141.71,43.91l-10,11.87c-7.43,7.12-15.45,13.42-24.74,18C96.16,79.13,84.58,82,72.77,84.13c-1.36.24-2.74.4-4.11.61,2.68-1.25,5.37-2.47,8-3.75,5.83-2.82,12-5.12,17.36-8.64,7.42-4.87,12.28-12.2,15.6-20.37,3.11-7.67,5.08-15.69,4.29-24-.27-2.9-1.57-5.7-2.4-8.54-.52-.75-.13-1.25.47-1.7,1.2-4.39,2.52-8.76,3.54-13.2C116.43.69,119.37-1,122.92.65,135,6.44,142.79,15.54,143.53,29.29,143.79,34.12,142.37,39,141.71,43.91Z"/><path class="cls-7" d="M148.54,97.79a36.12,36.12,0,0,0,12-10.11,33.34,33.34,0,0,1,20.8,33.3A16.46,16.46,0,0,1,173,134.64a2.46,2.46,0,0,1-2.3.93c-5.67-.06-11.37.6-17-.75l-7.31-.14c0-.86.65-1.18,1.2-1.56,6-4.26,7.59-10.33,6.82-17.19a32.94,32.94,0,0,0-5.32-15.33C148.57,99.8,147.74,98.93,148.54,97.79Z"/><path class="cls-8" d="M153.74,134.82l19.28-.18,7.54.07c7.18.1,11.87,4.14,13,11.21,1,5.45-3.32,7.44-6.77,9.59-4,2.48-8.34,2.13-12.34-.32-1.54-.94-2.72-2.44-4.22-3.46-2.13-1.44-4.4-2.67-6.61-4C163.36,141.13,159.83,137,153.74,134.82Z"/><path class="cls-9" d="M90.53,34.51c-6-2.74-9.24-7.56-9.24-14.07s3.24-11.3,9.25-14.07c5.9,2.06,11.35,11.8,7.83,19.63C96.71,29.69,94.49,32.92,90.53,34.51Z"/><path class="cls-10" d="M90.53,34.51c2-2,4.33-3.81,5.85-6.14,5-7.57,2-16-4.71-21a13.64,13.64,0,0,1-1.13-1,15.37,15.37,0,0,1,20.8,9.11c.25.73.45,1.48.67,2.22-.15.57-.31,1.13-.47,1.7A32.64,32.64,0,0,1,98.1,34.45a19,19,0,0,1-3.87,1.24Z"/><path class="cls-4" d="M148.54,97.79c1.76,3.84,3.77,7.58,5.21,11.53a25.45,25.45,0,0,1,.89,15.08c-1.15,4.65-4.15,7.91-8.21,10.28-.6,0-1.21.08-1.82.08H27.07c-.61,0-1.21-.07-1.82-.1C31.49,122.08,42.47,116.3,55.59,114c6.53-1.15,13.21-1.5,19.82-2.19,9.87-1,19.75-2.09,29.63-3.06a151.76,151.76,0,0,0,32.23-6.34C141.12,101.14,144.79,99.34,148.54,97.79Z"/></g></g></g></g></svg>