<svg xmlns="http://www.w3.org/2000/svg" viewBox="0 0 323.88 332.99"><defs><style>.cls-1{fill:#010102;}.cls-2{fill:#010101;}.cls-3{fill:#1d1d1b;}.cls-4{fill:#991a15;}.cls-5{fill:#5c8082;}.cls-6{fill:#b76917;}.cls-7{fill:#435f5d;}.cls-8{fill:#020101;}.cls-9{fill:#010303;}.cls-10{fill:#010202;}.cls-11{fill:#234949;}.cls-12{opacity:0.68;}.cls-13{fill:#f0e528;}.cls-14{fill:#312783;}.cls-15{fill:#e30613;}.cls-16{fill:#ffd740;}.cls-17{fill:#cae2c3;}.cls-18{fill:#050501;}.cls-19{fill:#040401;}.cls-20{fill:#050601;}</style></defs><g id="Capa_2" data-name="Capa 2"><g id="Composition"><g id="Cocina"><path class="cls-1" d="M241.83,26.52c2.19,1.69,2.41,2.64,1,5a4.85,4.85,0,0,0-.2,4.68c1,2.15,2.21,4.21,3.15,6.39a45.44,45.44,0,0,1,2.58,7.11c.84,3.49-.56,6.49-2.86,9.07A2.91,2.91,0,1,1,241.12,55c2-2.29,2-4.71.73-7.24-1.17-2.37-2.48-4.67-3.65-7-1.65-3.32-2.8-6.79-1.17-10.42a20.78,20.78,0,0,1,2.84-3.8Z"/><path class="cls-2" d="M221,26.52c2.24,1.52,2.54,2.67,1.2,5a4.81,4.81,0,0,0-.26,4.52c1,2.32,2.22,4.58,3.37,6.84,1.44,2.81,2.69,5.67,2.55,8.94a10.53,10.53,0,0,1-3.18,7.09,2.88,2.88,0,0,1-4.32-3.82c2.08-2.39,2-4.88.69-7.53-1.47-2.94-3.09-5.82-4.4-8.84-1.56-3.57-1.58-7.17.77-10.51a14.39,14.39,0,0,1,1.62-1.7Z"/><path class="cls-3" d="M259.37,144.41c10.21,0,20.42,0,30.63,0,8.91,0,17.82.17,26.74.3,4.62.06,7.1,2.11,7.14,5.79s-2.89,5.95-7.41,6c-2.58,0-5.17,0-7.91,0V321c2.84,0,5.62,0,8.4,0,4.42.1,6.82,2.1,6.92,5.68s-2.75,6-7,6.11q-8.31.15-16.63.15H32c-8.38,0-16.76-.07-25.13-.15-2.78,0-5.45-.9-6.22-3.74a7.58,7.58,0,0,1,.76-5.66c.92-1.31,3.2-2.08,5-2.3a77.38,77.38,0,0,1,9.16-.1V156.53c-2.86,0-5.56,0-8.26,0-4.53-.06-7.31-2.44-7.25-6.13s2.48-5.64,7.22-5.66q42.59-.18,85.17-.3,56-.08,112,0"/><path class="cls-2" d="M131.44,49.89c11.09,4.31,16.12,11.65,16.13,23.6,0,6.42,0,12.84,0,19.26,0,4.46-2.28,6.9-6.78,6.94q-15.33.15-30.67,0c-4.61,0-6.86-2.51-6.89-7.2q0-9.61,0-19.25c0-11.71,5.21-19.23,16.21-23.3v-38H64.1V49.75C80.27,57.07,85.87,76.21,76,90.37A22.09,22.09,0,0,1,36,78.25c-.05-3.69-.29-7.47.39-11,1.7-8.84,7.41-14.38,15.79-17.27V11.72H34.55c-4.35,0-8.7,0-13.06,0-3.28,0-5.5-1.88-5.86-4.82A5.75,5.75,0,0,1,20.3.15,14.2,14.2,0,0,1,23.22,0Q91.76,0,160.29,0a12.15,12.15,0,0,1,3.81.53,5.5,5.5,0,0,1,3.7,6.71,5.23,5.23,0,0,1-5.55,4.45H131.44Z"/><path class="cls-4" d="M162,321c-1.19.07-2.38.19-3.57.19H27.66V156.9a21.06,21.06,0,0,1,2.42-.28H161c.32,0,.65,0,1,.07,1.12,1.26,1,2.82,1,4.34q0,77.79,0,155.59C163,318.12,163.15,319.7,162,321Z"/><path class="cls-5" d="M162,321l0-164.26c1.09-.05,2.17-.14,3.26-.14H296.3V320.88c-.83.08-1.66.23-2.5.23H164.26C163.51,321.11,162.75,321,162,321Z"/><path class="cls-6" d="M135.81,87.82H115.1c0-6.11-.42-12.08.12-18,.52-5.55,5.43-8.89,11.19-8.58a10.18,10.18,0,0,1,9.35,9.62C136,76.41,135.81,82,135.81,87.82Z"/><path class="cls-7" d="M47.67,74c-.18-3.13.08-6.57,2.85-9.46a10,10,0,0,1,10.41-2.93,9.6,9.6,0,0,1,7.36,8.28,31.64,31.64,0,0,1-.27,10c-1,5-5.91,8.48-10.38,8-6.1-.68-9.77-4.51-10-10.43C47.64,76.44,47.67,75.46,47.67,74Z"/><path class="cls-8" d="M91.41,191.29c-6.52,0-13,0-19.57,0-3.44,0-5.57-1.77-5.91-4.76-.37-3.3,1.21-5.63,4.49-6.53a10,10,0,0,1,2.55-.36q18.77,0,37.52,0c4.12,0,6.72,2,7.07,5.24.41,3.69-1.86,6.37-5.6,6.4C105.11,191.33,98.26,191.29,91.41,191.29Z"/><path class="cls-2" d="M271.64,257.15q0,18.93,0,37.86c0,5.13-2.2,7.28-7.37,7.29h-64c-5,0-6.83-1.66-7.33-6.66a32.29,32.29,0,0,1-.12-3.26q0-35.42,0-70.83c0-1.3.11-2.61.19-3.91.19-3.48,2.18-5.3,5.5-5.79a20.35,20.35,0,0,1,2.92-.17h61.69c6.55,0,8.5,2,8.5,8.6Z"/><path class="cls-9" d="M265.05,191.29c-3.83,0-6.45-2.31-6.46-5.71s2.79-5.87,6.49-5.88a6.34,6.34,0,0,1,6.54,5.94C271.65,188.87,268.83,191.29,265.05,191.29Z"/><path class="cls-9" d="M231.33,191.29c-3.76,0-6.08-2.17-6.11-5.63s2.78-6.09,6.66-6c3.41.11,6.45,3.11,6.3,6.21S235.25,191.33,231.33,191.29Z"/><path class="cls-10" d="M199.34,191.29c-4,0-6.25-2.17-6.22-5.81,0-3.37,2.82-5.85,6.5-5.76s6.31,2.6,6.24,6S203.39,191.31,199.34,191.29Z"/><path class="cls-11" d="M259.68,290.41H205.2c-.08-1.16-.21-2.2-.21-3.24,0-20.13,0-40.25-.06-60.38,0-2.64.62-3.55,3.41-3.53,16.1.13,32.2.06,48.3.07.95,0,1.9.12,3,.2Z"/></g><g class="cls-12"><rect class="cls-13" x="207.62" y="225.34" width="49.37" height="11.3"/><rect class="cls-14" x="207.62" y="236.65" width="49.37" height="11.3"/><rect class="cls-15" x="207.62" y="247.95" width="49.37" height="11.3"/></g><g id="SoloBoll"><path class="cls-2" d="M194.79,71.41l-3.48-6.07Q185.39,55,179.45,44.67a2.4,2.4,0,0,1-.12-2.86,1.85,1.85,0,0,1,2.28-.77,4.23,4.23,0,0,1,1.84,1.64c3.36,5.76,6.65,11.56,10,17.35,2,3.45,4,6.88,5.9,10.36a1.77,1.77,0,0,0,1.81,1q40.43,0,80.85,0a9.8,9.8,0,0,1,1.71.16,1.84,1.84,0,0,1,1.58,1.92c-.06,7.85-.17,15.7-.27,23.55-3.56,22.35-15.57,38-37.33,44.87-16.74,5.31-32.48,2.06-46.42-8.68a52,52,0,0,1-19.78-32.44,68.08,68.08,0,0,1-.9-10.78c-.15-5.18,0-10.37,0-15.55,0-2.34.73-3,3.11-3.06Z"/><path class="cls-16" d="M280.8,92.53a43.43,43.43,0,0,1-3.24,16.06c-6.6,16.13-18.28,26.62-35.43,30.19-15,3.12-28.51-.72-40.15-10.65a47.25,47.25,0,0,1-16-27.57c-.59-3-.63-6.11-.92-9.17.61-.19,1,.25,1.44.52a27.66,27.66,0,0,0,12.18,4.4,31.78,31.78,0,0,0,8.71-.27c.51-.09,1-.35,1.54,0,1.77,3,3.53,6.09,5.29,9.11-3.33,3.4-4.72,7.38-2.95,11.77,1.62,4,3.54,8.09,6.86,11.09A10.86,10.86,0,0,0,235,115.1a72,72,0,0,0-4.47-7.77,10.81,10.81,0,0,0-11.64-4.52,1.22,1.22,0,0,1-1.07-.34c-1.48-2.5-2.89-5-4.31-7.57.14-.36.48-.42.79-.52,5-1.52,9.73-3.52,14.65-5.12a47.12,47.12,0,0,1,6.82-1.67,22.06,22.06,0,0,1,15.25,3,39.6,39.6,0,0,0,15.78,5.27c4.55.46,9,0,12.82-2.84A1.72,1.72,0,0,1,280.8,92.53Z"/><path class="cls-17" d="M280.8,92.53c-4.29,3.54-9.28,4.27-14.6,3.61C260,95.37,254.43,93,249.07,90a17.48,17.48,0,0,0-11.63-2.24,98.44,98.44,0,0,0-12,3.09c-4,1.22-8,2.69-12,4.06q-3.79-6.54-7.57-13.07c-1.12-1.93-2.23-3.88-3.4-5.94h78.3Z"/><path class="cls-17" d="M208.93,96.06a28.9,28.9,0,0,1-22.73-3.94l-1.14-.73V75.84h2.77c2.88,0,5.75,0,8.63,0a1.65,1.65,0,0,1,1.25.63C201.48,83,205.2,89.54,208.93,96.06Z"/><path class="cls-5" d="M224.4,126.16a5.89,5.89,0,0,1-4.69-2.94c-1.4-2.27-2.75-4.57-4-6.93a6.46,6.46,0,0,1,11.09-6.56c1.48,2.31,2.89,4.69,4.14,7.13C233.12,121.1,229.87,126.17,224.4,126.16Z"/><path class="cls-18" d="M246.55,128.67a2.24,2.24,0,1,1,0-4.46,2.31,2.31,0,0,1,2.42,2.26A2.28,2.28,0,0,1,246.55,128.67Z"/><path class="cls-19" d="M242.54,106.46a2.21,2.21,0,0,1-2.4-2.2,2.32,2.32,0,0,1,2.47-2.2,2.27,2.27,0,0,1,2.43,2.21C245.07,105.64,244.12,106.47,242.54,106.46Z"/><path class="cls-20" d="M260.18,111.44a2.26,2.26,0,1,1-2.37,2.25A2.21,2.21,0,0,1,260.18,111.44Z"/><path class="cls-19" d="M202.05,107.05a2.41,2.41,0,0,1-2.47,2.23,2.27,2.27,0,0,1-2.43-2.22,2.15,2.15,0,0,1,2.41-2.18A2.28,2.28,0,0,1,202.05,107.05Z"/></g></g></g></svg>