<svg xmlns="http://www.w3.org/2000/svg" viewBox="0 0 323.88 332.99"><defs><style>.cls-1{fill:#010102;}.cls-2{fill:#010101;}.cls-3{fill:#1d1d1b;}.cls-4{fill:#991a15;}.cls-5{fill:#5c8082;}.cls-6{fill:#b76917;}.cls-7{fill:#435f5d;}.cls-8{fill:#020101;}.cls-9{fill:#010303;}.cls-10{fill:#010202;}.cls-11{fill:#234949;}.cls-12{opacity:0.68;}.cls-13{fill:#f0e528;}.cls-14{fill:#312783;}.cls-15{fill:#e30613;}.cls-16{fill:#ffd740;}.cls-17{fill:#cae2c3;}.cls-18{fill:#050501;}.cls-19{fill:#040401;}.cls-20{fill:#050601;}.cls-21{fill:#fff;}</style></defs><g id="Capa_2" data-name="Capa 2"><g id="Composition"><g id="Cocina"><path class="cls-1" d="M241.83,26.52c2.19,1.69,2.41,2.64,1,5a4.85,4.85,0,0,0-.2,4.68c1,2.15,2.21,4.21,3.15,6.39a45.44,45.44,0,0,1,2.58,7.11c.84,3.49-.56,6.49-2.86,9.07A2.91,2.91,0,1,1,241.12,55c2-2.29,2-4.71.73-7.24-1.17-2.37-2.48-4.67-3.65-7-1.65-3.32-2.8-6.79-1.17-10.42a20.78,20.78,0,0,1,2.84-3.8Z"/><path class="cls-2" d="M221,26.52c2.24,1.52,2.54,2.67,1.2,5a4.81,4.81,0,0,0-.26,4.52c1,2.32,2.22,4.58,3.37,6.84,1.44,2.81,2.69,5.67,2.55,8.94a10.53,10.53,0,0,1-3.18,7.09,2.88,2.88,0,0,1-4.32-3.82c2.08-2.39,2-4.88.69-7.53-1.47-2.94-3.09-5.82-4.4-8.84-1.56-3.57-1.58-7.17.77-10.51a14.39,14.39,0,0,1,1.62-1.7Z"/><path class="cls-3" d="M259.37,144.41c10.21,0,20.42,0,30.63,0,8.91,0,17.82.17,26.74.3,4.62.06,7.1,2.11,7.14,5.79s-2.89,5.95-7.41,6c-2.58,0-5.17,0-7.91,0V321c2.84,0,5.62,0,8.4,0,4.42.1,6.82,2.1,6.92,5.68s-2.75,6-7,6.11q-8.31.15-16.63.15H32c-8.38,0-16.76-.07-25.13-.15-2.78,0-5.45-.9-6.22-3.74a7.58,7.58,0,0,1,.76-5.66c.92-1.31,3.2-2.08,5-2.3a77.38,77.38,0,0,1,9.16-.1V156.53c-2.86,0-5.56,0-8.26,0-4.53-.06-7.31-2.44-7.25-6.13s2.48-5.64,7.22-5.66q42.59-.18,85.17-.3,56-.08,112,0"/><path class="cls-2" d="M131.44,49.89c11.09,4.31,16.12,11.65,16.13,23.6,0,6.42,0,12.84,0,19.26,0,4.46-2.28,6.9-6.78,6.94q-15.33.15-30.67,0c-4.61,0-6.86-2.51-6.89-7.2q0-9.61,0-19.25c0-11.71,5.21-19.23,16.21-23.3v-38H64.1V49.75C80.27,57.07,85.87,76.21,76,90.37A22.09,22.09,0,0,1,36,78.25c-.05-3.69-.29-7.47.39-11,1.7-8.84,7.41-14.38,15.79-17.27V11.72H34.55c-4.35,0-8.7,0-13.06,0-3.28,0-5.5-1.88-5.86-4.82A5.75,5.75,0,0,1,20.3.15,14.2,14.2,0,0,1,23.22,0Q91.76,0,160.29,0a12.15,12.15,0,0,1,3.81.53,5.5,5.5,0,0,1,3.7,6.71,5.23,5.23,0,0,1-5.55,4.45H131.44Z"/><path class="cls-4" d="M162,321c-1.19.07-2.38.19-3.57.19H27.66V156.9a21.06,21.06,0,0,1,2.42-.28H161c.32,0,.65,0,1,.07,1.12,1.26,1,2.82,1,4.34q0,77.79,0,155.59C163,318.12,163.15,319.7,162,321Z"/><path class="cls-5" d="M162,321l0-164.26c1.09-.05,2.17-.14,3.26-.14H296.3V320.88c-.83.08-1.66.23-2.5.23H164.26C163.51,321.11,162.75,321,162,321Z"/><path class="cls-6" d="M135.81,87.82H115.1c0-6.11-.42-12.08.12-18,.52-5.55,5.43-8.89,11.19-8.58a10.18,10.18,0,0,1,9.35,9.62C136,76.41,135.81,82,135.81,87.82Z"/><path class="cls-7" d="M47.67,74c-.18-3.13.08-6.57,2.85-9.46a10,10,0,0,1,10.41-2.93,9.6,9.6,0,0,1,7.36,8.28,31.64,31.64,0,0,1-.27,10c-1,5-5.91,8.48-10.38,8-6.1-.68-9.77-4.51-10-10.43C47.64,76.44,47.67,75.46,47.67,74Z"/><path class="cls-8" d="M91.41,191.29c-6.52,0-13,0-19.57,0-3.44,0-5.57-1.77-5.91-4.76-.37-3.3,1.21-5.63,4.49-6.53a10,10,0,0,1,2.55-.36q18.77,0,37.52,0c4.12,0,6.72,2,7.07,5.24.41,3.69-1.86,6.37-5.6,6.4C105.11,191.33,98.26,191.29,91.41,191.29Z"/><path class="cls-2" d="M271.64,257.15q0,18.93,0,37.86c0,5.13-2.2,7.28-7.37,7.29h-64c-5,0-6.83-1.66-7.33-6.66a32.29,32.29,0,0,1-.12-3.26q0-35.42,0-70.83c0-1.3.11-2.61.19-3.91.19-3.48,2.18-5.3,5.5-5.79a20.35,20.35,0,0,1,2.92-.17h61.69c6.55,0,8.5,2,8.5,8.6Z"/><path class="cls-9" d="M265.05,191.29c-3.83,0-6.45-2.31-6.46-5.71s2.79-5.87,6.49-5.88a6.34,6.34,0,0,1,6.54,5.94C271.65,188.87,268.83,191.29,265.05,191.29Z"/><path class="cls-9" d="M231.33,191.29c-3.76,0-6.08-2.17-6.11-5.63s2.78-6.09,6.66-6c3.41.11,6.45,3.11,6.3,6.21S235.25,191.33,231.33,191.29Z"/><path class="cls-10" d="M199.34,191.29c-4,0-6.25-2.17-6.22-5.81,0-3.37,2.82-5.85,6.5-5.76s6.31,2.6,6.24,6S203.39,191.31,199.34,191.29Z"/><path class="cls-11" d="M259.68,290.41H205.2c-.08-1.16-.21-2.2-.21-3.24,0-20.13,0-40.25-.06-60.38,0-2.64.62-3.55,3.41-3.53,16.1.13,32.2.06,48.3.07.95,0,1.9.12,3,.2Z"/></g><g class="cls-12"><rect class="cls-13" x="207.62" y="225.34" width="49.37" height="11.3"/><rect class="cls-14" x="207.62" y="236.65" width="49.37" height="11.3"/><rect class="cls-15" x="207.62" y="247.95" width="49.37" height="11.3"/></g><g id="SoloBoll"><path class="cls-2" d="M194.79,71.41l-3.48-6.07Q185.39,55,179.45,44.67a2.4,2.4,0,0,1-.12-2.86,1.85,1.85,0,0,1,2.28-.77,4.23,4.23,0,0,1,1.84,1.64c3.36,5.76,6.65,11.56,10,17.35,2,3.45,4,6.88,5.9,10.36a1.77,1.77,0,0,0,1.81,1q40.43,0,80.85,0a9.8,9.8,0,0,1,1.71.16,1.84,1.84,0,0,1,1.58,1.92c-.06,7.85-.17,15.7-.27,23.55-3.56,22.35-15.57,38-37.33,44.87-16.74,5.31-32.48,2.06-46.42-8.68a52,52,0,0,1-19.78-32.44,68.08,68.08,0,0,1-.9-10.78c-.15-5.18,0-10.37,0-15.55,0-2.34.73-3,3.11-3.06Z"/><path class="cls-16" d="M280.8,92.53a43.43,43.43,0,0,1-3.24,16.06c-6.6,16.13-18.28,26.62-35.43,30.19-15,3.12-28.51-.72-40.15-10.65a47.25,47.25,0,0,1-16-27.57c-.59-3-.63-6.11-.92-9.17.61-.19,1,.25,1.44.52a27.66,27.66,0,0,0,12.18,4.4,31.78,31.78,0,0,0,8.71-.27c.51-.09,1-.35,1.54,0,1.77,3,3.53,6.09,5.29,9.11-3.33,3.4-4.72,7.38-2.95,11.77,1.62,4,3.54,8.09,6.86,11.09A10.86,10.86,0,0,0,235,115.1a72,72,0,0,0-4.47-7.77,10.81,10.81,0,0,0-11.64-4.52,1.22,1.22,0,0,1-1.07-.34c-1.48-2.5-2.89-5-4.31-7.57.14-.36.48-.42.79-.52,5-1.52,9.73-3.52,14.65-5.12a47.12,47.12,0,0,1,6.82-1.67,22.06,22.06,0,0,1,15.25,3,39.6,39.6,0,0,0,15.78,5.27c4.55.46,9,0,12.82-2.84A1.72,1.72,0,0,1,280.8,92.53Z"/><path class="cls-17" d="M280.8,92.53c-4.29,3.54-9.28,4.27-14.6,3.61C260,95.37,254.43,93,249.07,90a17.48,17.48,0,0,0-11.63-2.24,98.44,98.44,0,0,0-12,3.09c-4,1.22-8,2.69-12,4.06q-3.79-6.54-7.57-13.07c-1.12-1.93-2.23-3.88-3.4-5.94h78.3Z"/><path class="cls-17" d="M208.93,96.06a28.9,28.9,0,0,1-22.73-3.94l-1.14-.73V75.84h2.77c2.88,0,5.75,0,8.63,0a1.65,1.65,0,0,1,1.25.63C201.48,83,205.2,89.54,208.93,96.06Z"/><path class="cls-5" d="M224.4,126.16a5.89,5.89,0,0,1-4.69-2.94c-1.4-2.27-2.75-4.57-4-6.93a6.46,6.46,0,0,1,11.09-6.56c1.48,2.31,2.89,4.69,4.14,7.13C233.12,121.1,229.87,126.17,224.4,126.16Z"/><path class="cls-18" d="M246.55,128.67a2.24,2.24,0,1,1,0-4.46,2.31,2.31,0,0,1,2.42,2.26A2.28,2.28,0,0,1,246.55,128.67Z"/><path class="cls-19" d="M242.54,106.46a2.21,2.21,0,0,1-2.4-2.2,2.32,2.32,0,0,1,2.47-2.2,2.27,2.27,0,0,1,2.43,2.21C245.07,105.64,244.12,106.47,242.54,106.46Z"/><path class="cls-20" d="M260.18,111.44a2.26,2.26,0,1,1-2.37,2.25A2.21,2.21,0,0,1,260.18,111.44Z"/><path class="cls-19" d="M202.05,107.05a2.41,2.41,0,0,1-2.47,2.23,2.27,2.27,0,0,1-2.43-2.22,2.15,2.15,0,0,1,2.41-2.18A2.28,2.28,0,0,1,202.05,107.05Z"/></g><g id="LaMeriendita"><path id="L" class="cls-21" d="M47.68,315c-1.17,0-2.7,0-4.57-.12l-4.58-.15-6.1-.12a23.6,23.6,0,0,1-2.63-.12c-.4-.1-.6-.41-.6-.92q0-3.25.08-9.74c0-4.32.07-7.57.07-9.73s-.05-5.76-.15-10.36-.14-8.06-.14-10.36c0-.44.21-.66.61-.66s1,0,1.83.09,1.41.09,1.81.09,1.11,0,2-.1,1.55-.11,2-.11c.2,0,.3.19.28.57l0,.39q-.24,5.59-.55,16.84l0,7.87c0,2.55,0,4.4,0,5.58,0,.23,0,.47,0,.71a.45.45,0,0,0,.31.45h.53c1.23,0,3.06-.1,5.5-.28s4.28-.29,5.5-.29c.37,0,.55.23.55.69a65.28,65.28,0,0,1-.51,8.79c-.06.52-.21.83-.42.93A2.94,2.94,0,0,1,47.68,315Z"/><path id="A1_Mod" data-name="A1 Mod" class="cls-21" d="M73.5,298.93q0,2.37.19,7.05c.12,3.12,1.18,6.47,1.18,8,0,.82-1.41,1.39-1.9,1.45-1.75.19-3.57-.87-5.82-.87-.26,0-.44-.59-.53-1.77s-.2-1.77-.33-1.8a2.5,2.5,0,0,0-.44.53c-1.58,2.32-3.26,3.48-5.06,3.48q-4.11,0-6.81-4.74a20.92,20.92,0,0,1-2.55-10.59q0-7.11,2.64-11.45a8.39,8.39,0,0,1,7.5-4.49c2.2,0,3.95,1.12,5.23,3.38,0,.1.1.16.14.16s.27-.5.43-1.5.36-1.49.58-1.49c.52,0,1.83-1,3.29-.55s2.7.05,3.31.33a15.73,15.73,0,0,1,.61,3.17c0,.08-1-.47-1-.12A98.16,98.16,0,0,0,73.5,298.93Zm-6.79.18a7.63,7.63,0,0,0-1.13-4.32,3.38,3.38,0,0,0-5.87,0,7.79,7.79,0,0,0-1.11,4.34,7.54,7.54,0,0,0,1.18,4.28,3.27,3.27,0,0,0,5.79.08A7.7,7.7,0,0,0,66.71,299.11Z"/><path id="A2_Mod" data-name="A2 Mod" class="cls-21" d="M294.63,298.93c0,1.58.07,3.93.19,7.05s1.18,6.47,1.18,8c0,.82-1.41,1.39-1.9,1.45-1.74.19-3.56-.87-5.81-.87q-.41,0-.54-1.77c-.09-1.17-.2-1.77-.32-1.8a2.47,2.47,0,0,0-.45.53q-2.36,3.48-5.05,3.48-4.11,0-6.81-4.74a20.92,20.92,0,0,1-2.55-10.59q0-7.11,2.63-11.45a8.42,8.42,0,0,1,7.51-4.49c2.2,0,3.94,1.12,5.22,3.38.06.1.11.16.15.16s.27-.5.43-1.5.36-1.49.58-1.49c.52,0,1.82-1,3.29-.55s2.7.05,3.3.33a15.74,15.74,0,0,1,.62,3.17c0,.08-.95-.47-1-.12A98.1,98.1,0,0,0,294.63,298.93Zm-6.78.18a7.71,7.71,0,0,0-1.13-4.32,3.38,3.38,0,0,0-5.87,0,7.79,7.79,0,0,0-1.11,4.34,7.54,7.54,0,0,0,1.18,4.28,3.27,3.27,0,0,0,5.79.08A7.7,7.7,0,0,0,287.85,299.11Z"/><path id="M" class="cls-21" d="M120.05,313.73c0,.64-.21,1-.61,1H112c-.41,0-.62-.36-.62-1.08,0-2.07.06-5.18.16-9.32s.16-7.26.16-9.33c0-.59-.06-.91-.19-.95-.15.12-1.1,3.29-2.82,9.51q-1.52,5.48-3,10.92c-.14.47-.31.75-.52.83a6,6,0,0,1-.85,0c-.73,0-1.16-.2-1.3-.61q-1.14-3.39-3-9.85Q98,298,97,295a1.08,1.08,0,0,0-.19-.34,2,2,0,0,0-.14.89c0,2,0,5,.1,9.05s.11,7,.11,9.05c0,.72-.2,1.08-.59,1.08h-7c-.28,0-.46-.07-.52-.2a1.86,1.86,0,0,1-.09-.69q0-3.36.22-10.08t.22-10.08q0-3.57-.21-13.39c0-1.7-.08-4.24-.19-7.6l0-.53c0-.41.28-.61.88-.61.78,0,1.93,0,3.48-.11s2.7-.11,3.48-.11c.15,0,.37.43.65,1.3l6.15,19.72c.44,1.34.8,2,1.1,2s.48-.76,1-2.3q2.13-6.47,6.3-19.49.36-1.2.78-1.2c.41,0,1,0,1.84.1s1.45.09,1.87.09a11.62,11.62,0,0,0,1.61-.16,13,13,0,0,1,1.61-.15c.42,0,.64.25.64.74q0,3.63-.18,10.85t-.18,10.85c0,2.23.06,5.59.19,10.06S120.05,311.52,120.05,313.73Z"/><path id="E2_Mod" data-name="E2 Mod" class="cls-21" d="M143.12,297.61c0,2.07-.46,3.25-1.37,3.54-.15,0-1.61.26-4.36.67q-2.49.4-7.42,1a4.31,4.31,0,0,0,1.79,3,4.68,4.68,0,0,0,2.78.87,6.21,6.21,0,0,0,3.78-1.48l1.6-1.48a9.91,9.91,0,0,1,1.48,3.14c1.26,3.42,1.5,2.37,2.38,4.67a4.73,4.73,0,0,1,.33,3c-1.71,2.69-6.36.71-10,.71a9.53,9.53,0,0,1-8.09-4.28q-3.17-4.33-3.16-11.6,0-7.08,2.82-11.6,2.91-4.68,7.72-4.68c2.69,0,5,1.43,6.87,4.31A18.29,18.29,0,0,1,143.12,297.61Zm-7.37-1.88a6.1,6.1,0,0,0-.93-3.36,2.65,2.65,0,0,0-2.21-1.44,2.53,2.53,0,0,0-2.2,1.63,7.46,7.46,0,0,0-.8,3.54c0,.55.2.83.59.83a26,26,0,0,0,4.85-.71C135.51,296.12,135.75,296,135.75,295.73Z"/><path id="E1_Mod" data-name="E1 Mod" class="cls-21" d="M193,297.25c0,2.08-.45,3.26-1.37,3.54-.15,0-1.61.27-4.36.68q-2.49.4-7.42,1a4.33,4.33,0,0,0,1.79,3,4.71,4.71,0,0,0,2.79.86,6.17,6.17,0,0,0,3.77-1.47l1.6-1.48a9.78,9.78,0,0,1,1.48,3.14c1.26,3.42,1.5,2.37,2.38,4.67a4.73,4.73,0,0,1,.33,3c-1.71,2.69-6.35.71-10,.71a9.53,9.53,0,0,1-8.1-4.28q-3.15-4.33-3.16-11.6,0-7.08,2.83-11.6c1.93-3.12,4.51-4.68,7.71-4.68,2.7,0,5,1.43,6.87,4.31A18.26,18.26,0,0,1,193,297.25Zm-7.37-1.87a6.1,6.1,0,0,0-.93-3.36,2.65,2.65,0,0,0-2.21-1.44,2.51,2.51,0,0,0-2.19,1.63,7.34,7.34,0,0,0-.81,3.54c0,.55.2.83.59.83a26,26,0,0,0,4.85-.71C185.43,295.77,185.67,295.6,185.67,295.38Z"/><path id="R" class="cls-21" d="M159.41,295.14c0,.8-.3,1.2-.91,1.2-.26,0-.65,0-1.17-.07s-.89-.08-1.14-.08a2.94,2.94,0,0,0-2.39.8,5.65,5.65,0,0,0-.63,3.23q0,1.32,0,4c0,1.79,0,3.13,0,4,0,.6,0,1.49.08,2.67s.08,2.05.08,2.63a.74.74,0,0,1-.69.83,29,29,0,0,1-3.1.12,22.58,22.58,0,0,1-3.2-.18c-.47-.08-.7-.42-.7-1q0-2.46,0-7.37c0-3.27,0-5.73,0-7.37a64.9,64.9,0,0,0-.9-11.91,3,3,0,0,1,0-.46.62.62,0,0,1,.31-.62c.78-.12,1.91-.35,3.4-.68,2.22-.63,3.36-.95,3.43-.95.25,0,.41.65.48,1.94s.2,1.94.38,1.94c-.19,0,.38-.54,1.73-1.62a6.37,6.37,0,0,1,3.9-1.61c.79,0,1.18.24,1.18.74s0,1.43-.13,2.52-.13,2-.14,2.52,0,1.39,0,2.37C159.4,294,159.41,294.75,159.41,295.14Z"/><path id="I1_Mod" data-name="I1 Mod" class="cls-21" d="M169.67,300.19q0,2.25.07,6.7t.06,6.66a.69.69,0,0,1-.53.77,17.25,17.25,0,0,1-3.22.18,17.5,17.5,0,0,1-3.25-.18.76.76,0,0,1-.57-.4,6.28,6.28,0,0,1,0-.93q0-2.12.06-6.38t.07-6.42q0-8.74-.47-13.91c0-.33,0-.54,0-.65,0-.41.19-.61.57-.61a13.47,13.47,0,0,1,1.8.18,12.48,12.48,0,0,0,1.83.19,15,15,0,0,0,1.83-.16,16.5,16.5,0,0,1,1.83-.15c.34,0,.51.2.51.62,0,.08,0,.27,0,.58Q169.68,292.28,169.67,300.19Zm1.63-22.43c-.41,3.52-2.46,4.92-5.21,4.92a3.67,3.67,0,0,1-2.93-1.36,6.8,6.8,0,0,1,0-7.94c.8-.94,1.67-2,2.8-2,1.91-.09,3.09-.47,4.92,1.07C173,274.13,171.49,276.16,171.3,277.76Z"/><path id="I2_Mod" data-name="I2 Mod" class="cls-21" d="M253.08,300.16q0,2.25.06,6.69t.06,6.67c0,.43-.17.68-.52.76a27.64,27.64,0,0,1-6.47,0,.74.74,0,0,1-.57-.4,5,5,0,0,1,0-.92q0-2.11.06-6.38t.06-6.42q0-8.75-.46-13.91c0-.33,0-.55,0-.65,0-.41.19-.61.57-.61a13.62,13.62,0,0,1,1.8.18,13.55,13.55,0,0,0,1.82.18,16.33,16.33,0,0,0,1.83-.15,16.64,16.64,0,0,1,1.84-.15c.34,0,.5.2.5.61,0,.08,0,.28,0,.59Q253.08,292.25,253.08,300.16Zm1.62-22.43c-.4,3.52-2.45,4.92-5.2,4.92a3.7,3.7,0,0,1-2.93-1.36,6.75,6.75,0,0,1,0-7.94c.8-.94,1.67-2,2.79-2,1.92-.09,3.1-.47,4.92,1.07C256.36,274.1,254.89,276.12,254.7,277.73Z"/><path id="N" class="cls-21" d="M216.29,313.51q0,.84-.6,1a21.69,21.69,0,0,1-3.09.13,16.84,16.84,0,0,1-3.31-.19c-.42-.12-.64-.55-.64-1.27,0-1,0-2.44.07-4.4s.06-3.43.06-4.42c0-.77,0-1.91,0-3.43s0-2.65,0-3.42q0-4.25-2.53-4.24a3.08,3.08,0,0,0-1.93,1,3.36,3.36,0,0,0-1.18,2.33v16.72q0,1-.66,1.14a23.26,23.26,0,0,1-3,.13,17.08,17.08,0,0,1-3.22-.19q-.66-.15-.66-1,0-2.42,0-7.28t0-7.31a68,68,0,0,0-.83-12.1c0-.19,0-.34,0-.47a.73.73,0,0,1,.32-.68c.89-.14,2.08-.37,3.56-.68a30.85,30.85,0,0,1,3.8-1c.15,0,.27.7.36,2.09s.2,2.09.36,2.09c-.16,0,.6-.72,2.28-2.15s3.14-2.15,4.4-2.15a6,6,0,0,1,4.49,1.85,8.36,8.36,0,0,1,2,5.95v9.88q0,2,0,6T216.29,313.51Z"/><path id="D" class="cls-21" d="M242.16,270.65c0-.46,0,.22-.17,2-.15,2.27-.27,5.19-.35,8.74q-.18,6-.17,13.72,0,12.72.48,18.1c0,.39,0,.64,0,.74a.36.36,0,0,1-.31.4,52.46,52.46,0,0,1-5.59.15c-.75,0-1.19-.21-1.3-.64l-.09-2.34a1,1,0,0,0-.17-.49,1.52,1.52,0,0,0-.31.36,6.75,6.75,0,0,1-5.69,3.27q-4.46,0-7.12-4.56a21.33,21.33,0,0,1-2.55-10.95,21.85,21.85,0,0,1,2.5-11.05q2.65-4.62,7.17-4.62a5.5,5.5,0,0,1,4.95,2.95c.2.33.34.5.42.5s.19-.27.19-.8q0-2.37-.08-7.08t-.09-7.05c0-.59.12-.93.34-1,.9-.06,2.14-.18,3.71-.36a23.94,23.94,0,0,0,3.73-.77C242,269.88,242.16,270.13,242.16,270.65Zm-7.94,28.28a7.81,7.81,0,0,0-1.16-4.26,3.32,3.32,0,0,0-2.8-1.83,3.07,3.07,0,0,0-2.75,1.83,8.87,8.87,0,0,0-1,4.38,8.07,8.07,0,0,0,1,4.22,3.11,3.11,0,0,0,2.74,1.85,3.3,3.3,0,0,0,2.82-1.85A8.1,8.1,0,0,0,234.22,298.93Z"/><path id="T" class="cls-21" d="M271.24,305.3c0,.62-.05,1.55-.16,2.8s-.15,2.17-.15,2.76a3.14,3.14,0,0,1-.13,1.12,3,3,0,0,1-.69.71,9.46,9.46,0,0,1-6,2.18q-6.09,0-6.09-6.8,0-2,.1-6.11c.07-2.72.11-4.75.11-6.11,0-.9-.36-1.35-1.08-1.3h-.27a1,1,0,0,0-.27,0c-.54,0-.8-.28-.8-.83,0-.33,0-.83.05-1.51s0-1.18,0-1.51,0-1.09,0-2-.05-1.54-.05-2,.45-.63,1.34-.68c.51,0,.78-.22.83-.61a33.93,33.93,0,0,0,.08-3.69c-.06-2.65-.08-3.91-.08-3.79,0-2.38.15-3.57.46-3.57a5.22,5.22,0,0,1,1.62.37,10.35,10.35,0,0,0,1.67.46c.71.14,1.8.34,3.24.59.35,0,.53.21.53.52,0,.82-.05,2.06-.14,3.72s-.13,2.92-.13,3.76c0,1,.2,1.51.61,1.51s1.23,0,2.23-.1,1.75-.09,2.25-.09a.42.42,0,0,1,.47.46c0,.47,0,1.18-.11,2.13s-.1,1.65-.1,2.12,0,1.21,0,2.15,0,1.67,0,2.16-.2.65-.61.65l-1.41-.05c-.66,0-1.13-.05-1.42.67h-1.58c-.21-.72-.31-.27-.18.64v2.18a16.56,16.56,0,0,0-.11,2.19,10.71,10.71,0,0,0,.4,3.57,2.19,2.19,0,0,0,2.23,1.32,5,5,0,0,0,1.51-.35,4.75,4.75,0,0,1,1.38-.36C271.1,304.62,271.24,304.85,271.24,305.3Z"/></g></g></g></svg>