<?xml version="1.0" encoding="utf-8"?>
<!-- Generator: Adobe Illustrator 26.0.1, SVG Export Plug-In . SVG Version: 6.00 Build 0)  -->
<svg version="1.1" id="Capa_1" xmlns="http://www.w3.org/2000/svg" xmlns:xlink="http://www.w3.org/1999/xlink" x="0px" y="0px"
	 viewBox="0 0 811.5 528.5" style="enable-background:new 0 0 811.5 528.5;" xml:space="preserve">
<style type="text/css">
	.st0{fill:#C2CBE8;}
	.st1{fill:#88C279;}
	.st2{fill:#96A3C4;}
	.st3{fill:#1E966A;}
	.st4{fill:#292831;}
	.st5{fill:#E52421;}
	.st6{fill:#2D509F;}
	.st7{fill:#FFFFFF;}
	.st8{fill:#F3E600;}
	.st9{fill:#1D1D1B;}
	.st10{fill:#334B5E;}
	.st11{fill:#ADB4BB;}
	.st12{fill:#CFD6E0;}
</style>
<g id="M4Logotipo">
	<g id="Cocina">
		<path class="st0" d="M410.8,290c48.7,0,97.5,0.2,146.2-0.2c8.5-0.1,11.3,1.8,11.2,10.8c-0.4,64.5-0.2,129.1-0.2,193.7
			c0,21.1-11.6,32.6-33.5,33c-20,0.4-40,0.1-60,0.1c-60.8,0-121.6,0-182.4,0c-27.7,0-38.9-11.1-38.9-38.4
			c0-62.5,0.2-124.9-0.2-187.4c-0.1-9.2,2.1-12,11.7-11.9C313.3,290.2,362.1,290,410.8,290z"/>
		<path class="st1" d="M235.2,398.1c0,31.2,0,62.4,0,93.6c-0.1,22.5-11.6,34.9-34,35.7c-15,0.5-30-0.1-44.9,0.2
			c-6.6,0.2-8.5-2.4-8.5-8.8c0.2-73.6,0.2-147.3,0-220.9c0-7.2,3.2-8,9.1-7.9c23.3,0.2,46.6,0.4,69.9-0.1c7.7-0.1,8.7,3.1,8.7,9.6
			C235.1,332.4,235.2,365.2,235.2,398.1z"/>
		<path class="st1" d="M692.1,409.3c0-36.2,0.2-72.4-0.2-108.7c-0.1-7.9,1.8-10.9,10.3-10.7c22,0.6,44.1,0.4,66.2,0.1
			c7.2-0.1,10.3,1.3,10.2,9.5c-0.3,64.9,0,129.9-0.3,194.8c-0.1,20.1-11.2,31.8-31.4,33c-15.8,0.9-31.6,0-47.4,0.4
			c-8.9,0.2-7.5-5.7-7.5-10.9C692.1,480.9,692.1,445.1,692.1,409.3z"/>
		<path class="st1" d="M673.5,408.9c0,35.8-0.2,71.6,0.2,107.3c0.1,8.4-2,11.9-11,11.4c-13.3-0.7-26.6-0.3-39.9-0.2
			c-21.4,0.3-35.9-13.5-35.5-35.3c1.1-63.2,0.6-126.5,0.2-189.7c0-9.2,1.5-13.2,12-12.7c20.8,0.9,41.6,0.7,62.4,0.1
			c9.2-0.3,12.1,2.2,11.9,11.7C673.2,337.4,673.5,373.1,673.5,408.9z"/>
		<path class="st2" d="M0,148.7c9-6.8,19.5-5.7,29.7-5.7c244.1-0.1,488.1-0.1,732.2,0c16.6,0,33.3-1.1,49.6,3.3
			c-5.4,15.4-16.5,21.8-32.5,21.8C529.3,168,279.6,168,29.9,168C15.9,168,4.7,163.2,0,148.7z"/>
		<path class="st0" d="M567.4,228.2c0.2,11.2-0.2,22.5,0.8,33.7c0.8,8.8-3.1,10.3-10.7,10.2c-51.6-0.2-103.3-0.1-154.9-0.1
			c-45.4,0-90.8-0.5-136.2,0.3c-11.6,0.2-14.4-3.4-13.4-14c1-9.9,0.6-19.9,0.8-29.9c4.5-4.8,10.5-4.1,16-4
			c12.6,0.2,25.3-1.4,37.8,1.3c4,1.4,5.2,5,6.6,8.4c2.8,6.6,7.4,10.6,15,10.6s12-4.3,14.8-10.9c1.3-3,2.3-6.2,5.7-7.7
			c14.4-2.6,28.8-2.3,43.2-0.2c4.3,1.6,5.5,5.8,7.4,9.3c3.4,6.3,8.3,10,15.8,9.5c7-0.5,11.1-4.5,13.3-10.9c1.1-3.1,2.1-6.3,5.5-7.7
			c15.1-2.4,30.5-2.5,45.6-0.2c4.5,1.8,4.9,6.2,6.7,9.9c5.9,11.8,19.1,12.5,26.5,1.4c2.7-4,3.8-9.3,9.1-11.3
			C537.8,224.6,552.9,220.9,567.4,228.2z"/>
		<path class="st2" d="M309.9,228.2l-56.1,0.1c-0.2-11.2-0.1-22.4-0.7-33.6c-0.4-7.1,3-8.2,9-8.2c99,0.1,198,0.1,297-0.1
			c7.2,0,9.4,2.4,9,9.3c-0.6,10.8-0.5,21.6-0.7,32.4l-47.3-0.1c-3.1,0.6-4.1-2-5.7-3.8c-9.9-11.4-18.4-11.3-28,0.3
			c-1.3,1.6-2.3,3.4-4.7,3.6h-48.1c-2.8-0.4-3.8-2.9-5.3-4.7c-8.5-10.1-17.8-10.1-26.6-0.1c-1.8,2-2.6,5.4-6.4,4.6l-47.1,0.1
			c-2.2-0.3-3.6-1.8-5-3.4c-10.6-11.8-17.7-11.8-28.3,0C313.5,226.4,312.1,227.9,309.9,228.2z"/>
		<path class="st1" d="M85.3,290.6c12.4-0.2,24.9-0.1,37.3-0.6c6-0.2,7.8,2,7.7,7.9c-0.3,75.9-0.5,151.8-0.6,227.7
			c-9.8,2.5-19.8,0.5-29.7,1.1c-5.2,0.3-8.4-2.9-11.2-6.7c-5.5-7.7-7.6-16.5-7.6-25.9c-0.1-62.7-0.1-125.5,0-188.2
			C81.4,300.5,81.3,295,85.3,290.6z"/>
		<path class="st3" d="M85.3,290.6c0,67.2,0,134.5-0.1,201.7c0,26.7,6.8,33.3,33.4,33.3h11.2c-22.9,4.2-46,4.2-68.3-2
			C48.4,520,43.3,507.8,43.2,495c-0.3-65.4-0.1-130.8-0.3-196.2c0-6.5,2.2-8.9,8.6-8.6C62.8,290.6,74.1,290.5,85.3,290.6z"/>
		<path class="st3" d="M85.1,271c-11.2,0.1-22.4-0.1-33.6,0.3c-6.6,0.2-8.6-2.4-8.5-8.8c0.3-22.4,0.3-44.8,0-67.3
			c-0.1-6,2.3-7.9,8.1-7.9c58.5,0.1,117.1,0.1,175.6,0c6.5,0,8.8,2.3,8.5,8.7c-0.5,10.8-0.3,21.6-0.4,32.4
			c-2.9,2.8-6.6,3.3-10.3,3.3c-20.9,0-41.8,1.1-62.7-0.6c-19-6.5-39.7-6.6-58.8-0.5c-11.2,0-14.7,5.9-14.3,16.6
			C89,255.2,91.2,263.9,85.1,271z"/>
		<path class="st1" d="M777.7,228.3c0.2,12,0.3,24.1,0.8,36.1c0.2,6.2-2.6,7.8-8.2,7.8c-58.2-0.1-116.4-0.1-174.7,0.1
			c-7,0-8.4-2.9-8.1-9c0.5-11.6,0.4-23.3,0.5-34.9c2-2.2,4.7-3.5,7.6-3.6c19.3-0.3,38.7-2.4,57.9,1.3c15.1,15.9,43.5,15.9,58.1,0.1
			C733.8,224.1,756,220.3,777.7,228.3z"/>
		<path class="st3" d="M654.6,228.4h-66.5c-0.1-10,0.2-20-0.6-29.9c-0.7-8.7,2.4-11.3,11.1-11.2c43.2,0.4,86.4,0.2,129.7,0.2
			c13.7,0,27.4,0.2,41.1-0.1c6.3-0.1,9.1,1.9,8.8,8.6c-0.5,10.8-0.4,21.6-0.5,32.4l-66.8,0.1C692.2,225.9,673.3,225.9,654.6,228.4z"
			/>
		<path class="st1" d="M85.1,271c0-8.7,0.1-17.3,0.1-26c0-16.9,0-16.9,17.6-16.8c4.6,6.9,10.8,9.7,19.1,9c5.8-0.5,11.7-0.5,17.5,0
			c8.6,0.8,15.5-1.7,20.5-8.9l74.9,0.1c0.1,12.1,0.1,24.1,0.5,36.2c0.1,5.1-1.3,7.7-6.9,7.6C180.6,271.5,132.9,273.2,85.1,271z"/>
		<path class="st4" d="M309.9,228.2c3-9.4,8.4-16.3,19.1-16.3s16.2,6.9,19.2,16.3c-2.7,14.6-8.6,20.9-19.8,20.3
			C315.7,247.9,311,239.5,309.9,228.2z"/>
		<path class="st4" d="M395.4,228.1c3.7-9.4,9.1-16.9,20.6-16.2c10.2,0.6,15.4,7,17.7,16.3c-0.9,11.5-5.6,19.8-18.3,20.2
			C401.7,248.9,397.4,239.5,395.4,228.1z"/>
		<path class="st4" d="M481.7,228.2c2.4-9.3,7.5-15.7,17.7-16.3c11.5-0.7,16.9,6.8,20.6,16.2c-1.7,8.7-4.1,16.9-13.9,19.8
			C493.5,251.6,484.4,244.2,481.7,228.2z"/>
		<path class="st4" d="M159.9,228.3c1.3,9.1-2.9,13.2-11.8,13.1c-11.2,0-22.4-0.1-33.6,0c-9.1,0.1-12.8-4.4-11.7-13.2
			C121.9,220.3,140.9,220.1,159.9,228.3z"/>
		<path class="st4" d="M711.3,228.8c1.3,9.1-2.9,13.2-11.8,13.1c-11.2,0-22.4-0.1-33.6,0c-9.1,0.1-12.8-4.4-11.7-13.2
			C673.2,220.8,692.3,220.6,711.3,228.8z"/>
	</g>
	<g id="Tricolor">
		<path id="Rojo" class="st5" d="M261.6,439.2h297.7v61.9c0,5.5-4.5,10-10,10H271.6c-5.5,0-10-4.5-10-10V439.2z"/>
		<g id="Azul">
			<rect id="PAzul" x="261.6" y="367.2" class="st6" width="297.7" height="71.9"/>
			<g id="E-Superior">
				<polygon class="st7" points="410.5,390.1 408.6,384.2 402.3,384.4 407.4,380.7 405.3,374.8 410.4,378.4 415.3,374.7 
					413.4,380.6 418.5,384.1 412.3,384.2 				"/>
				<polygon class="st7" points="390.9,394.6 386.6,390.1 381,392.9 384,387.4 379.6,383 385.7,384.1 388.5,378.6 389.4,384.7 
					395.5,385.7 389.9,388.4 				"/>
				<polygon class="st7" points="375.2,407.1 369.4,404.9 365.6,409.9 365.8,403.7 359.9,401.6 365.9,399.9 366.1,393.7 
					369.5,398.9 375.5,397.1 371.6,402 				"/>
				<polygon class="st7" points="366.4,425.2 360.2,425.8 359,431.9 356.5,426.1 350.3,426.9 355,422.7 352.4,417.1 357.8,420.2 
					362.4,416 361,422.1 				"/>
				<polygon class="st7" points="454.5,425.3 459.8,422.1 458.3,416.1 463,420.1 468.2,416.8 465.8,422.6 470.6,426.5 464.4,426 
					462.1,431.8 460.7,425.7 				"/>
				<polygon class="st7" points="445.8,407.2 449.2,402 445.2,397.2 451.2,398.8 454.5,393.6 454.8,399.8 460.9,401.3 455,403.5 
					455.5,409.7 451.6,404.9 				"/>
				<polygon class="st7" points="430.1,394.6 430.9,388.5 425.2,385.9 431.3,384.8 432,378.6 435,384 441.1,382.8 436.8,387.3 
					439.9,392.7 434.3,390 				"/>
			</g>
		</g>
		<path id="Amarillo" class="st8" d="M269.6,295.3h281.7c4.4,0,8,3.6,8,8v63.9H261.6v-63.9C261.6,298.9,265.2,295.3,269.6,295.3z"/>
	</g>
	<g id="LaMeriendita">
		<path id="A2_Mod" class="st9" d="M794.4,86.1c0,4.7,0.2,11.6,0.6,20.8c0.4,9.2,3.5,19.1,3.5,23.7c0,2.4-4.2,4.1-5.6,4.3
			c-5.2,0.6-10.5-2.6-17.2-2.6c-0.8,0-1.3-1.7-1.6-5.2s-0.6-5.3-1-5.3c-0.5,0.5-0.9,1-1.3,1.6c-4.7,6.9-9.6,10.3-14.9,10.3
			c-8.1,0-14.8-4.7-20.1-14c-5-8.7-7.5-19.1-7.5-31.3c0-14,2.6-25.3,7.8-33.8c5.4-8.9,12.8-13.3,22.2-13.3c6.5,0,11.7,3.3,15.4,10
			c0.2,0.3,0.3,0.5,0.4,0.5c0.4,0,0.8-1.5,1.3-4.4s1-4.4,1.7-4.4c1.5,0,5.4-2.9,9.7-1.6c4.1,1.2,8,0.2,9.8,1
			c0.6,0.4,1.8,8.7,1.8,9.3c0,0.2-2.8-1.4-2.9-0.3C795.1,62.8,794.4,74.5,794.4,86.1z M774.4,86.7c0-5.1-1.1-9.4-3.3-12.8
			s-5.1-5-8.7-5c-3.6,0-6.5,1.7-8.7,5s-3.3,7.6-3.3,12.8c-0.1,4.5,1.1,8.9,3.5,12.6c2.3,3.5,5.1,5.3,8.5,5.3c3.5,0,6.4-1.7,8.7-5
			C773.3,96.3,774.4,92,774.4,86.7L774.4,86.7z"/>
		<path id="T" class="st9" d="M725.3,104.9c0,1.8-0.2,4.6-0.5,8.3c-0.3,3.7-0.5,6.4-0.5,8.1c0.1,1.1,0,2.2-0.4,3.3
			c-0.6,0.8-1.3,1.5-2.1,2.1c-5,4.2-11.3,6.5-17.8,6.5c-12,0-18-6.7-18-20.1c0-4,0.1-10,0.3-18.1s0.3-14,0.3-18c0-2.7-1.1-4-3.2-3.8
			h-0.8c-0.3-0.1-0.5-0.1-0.8-0.1c-1.2,0.1-2.2-0.7-2.4-1.8c0-0.2,0-0.4,0-0.6c0-1,0-2.5,0.2-4.5s0.2-3.5,0.2-4.5
			c0-1.3,0-3.2-0.2-5.8c-0.1-2.6-0.2-4.5-0.2-5.8s1.3-1.9,4-2c1.5-0.1,2.3-0.7,2.4-1.8c0.3-3.6,0.4-7.3,0.2-10.9
			c-0.2-7.8-0.2-11.5-0.2-11.2c0-7,0.5-10.5,1.4-10.5c1.6,0.1,3.3,0.5,4.8,1.1c1.6,0.6,3.2,1,4.9,1.4c2.1,0.4,5.3,1,9.6,1.7
			c1,0.1,1.6,0.6,1.6,1.5c0,2.4-0.1,6.1-0.4,11s-0.4,8.6-0.4,11.1c0,3,0.6,4.5,1.8,4.5c1.5,0,3.7-0.1,6.6-0.3
			c2.9-0.2,5.2-0.3,6.7-0.3c0.7-0.1,1.3,0.4,1.4,1c0,0.1,0,0.2,0,0.3c0,1.4-0.1,3.5-0.3,6.3s-0.3,4.9-0.3,6.3s0,3.6,0.1,6.4
			c0.1,2.8,0.1,4.9,0.1,6.4c0,1.3-0.6,1.9-1.8,1.9c-0.8,0-2.2-0.1-4.2-0.1s-3.3-0.1-4.2,2h-4.7c-0.6-2.1-0.9-0.8-0.5,1.9v6.4
			c-0.3,2.1-0.4,4.3-0.3,6.5c0,5.1,0.4,8.6,1.2,10.5c1.1,2.6,3.3,3.9,6.6,3.9c1.5-0.1,3-0.4,4.5-1c1.3-0.5,2.7-0.9,4.1-1
			C724.9,102.9,725.3,103.6,725.3,104.9z"/>
		<path id="I2_Mod" class="st9" d="M671.7,89.7c0,4.4,0.1,11,0.2,19.8s0.2,15.3,0.2,19.7c0.2,1.1-0.5,2.1-1.6,2.3
			c-1.4,0.4-4.6,0.5-9.5,0.5s-8.1-0.2-9.6-0.5c-0.7-0.1-1.3-0.5-1.7-1.2c-0.1-0.9-0.2-1.8-0.1-2.7c0-4.2,0.1-10.5,0.2-18.9
			s0.2-14.7,0.2-19c0-17.2-0.5-30.9-1.4-41.1c-0.1-1-0.1-1.6-0.1-1.9c0-1.2,0.6-1.8,1.7-1.8c1.8,0.1,3.6,0.2,5.3,0.5
			c1.8,0.3,3.6,0.5,5.4,0.5c1.8,0,3.6-0.2,5.4-0.5c1.8-0.3,3.6-0.4,5.4-0.5c1,0,1.5,0.6,1.5,1.8c0,0.2,0,0.8-0.1,1.7
			C672.1,60.5,671.7,74.2,671.7,89.7z M676.5,23.5c-1.2,10.4-7.2,14.5-15.4,14.5c-3.3,0.1-6.5-1.4-8.7-4c-2.5-2.9-3.7-6.8-3.7-11.8
			c-0.2-4.2,1.2-8.4,3.9-11.6c2.4-2.8,4.9-5.9,8.2-6c5.7-0.3,9.2-1.4,14.5,3.2C681.4,12.8,677,18.7,676.5,23.5z"/>
		<path id="D" class="st9" d="M639.4,2.6c0-1.3-0.2,0.7-0.5,6c-0.5,6.7-0.8,15.3-1.1,25.8c-0.3,11.9-0.5,25.4-0.5,40.5
			c0,25,0.5,42.8,1.4,53.5c0.1,1.1,0.1,1.9,0.1,2.2c0.1,0.6-0.3,1.1-0.9,1.2l0,0c-1.5,0.3-7,0.5-16.5,0.5c-2.2,0-3.5-0.6-3.9-1.9
			l-0.2-6.9c-0.1-0.5-0.2-1-0.5-1.4c-0.4,0.3-0.7,0.7-0.9,1.1c-4.5,6.4-10.1,9.6-16.8,9.6c-8.8,0-15.8-4.5-21-13.4
			c-5-8.6-7.5-19.3-7.5-32.4c0-13.2,2.4-24.1,7.3-32.6c5.2-9.1,12.3-13.6,21.2-13.6c6.3,0,11.1,2.9,14.6,8.7c0.6,1,1,1.5,1.2,1.5
			s0.6-0.8,0.6-2.4c0-4.7-0.1-11.6-0.2-20.9s-0.2-16.2-0.2-20.8c0-1.8,0.3-2.8,1-3c2.7-0.2,6.3-0.5,11-1.1c8.3-1.5,11.9-2.3,11-2.3
			C639,0.3,639.4,1,639.4,2.6z M616,86.1c0.1-4.4-1.1-8.8-3.4-12.6c-2.3-3.6-5-5.4-8.3-5.4c-3.4,0-6.1,1.8-8.1,5.4
			c-2.1,4-3.1,8.5-3,13c-0.2,4.3,0.9,8.7,3,12.4c2.1,3.6,4.8,5.5,8.1,5.5s6.1-1.8,8.3-5.5C614.9,95.1,616.1,90.6,616,86.1z"/>
		<path id="N" class="st9" d="M563,129.2c0,1.6-0.6,2.6-1.8,2.8c-3,0.3-6.1,0.5-9.1,0.4c-5.3,0-8.5-0.2-9.8-0.6
			c-1.2-0.4-1.9-1.6-1.9-3.8c0-2.9,0.1-7.2,0.2-13c0.1-5.8,0.2-10.2,0.2-13.1c0-2.2,0-5.6-0.1-10.1s-0.1-7.8-0.1-10.1
			c0-8.4-2.5-12.5-7.5-12.5c-1.6,0-3.5,1-5.7,3.1c-2.3,2.3-3.5,4.6-3.5,6.9v49.4c0,2-0.6,3.1-1.9,3.4c-3,0.3-6,0.4-9,0.4
			c-4.9,0-8.1-0.2-9.5-0.6c-1.3-0.3-1.9-1.3-1.9-3c0-4.8,0-11.9,0.1-21.5c0-9.6,0.1-16.8,0.1-21.6c0-15.2-0.8-27.1-2.4-35.8
			c-0.1-0.5-0.1-0.9-0.1-1.4c-0.1-0.8,0.3-1.6,0.9-2c2.6-0.4,6.1-1.1,10.5-2c6.7-1.9,10.4-2.8,11.2-2.8c0.5,0,0.8,2.1,1.1,6.2
			s0.6,6.2,1.1,6.2c-0.4,0,1.8-2.1,6.7-6.3s9.3-6.4,13-6.4c5-0.1,9.8,1.9,13.3,5.5c4,4.2,6,10.1,6,17.6v29.1c0,4,0,9.9,0.1,17.8
			C563,119.3,563,125.2,563,129.2z"/>
		<path id="E2_Mod" class="st9" d="M346.9,82.2c0,6.1-1.3,9.6-4,10.5c-0.5,0.1-4.8,0.8-12.9,2c-4.9,0.8-12.2,1.7-21.9,2.8
			c0.4,3.6,2.3,6.9,5.3,9c2.4,1.7,5.3,2.6,8.2,2.5c3.7,0,7.4-1.5,11.1-4.4l4.7-4.4c0.9,0.6,2.3,3.7,4.4,9.3c3.7,10.1,4.4,7,7,13.8
			c1.5,3.8,1.6,7.8,1,8.8c-5.1,7.9-18.8,2.1-29.4,2.1c-9.9,0-17.9-4.2-23.9-12.6c-6.2-8.5-9.3-20-9.3-34.3c0-13.9,2.8-25.4,8.4-34.3
			c5.7-9.2,13.3-13.8,22.8-13.8c8,0,14.8,4.2,20.3,12.7C344,60.4,346.8,70.5,346.9,82.2z M325.1,76.7c0.1-3.5-0.9-6.9-2.7-9.9
			c-1.8-2.9-4-4.3-6.5-4.3s-4.7,1.6-6.5,4.8c-1.6,3.2-2.4,6.8-2.3,10.5c0,1.6,0.6,2.4,1.8,2.4c3.1,0,7.8-0.7,14.3-2.1
			C324.4,77.8,325.1,77.3,325.1,76.7L325.1,76.7z"/>
		<path id="I1_Mod" class="st9" d="M425.3,89.8c0,4.4,0.1,11,0.2,19.8s0.2,15.3,0.2,19.7c0.2,1.1-0.5,2-1.6,2.3
			c-1.4,0.4-4.6,0.6-9.5,0.6s-8.2-0.2-9.6-0.6c-0.7-0.1-1.3-0.5-1.7-1.2c-0.1-0.9-0.2-1.8-0.1-2.7c0-4.2,0.1-10.5,0.2-18.9
			s0.2-14.7,0.2-19c0-17.2-0.5-30.9-1.4-41.1c-0.1-1-0.1-1.6-0.1-1.9c0-1.2,0.6-1.8,1.7-1.8c1.8,0.1,3.6,0.2,5.3,0.5
			c1.8,0.3,3.6,0.5,5.4,0.5s3.6-0.2,5.4-0.5s3.6-0.4,5.4-0.5c1,0,1.5,0.6,1.5,1.8c0,0.2,0,0.8-0.1,1.7
			C425.7,60.5,425.3,74.3,425.3,89.8z M430.1,23.6c-1.2,10.4-7.3,14.5-15.4,14.5c-3.3,0.1-6.5-1.4-8.6-4c-2.5-2.9-3.7-6.9-3.7-11.8
			c-0.2-4.2,1.2-8.4,3.9-11.6c2.4-2.8,4.9-5.9,8.2-6c5.7-0.3,9.1-1.4,14.5,3.2C435,12.9,430.6,18.8,430.1,23.6z"/>
		<path id="R" class="st9" d="M395,74.9c0,2.4-0.9,3.6-2.7,3.6c-0.8,0-1.9-0.1-3.5-0.2s-2.7-0.2-3.4-0.2c-3.4,0-5.8,0.8-7,2.4
			s-1.9,4.8-1.9,9.5c0,2.6,0,6.6,0.1,11.9s0.1,9.3,0.1,11.9c0,1.8,0.1,4.4,0.2,7.9s0.2,6.1,0.2,7.8c0.2,1.2-0.7,2.3-1.9,2.4
			c-0.1,0-0.1,0-0.2,0c-3,0.3-6.1,0.4-9.1,0.4c-3.2,0.1-6.3-0.1-9.5-0.6c-1.4-0.2-2.1-1.2-2.1-3c0-4.8,0-12.1,0.1-21.8
			c0-9.7,0.1-16.9,0-21.8c0-14.2-0.9-26-2.7-35.2c-0.1-0.5-0.1-0.9-0.1-1.4c-0.1-0.7,0.3-1.5,0.9-1.8c2.3-0.4,5.6-1,10-2
			c6.6-1.9,9.9-2.8,10.1-2.8c0.8,0,1.2,1.9,1.4,5.7s0.6,5.7,1.1,5.7c-0.6,0,1.1-1.6,5.1-4.8s7.8-4.8,11.5-4.8c2.3,0,3.5,0.7,3.5,2.2
			c0,1.8-0.1,4.2-0.4,7.5c-0.2,3.5-0.4,5.9-0.4,7.5c0,1.8,0,4.1,0.1,7C394.9,71.4,395,73.8,395,74.9z"/>
		<path id="E1_Mod" class="st9" d="M494.3,81.2c0,6.1-1.4,9.6-4,10.4c-0.4,0.1-4.7,0.8-12.9,2c-4.9,0.8-12.2,1.7-21.9,2.8
			c0.4,3.6,2.3,6.9,5.3,9c2.4,1.7,5.3,2.6,8.2,2.6c3.7,0,7.4-1.5,11.1-4.4l4.7-4.4c0.9,0.6,2.3,3.7,4.4,9.3c3.7,10.1,4.4,7,7,13.8
			c1.5,3.8,1.6,7.8,1,8.8c-5.1,7.9-18.8,2.1-29.4,2.1c-9.9,0-17.8-4.2-23.9-12.6c-6.2-8.5-9.3-20-9.3-34.3c0-13.9,2.8-25.4,8.3-34.3
			c5.7-9.2,13.3-13.8,22.8-13.8c8,0,14.8,4.2,20.3,12.7S494.3,69.5,494.3,81.2z M472.5,75.6c0.1-3.5-0.9-6.9-2.7-9.9
			c-1.8-2.8-4-4.3-6.5-4.3c-2.6,0-4.8,1.6-6.5,4.8c-1.6,3.2-2.4,6.8-2.4,10.4c0,1.6,0.6,2.5,1.7,2.5c3.1,0,7.8-0.7,14.3-2.1
			C471.9,76.8,472.5,76.3,472.5,75.6L472.5,75.6z"/>
		<path id="M" class="st9" d="M278.7,129.8c0,1.9-0.6,2.8-1.8,2.8h-22c-1.2,0-1.8-1.1-1.8-3.2c0-6.1,0.2-15.3,0.5-27.6
			c0.3-12.2,0.5-21.4,0.4-27.6c0-1.8-0.2-2.7-0.6-2.8c-0.5,0.4-3.2,9.7-8.4,28.1c-3,10.8-6,21.5-9,32.3c-0.4,1.4-0.9,2.2-1.6,2.5
			c-0.8,0.1-1.7,0.1-2.5,0.1c-2.1,0-3.4-0.6-3.9-1.8c-2.2-6.7-5.2-16.4-8.8-29.1c-3.9-13.4-6.8-23.2-8.8-29.2
			c-0.1-0.4-0.3-0.7-0.6-1c-0.3,0.8-0.5,1.7-0.4,2.6c0,5.9,0.1,14.9,0.3,26.7s0.3,20.8,0.3,26.7c0,2.1-0.6,3.2-1.7,3.2h-20.8
			c-0.8,0-1.3-0.2-1.5-0.6s-0.1-18.6,0.4-31.8s0.6-23.2,0.6-29.8c0-7-0.2-20.2-0.6-39.5c0-5-0.2-12.5-0.6-22.5l-0.1-1.5
			c-0.1-1.2,0.8-1.8,2.6-1.8c2.3,0,5.7-0.1,10.3-0.3s8-0.3,10.3-0.3c0.5,0,1.1,1.3,1.9,3.8L229,66.5c1.3,3.9,2.4,5.9,3.2,5.9
			c0.4,0,1.4-2.3,2.9-6.8c4.2-12.7,10.4-31.9,18.6-57.5c0.7-2.4,1.5-3.6,2.3-3.6c1.2,0,3,0.1,5.5,0.3s4.3,0.3,5.5,0.3
			c1.6-0.1,3.2-0.2,4.7-0.4c1.6-0.3,3.2-0.4,4.8-0.5c1.2,0,1.9,0.7,1.9,2.2c0,7.2-0.2,17.8-0.5,32s-0.5,24.9-0.5,32
			c0,6.6,0.2,16.5,0.6,29.7S278.7,123.3,278.7,129.8z"/>
		<path id="A1_Mod" class="st9" d="M141.2,86.1c0,4.7,0.2,11.6,0.6,20.8c0.4,9.2,3.5,19.1,3.5,23.7c0,2.4-4.2,4.1-5.6,4.3
			c-5.1,0.6-10.5-2.6-17.2-2.6c-0.8,0-1.3-1.7-1.6-5.2c-0.3-3.5-0.6-5.3-1-5.3c-0.5,0.4-1,1-1.3,1.6c-4.7,6.9-9.6,10.3-14.9,10.3
			c-8.1,0-14.8-4.7-20.1-14c-5-8.7-7.5-19.2-7.5-31.3c0-14,2.6-25.3,7.8-33.8c5.4-8.9,12.8-13.3,22.2-13.3c6.5,0,11.7,3.3,15.4,10
			c0.2,0.3,0.3,0.5,0.4,0.5c0.4,0,0.8-1.5,1.3-4.4s1-4.4,1.7-4.4c1.5,0,5.4-2.9,9.7-1.6c4.1,1.2,8,0.2,9.8,1
			c0.6,0.4,1.8,8.7,1.8,9.3c0,0.2-2.8-1.4-2.9-0.3C141.8,62.8,141.1,74.5,141.2,86.1z M121.1,86.7c0-5.1-1.1-9.4-3.3-12.8
			s-5.1-5-8.7-5s-6.5,1.7-8.7,5s-3.3,7.6-3.3,12.8c-0.1,4.5,1.1,8.9,3.5,12.6c2.3,3.5,5.1,5.3,8.5,5.3c3.5,0,6.4-1.7,8.7-5
			C120,96.3,121.1,92,121.1,86.7z"/>
		<path id="L" class="st9" d="M64.9,133.5c-3.5,0-8-0.1-13.5-0.4l-13.5-0.4l-18-0.4c-2.6,0-5.2-0.1-7.8-0.4
			c-1.2-0.3-1.8-1.2-1.8-2.7c0-6.4,0.1-16,0.2-28.8c0.1-12.8,0.2-22.4,0.2-28.8c0-6.8-0.1-17-0.4-30.6S9.9,17.3,9.9,10.5
			c0-1.3,0.6-1.9,1.8-1.9s3,0.1,5.4,0.3s4.2,0.3,5.3,0.3c1.3,0,3.3-0.1,5.9-0.3s4.6-0.3,5.9-0.3c0.6,0,0.9,0.6,0.8,1.7l-0.1,1.1
			c-0.5,11-1,27.6-1.6,49.8l-0.1,23.2c0,7.5,0,13,0.1,16.5l0.1,2.1c0,0.6,0.3,1.1,0.9,1.3H36c3.6,0,9-0.3,16.2-0.8
			s12.6-0.8,16.2-0.8c1.1,0,1.6,0.7,1.6,2c0.1,8.7-0.4,17.4-1.5,26c-0.2,1.5-0.6,2.4-1.3,2.7C66.6,133.5,65.7,133.5,64.9,133.5z"/>
	</g>
	<g id="Gorro2">
		<circle class="st10" cx="662" cy="19" r="19"/>
		<path class="st7" d="M675.3,13.1c0-3-2.4-5.3-5.4-5.3c-1,0-1.9,0.3-2.7,0.8c-2.5-2.8-6.9-3.1-9.7-0.6c-0.2,0.2-0.4,0.4-0.6,0.6
			c-0.8-0.5-1.8-0.8-2.8-0.8c-2.9,0-5.3,2.4-5.4,5.3c0,2.2,1.4,4.2,3.4,5v12.6c6.5-1.4,13.2-1.4,19.7,0V18.1
			C673.9,17.3,675.3,15.3,675.3,13.1z"/>
		<path class="st11" d="M671.9,26.9v3.8c-6.5-1.5-13.2-1.5-19.7,0v-3.8C658.7,25.4,665.4,25.4,671.9,26.9z"/>
		<path class="st12" d="M650.6,14.4c0.1,0.2,0.2,0.3,0.2,0.4c0.1,0.1,0.2,0.3,0.3,0.4c0.1,0.1,0.2,0.2,0.3,0.4
			c0.1,0.1,0.2,0.2,0.4,0.3c0.1,0.1,0.3,0.2,0.4,0.3c0.1,0.1,0.3,0.1,0.4,0.2c0.1,0.1,0.3,0.1,0.5,0.1s0.3,0.1,0.5,0.1s0.3,0,0.5,0
			h0.2h0.2c0.3,0,0.6-0.1,0.9-0.2c0.1-0.1,0.3-0.1,0.4-0.2l0.4-0.3l0.8-0.5l0.2-0.1l0.2,0.2l0.5,0.5l0.5,0.5
			c0.2,0.2,0.3,0.3,0.5,0.5c0.2,0.1,0.4,0.3,0.6,0.4c0.8,0.5,1.7,0.7,2.6,0.7c0.1,0,0.2,0,0.3,0s0.2,0,0.3,0c0.2,0,0.4-0.1,0.7-0.1
			c0.4-0.1,0.9-0.3,1.2-0.5c0.4-0.2,0.8-0.5,1.1-0.8l0.5-0.5l0.5-0.5l0.2-0.2l0.2,0.1l0.8,0.5l0.4,0.3c0.1,0.1,0.3,0.1,0.4,0.2
			c0.3,0.1,0.6,0.2,0.9,0.2c0.2,0,0.3,0,0.5,0s0.3,0,0.5,0s0.3,0,0.5-0.1c0.2,0,0.3-0.1,0.5-0.1c0.1-0.1,0.3-0.1,0.4-0.2
			c0.1-0.1,0.3-0.2,0.4-0.3c0.1-0.1,0.3-0.2,0.4-0.3c0.1-0.1,0.2-0.2,0.3-0.4c0.1-0.1,0.2-0.3,0.3-0.4c0.1-0.1,0.2-0.3,0.2-0.4
			c0,0.2-0.1,0.3-0.2,0.5c-0.1,0.1-0.2,0.3-0.2,0.4c-0.1,0.1-0.2,0.3-0.3,0.4c-0.1,0.1-0.2,0.2-0.4,0.4c-0.1,0.1-0.3,0.2-0.4,0.3
			c-0.1,0.1-0.3,0.2-0.4,0.2c-0.2,0.1-0.3,0.2-0.5,0.2c-0.2,0.1-0.3,0.1-0.5,0.1l-0.5,0.1c-0.2,0-0.3,0-0.5,0c-0.3,0-0.7-0.1-1-0.2
			c-0.2-0.1-0.3-0.1-0.5-0.2l-0.4-0.2l-0.8-0.5h0.3l-0.5,0.5c-0.2,0.2-0.3,0.4-0.5,0.5c-0.3,0.4-0.7,0.7-1.2,1
			c-0.4,0.3-0.9,0.5-1.4,0.6c-0.2,0.1-0.5,0.1-0.8,0.2h-0.4c-0.1,0-0.2,0-0.4,0c-1,0-2-0.3-2.9-0.8c-0.2-0.1-0.4-0.3-0.6-0.5
			c-0.2-0.2-0.4-0.3-0.5-0.5l-0.5-0.5l-0.5-0.5h0.3l-0.9,0.5l-0.4,0.2c-0.2,0.1-0.3,0.2-0.5,0.2c-0.3,0.1-0.7,0.2-1,0.2h-0.3H654
			c-0.2,0-0.3,0-0.5-0.1c-0.2,0-0.3-0.1-0.5-0.1l-0.5-0.2l-0.5-0.3l-0.4-0.3c-0.1-0.1-0.2-0.2-0.3-0.4c-0.1-0.1-0.2-0.3-0.3-0.4
			c-0.1-0.1-0.2-0.3-0.2-0.4C650.8,14.8,650.7,14.6,650.6,14.4z"/>
	</g>
	<g id="Gorro1">
		<circle class="st10" cx="415.2" cy="19.2" r="19"/>
		<path class="st7" d="M428.4,13.2c0-3-2.4-5.3-5.4-5.3c-1,0-1.9,0.3-2.7,0.8c-2.5-2.8-6.9-3.1-9.7-0.6c-0.2,0.2-0.4,0.4-0.6,0.6
			c-2.5-1.5-5.8-0.8-7.3,1.8c-1.5,2.5-0.8,5.8,1.8,7.3c0.3,0.2,0.6,0.3,0.9,0.4v12.6c6.5-1.4,13.2-1.4,19.7,0V18.2
			C427.1,17.4,428.4,15.4,428.4,13.2z"/>
		<path class="st11" d="M425,27v3.8c-6.5-1.5-13.2-1.5-19.7,0V27C411.8,25.5,418.5,25.5,425,27z"/>
		<path class="st12" d="M403.8,14.6c0.1,0.1,0.2,0.3,0.2,0.4c0.1,0.1,0.2,0.3,0.3,0.4c0.1,0.1,0.2,0.2,0.3,0.4
			c0.1,0.1,0.2,0.2,0.4,0.3c0.1,0.1,0.3,0.2,0.4,0.3c0.1,0.1,0.3,0.1,0.4,0.2s0.3,0.1,0.5,0.1s0.3,0.1,0.5,0.1s0.3,0,0.5,0h0.2h0.2
			c0.3,0,0.6-0.1,0.9-0.2c0.1-0.1,0.3-0.1,0.4-0.2l0.4-0.3l0.8-0.5l0.2-0.1l0.1,0.2l0.5,0.5l0.5,0.5c0.2,0.2,0.3,0.3,0.5,0.5
			c0.2,0.1,0.4,0.3,0.6,0.4c0.8,0.5,1.7,0.7,2.6,0.7c0.1,0,0.2,0,0.3,0h0.3c0.2,0,0.5-0.1,0.7-0.1c0.9-0.3,1.7-0.7,2.3-1.4l0.5-0.5
			l0.5-0.5l0.1-0.2l0.2,0.1l0.8,0.5l0.4,0.3c0.1,0.1,0.3,0.1,0.4,0.2c0.3,0.1,0.6,0.2,0.9,0.2c0.2,0,0.3,0,0.5,0s0.3,0,0.5,0
			s0.3-0.1,0.5-0.1s0.3-0.1,0.5-0.1c0.1-0.1,0.3-0.1,0.4-0.2s0.3-0.2,0.4-0.3c0.1-0.1,0.3-0.2,0.4-0.3s0.2-0.2,0.3-0.4
			c0.1-0.1,0.2-0.3,0.3-0.4c0.1-0.1,0.2-0.3,0.2-0.4c0,0.2-0.1,0.3-0.2,0.5s-0.2,0.3-0.2,0.4c-0.1,0.1-0.2,0.3-0.3,0.4
			c-0.1,0.1-0.2,0.2-0.4,0.4s-0.3,0.2-0.4,0.3c-0.1,0.1-0.3,0.2-0.5,0.2c-0.1,0.1-0.3,0.2-0.5,0.2c-0.2,0.1-0.3,0.1-0.5,0.1
			l-0.5,0.1h-0.5c-0.3,0-0.7-0.1-1-0.2c-0.2-0.1-0.3-0.1-0.5-0.2l-0.4-0.2l-0.9-0.5h0.3l-0.5,0.5l-0.5,0.5c-0.2,0.2-0.4,0.4-0.6,0.5
			c-0.2,0.2-0.4,0.3-0.6,0.4c-0.4,0.3-0.9,0.5-1.4,0.6c-0.2,0.1-0.5,0.1-0.8,0.2h-0.4c-0.1,0-0.2,0-0.4,0c-1,0-2-0.3-2.9-0.8
			c-0.2-0.1-0.4-0.3-0.6-0.5s-0.4-0.3-0.5-0.5c-0.2-0.2-0.3-0.4-0.5-0.5l-0.5-0.5h0.3l-0.9,0.5l-0.4,0.2c-0.2,0.1-0.3,0.2-0.5,0.2
			c-0.3,0.1-0.7,0.2-1,0.2h-0.3h-0.2c-0.2,0-0.3,0-0.5-0.1c-0.2,0-0.3-0.1-0.5-0.1c-0.2-0.1-0.3-0.1-0.5-0.2l-0.4-0.3
			c-0.1-0.1-0.3-0.2-0.4-0.3c-0.1-0.1-0.3-0.2-0.4-0.4c-0.1-0.1-0.2-0.3-0.3-0.4c-0.1-0.1-0.2-0.3-0.2-0.4
			C403.9,14.8,403.8,14.7,403.8,14.6z"/>
	</g>
</g>
</svg>
