<svg xmlns="http://www.w3.org/2000/svg" viewBox="0 0 811.55 385.66"><defs><style>.cls-1{fill:#c2cbe8;}.cls-2{fill:#88c279;}.cls-3{fill:#96a3c4;}.cls-4{fill:#1e966a;}.cls-5{fill:#292831;}.cls-6{fill:#e52421;}.cls-7{fill:#2d509f;}.cls-8{fill:#fff;}.cls-9{fill:#f3e600;}</style></defs><g id="Capa_2" data-name="Capa 2"><g id="Capa_1-2" data-name="Capa 1"><g id="M4Logotipo"><g id="Cocina"><path class="cls-1" d="M410.8,147.11c48.74,0,97.47.2,146.2-.19,8.46-.07,11.27,1.77,11.21,10.8-.4,64.55-.17,129.11-.25,193.67,0,21.08-11.57,32.64-33.46,33-20,.38-40,.09-60,.09H292.08c-27.7,0-38.91-11.12-38.92-38.35,0-62.47.19-124.95-.22-187.42-.07-9.24,2.12-12,11.65-11.87C313.34,147.36,362.07,147.11,410.8,147.11Z"/><path class="cls-2" d="M235.24,255.21v93.6c-.05,22.55-11.58,34.89-34,35.71-15,.54-30-.12-44.92.22-6.62.16-8.5-2.43-8.49-8.78q.24-110.43,0-220.9c0-7.21,3.24-8,9.06-7.94,23.29.2,46.59.37,69.88-.08,7.66-.15,8.73,3.06,8.68,9.58C235.1,189.49,235.24,222.35,235.24,255.21Z"/><path class="cls-2" d="M692.09,266.39c0-36.22.2-72.44-.15-108.66-.08-7.89,1.83-10.93,10.3-10.72,22,.56,44.13.42,66.19.06,7.17-.12,10.29,1.34,10.25,9.51-.33,64.95,0,129.9-.3,194.84-.08,20.08-11.23,31.84-31.36,33-15.77.89-31.63,0-47.44.36-8.9.22-7.46-5.71-7.47-10.94Q692.05,320.11,692.09,266.39Z"/><path class="cls-2" d="M673.54,266c0,35.79-.22,71.57.17,107.35.09,8.43-2,11.93-11,11.44-13.28-.71-26.62-.34-39.94-.15-21.37.3-35.89-13.45-35.5-35.29,1.11-63.22.56-126.48.2-189.72-.05-9.23,1.5-13.2,12-12.74,20.76.91,41.61.72,62.4.06,9.2-.29,12.08,2.19,11.93,11.71C673.2,194.47,673.54,230.26,673.54,266Z"/><path class="cls-3" d="M0,5.79C9-1,19.51.11,29.73.11Q395.84,0,761.94.11c16.6,0,33.29-1.06,49.61,3.32C806.13,18.79,795.05,25.2,779,25.2q-374.58-.09-749.16-.09C15.9,25.11,4.72,20.32,0,5.79Z"/><path class="cls-1" d="M567.42,85.3c.19,11.23-.19,22.5.76,33.67.75,8.83-3.07,10.27-10.72,10.23-51.64-.24-103.28-.12-154.92-.12-45.4,0-90.8-.45-136.18.32-11.56.19-14.43-3.43-13.36-14.05,1-9.9.59-19.94.79-29.91,4.47-4.83,10.46-4.11,16-4,12.6.24,25.28-1.41,37.78,1.26,4,1.35,5.17,5,6.6,8.35,2.81,6.65,7.41,10.64,15,10.6s12-4.29,14.79-10.9c1.26-3,2.28-6.23,5.67-7.71,14.39-2.63,28.79-2.34,43.18-.25,4.34,1.58,5.48,5.77,7.39,9.3,3.4,6.28,8.28,10,15.75,9.5,7-.5,11.1-4.49,13.29-10.9,1.06-3.08,2.1-6.26,5.53-7.71a146.27,146.27,0,0,1,45.61-.16c4.47,1.75,4.93,6.23,6.73,9.85,5.9,11.81,19.07,12.49,26.5,1.37,2.7-4,3.78-9.34,9.11-11.29C537.76,81.69,552.9,78,567.42,85.3Z"/><path class="cls-3" d="M309.88,85.29l-56.09.15c-.19-11.22-.07-22.45-.7-33.64-.39-7.07,3-8.19,9-8.19q148.49.18,297,0c7.25,0,9.44,2.39,9,9.34-.61,10.78-.47,21.6-.65,32.4l-47.33-.06c-3.11.57-4.12-2-5.67-3.76-9.85-11.35-18.38-11.26-28,.31-1.3,1.56-2.33,3.39-4.67,3.55H433.68c-2.78-.42-3.77-2.85-5.33-4.68-8.52-10-17.83-10-26.62-.07-1.77,2-2.58,5.4-6.38,4.64l-47.15.06c-2.24-.29-3.6-1.81-5-3.37-10.6-11.83-17.72-11.83-28.31,0C313.47,83.47,312.11,85,309.88,85.29Z"/><path class="cls-2" d="M85.31,147.68c12.44-.16,24.88-.09,37.3-.57,6-.23,7.76,2,7.74,7.88q-.45,113.85-.56,227.69c-9.81,2.55-19.79.55-29.68,1.12-5.21.3-8.43-2.89-11.17-6.74-5.52-7.74-7.57-16.46-7.58-25.86q-.08-94.11,0-188.21C81.4,157.6,81.32,152.11,85.31,147.68Z"/><path class="cls-4" d="M85.31,147.68q0,100.86-.08,201.71c0,26.67,6.75,33.35,33.36,33.32h11.2c-22.92,4.25-46,4.16-68.31-2-13.09-3.6-18.18-15.81-18.24-28.6-.33-65.4-.1-130.8-.29-196.2,0-6.55,2.18-8.85,8.64-8.59C62.82,147.73,74.07,147.58,85.31,147.68Z"/><path class="cls-4" d="M85.11,128.11c-11.2.06-22.42-.12-33.61.27-6.57.24-8.62-2.4-8.54-8.76Q43.35,86,43,52.36c-.06-6,2.32-7.92,8.1-7.91q87.82.18,175.64,0c6.53,0,8.79,2.31,8.52,8.72-.46,10.77-.33,21.58-.44,32.37-2.86,2.82-6.57,3.34-10.26,3.34-20.9,0-41.81,1.14-62.68-.62A93.57,93.57,0,0,0,103,87.79c-11.17,0-14.72,5.91-14.32,16.61C89,112.3,91.19,121,85.11,128.11Z"/><path class="cls-2" d="M777.74,85.37c.25,12,.33,24.09.83,36.13.25,6.16-2.56,7.8-8.23,7.79q-87.33-.18-174.66.06c-7,0-8.38-2.89-8.14-9,.46-11.63.4-23.28.55-34.92a11,11,0,0,1,7.64-3.64c19.31-.31,38.66-2.39,57.86,1.3,15.1,15.87,43.51,16,58.11.11C733.81,81.18,756,77.45,777.74,85.37Z"/><path class="cls-4" d="M654.63,85.49H588.09c-.14-10,.2-20-.56-29.88-.67-8.73,2.39-11.33,11.14-11.25,43.22.41,86.44.19,129.66.19,13.72,0,27.44.22,41.14-.08,6.33-.14,9.08,2,8.79,8.56-.47,10.78-.38,21.58-.52,32.38l-66.82.13A215.16,215.16,0,0,0,654.63,85.49Z"/><path class="cls-2" d="M85.11,128.11c0-8.66.09-17.31.1-26,0-16.93,0-16.93,17.63-16.77,4.56,6.86,10.84,9.67,19.12,9a99.93,99.93,0,0,1,17.47,0c8.63.77,15.52-1.67,20.49-8.92l74.88.08c.14,12.07.14,24.14.5,36.19.15,5.11-1.29,7.67-6.92,7.59C180.63,128.59,132.86,130.32,85.11,128.11Z"/><path class="cls-5" d="M309.88,85.29C312.88,75.85,318.29,69,329,69s16.2,6.85,19.17,16.31c-2.66,14.61-8.58,20.9-19.77,20.33C315.74,105,311.05,96.64,309.88,85.29Z"/><path class="cls-5" d="M395.35,85.23C399.08,75.82,404.44,68.32,416,69c10.16.64,15.38,7,17.69,16.3-.88,11.5-5.57,19.83-18.34,20.23C401.66,106,397.36,96.6,395.35,85.23Z"/><path class="cls-5" d="M481.74,85.34c2.37-9.29,7.55-15.69,17.73-16.31,11.53-.71,16.91,6.77,20.62,16.21C518.4,93.91,516,102.11,506.17,105,493.47,108.71,484.37,101.34,481.74,85.34Z"/><path class="cls-5" d="M159.92,85.41c1.29,9.07-2.9,13.18-11.79,13.15-11.19,0-22.39-.11-33.57,0-9.13.1-12.82-4.37-11.72-13.21C121.87,77.43,140.9,77.24,159.92,85.41Z"/><path class="cls-5" d="M711.27,85.88c1.29,9.07-2.9,13.18-11.79,13.15-11.19,0-22.39-.11-33.57,0-9.13.1-12.82-4.37-11.72-13.21C673.22,77.9,692.25,77.71,711.27,85.88Z"/></g><g id="Tricolor"><path id="Rojo" class="cls-6" d="M261.62,296.27H559.33V358.2a10,10,0,0,1-10,10H271.62a10,10,0,0,1-10-10Z"/><g id="Azul"><rect id="PAzul" class="cls-7" x="261.62" y="224.34" width="297.71" height="71.93"/><g id="E-Superior"><polygon class="cls-8" points="410.52 247.25 408.56 241.34 402.33 241.49 407.35 237.8 405.29 231.92 410.35 235.55 415.3 231.78 413.41 237.71 418.53 241.25 412.31 241.29 410.52 247.25"/><polygon class="cls-8" points="390.92 251.69 386.59 247.21 381.05 250.04 383.96 244.54 379.56 240.15 385.69 241.22 388.51 235.67 389.39 241.83 395.54 242.8 389.94 245.54 390.92 251.69"/><polygon class="cls-8" points="375.19 264.18 369.35 262.03 365.58 266.99 365.82 260.77 359.94 258.72 365.94 257.02 366.07 250.8 369.53 255.97 375.49 254.18 371.64 259.07 375.19 264.18"/><polygon class="cls-8" points="366.44 282.27 360.24 282.86 359 288.97 356.52 283.25 350.33 283.96 354.99 279.83 352.41 274.17 357.78 277.33 362.37 273.12 361.02 279.2 366.44 282.27"/><polygon class="cls-8" points="454.46 282.44 459.79 279.21 458.26 273.17 462.98 277.24 468.25 273.92 465.83 279.67 470.62 283.65 464.41 283.13 462.1 288.91 460.68 282.85 454.46 282.44"/><polygon class="cls-8" points="445.78 264.32 449.18 259.1 445.19 254.32 451.2 255.94 454.5 250.67 454.82 256.89 460.86 258.4 455.05 260.63 455.47 266.84 451.56 262 445.78 264.32"/><polygon class="cls-8" points="430.1 251.76 430.9 245.59 425.23 243.02 431.34 241.87 432.04 235.68 435.02 241.15 441.12 239.89 436.84 244.42 439.92 249.83 434.3 247.16 430.1 251.76"/></g></g><path id="Amarillo" class="cls-9" d="M269.58,152.42H551.29a8,8,0,0,1,8,8v63.93H261.58V160.42A8,8,0,0,1,269.58,152.42Z"/></g></g></g></g></svg>