<svg xmlns="http://www.w3.org/2000/svg" viewBox="0 0 445.92 52.59"><g id="Capa_2" data-name="Capa 2"><g id="Capa_1-2" data-name="Capa 1"><path d="M32.06,51.36c-2,0-4.64,0-7.87-.14l-7.88-.17L5.8,50.91c-1,0-2.57,0-4.53-.14-.68-.12-1-.48-1-1.09q0-3.84.12-11.48T.49,26.72q0-4.08-.24-12.22C.08,9.08,0,5,0,2.29q0-.78,1.05-.78c.71,0,1.76,0,3.15.11s2.43.1,3.11.1,1.92,0,3.45-.12,2.67-.12,3.44-.12c.35,0,.52.22.5.66l0,.46q-.42,6.62-.95,19.86l0,9.29q0,4.5,0,6.57c0,.28,0,.56.07.84s.2.46.53.53h.91q3.16,0,9.48-.33T34.17,39c.63,0,.95.27.95.81a52.78,52.78,0,0,1-.88,10.37c-.12.61-.36,1-.74,1.09A6.9,6.9,0,0,1,32.06,51.36Z"/><path id="A1_Mod" data-name="A1 Mod" d="M74.21,33.19c0,1.8.11,4.49.32,8.05s2,7.39,2,9.17c0,.94-2.35,1.59-3.17,1.66-2.91.21-6-1-9.7-1-.44,0-.74-.67-.89-2s-.34-2-.55-2.06a3.7,3.7,0,0,0-.74.6q-3.93,4-8.43,4a14.15,14.15,0,0,1-11.36-5.41,18.16,18.16,0,0,1-4.25-12.09q0-8.13,4.39-13.08,4.58-5.13,12.52-5.13A10.72,10.72,0,0,1,63,19.72q.14.18.24.18.31,0,.72-1.71c.27-1.13.59-1.7,1-1.7.87,0,3-1.13,5.48-.63s4.51.05,5.51.38c.36.14,1,3.38,1,3.61s-1.58-.53-1.65-.13A77.28,77.28,0,0,0,74.21,33.19Zm-11.32.21A6.81,6.81,0,0,0,61,28.46a7.15,7.15,0,0,0-9.79,0,6.86,6.86,0,0,0-1.86,5,6.8,6.8,0,0,0,2,4.89,6.41,6.41,0,0,0,4.78,2,6.54,6.54,0,0,0,4.89-2A6.85,6.85,0,0,0,62.89,33.4Z"/><path id="A2_Mod" data-name="A2 Mod" d="M443.14,33.19c0,1.8.11,4.49.32,8.05s2,7.39,2,9.17c0,.94-2.35,1.59-3.17,1.66-2.91.21-5.95-1-9.7-1-.44,0-.74-.67-.89-2s-.34-2-.55-2.06a3.7,3.7,0,0,0-.74.6q-3.93,4-8.43,4a14.15,14.15,0,0,1-11.36-5.41,18.16,18.16,0,0,1-4.25-12.09q0-8.13,4.39-13.08,4.57-5.13,12.52-5.13A10.68,10.68,0,0,1,432,19.72c.1.12.18.18.25.18s.45-.57.72-1.71.59-1.7,1-1.7c.87,0,3-1.13,5.48-.63s4.51.05,5.51.38c.36.14,1,3.38,1,3.61s-1.58-.53-1.65-.13A77.28,77.28,0,0,0,443.14,33.19Zm-11.32.21a6.81,6.81,0,0,0-1.88-4.94,7.15,7.15,0,0,0-9.79,0,6.86,6.86,0,0,0-1.86,5,6.76,6.76,0,0,0,2,4.89,6.41,6.41,0,0,0,4.78,2,6.54,6.54,0,0,0,4.89-2A6.85,6.85,0,0,0,431.82,33.4Z"/><path d="M151.88,49.68c0,.72-.34,1.09-1,1.09H138.41q-1,0-1-1.23,0-3.55.26-10.66t.27-10.65c0-.68-.11-1-.32-1.09q-.39.21-4.71,10.86-2.53,6.27-5.06,12.48c-.24.54-.53.86-.88,1a11.48,11.48,0,0,1-1.41,0c-1.22,0-1.94-.24-2.18-.7q-1.89-3.87-5-11.25-3.3-7.82-5-11.29a1,1,0,0,0-.31-.39,1.63,1.63,0,0,0-.25,1q0,3.45.18,10.34t.17,10.34c0,.82-.33,1.23-1,1.23H100.48c-.47,0-.76-.08-.86-.23a1.44,1.44,0,0,1-.16-.79q0-3.84.37-11.52c.24-5.12.37-9,.37-11.51q0-4.08-.36-15.29c0-1.95-.13-4.84-.31-8.69l0-.6c0-.46.47-.7,1.48-.7,1.29,0,3.22,0,5.8-.12s4.51-.12,5.8-.12c.26,0,.62.49,1.09,1.47l10.27,22.54c.72,1.52,1.33,2.28,1.82,2.28.26,0,.81-.88,1.66-2.63Q131,17.47,137.92,2.6c.4-.91.83-1.37,1.3-1.37.68,0,1.7,0,3.07.11s2.41.1,3.12.1,1.48-.06,2.69-.17,2.1-.18,2.69-.18,1.05.28,1.05.84q0,4.16-.3,12.4t-.3,12.39c0,2.55.11,6.39.32,11.49S151.88,47.14,151.88,49.68Z"/><path id="E2_Mod" data-name="E2 Mod" d="M190.37,31.68q0,3.54-2.28,4c-.26.05-2.69.3-7.28.77q-4.16.46-12.38,1.09a5,5,0,0,0,3,3.48,10.51,10.51,0,0,0,4.64,1,13.36,13.36,0,0,0,6.3-1.69L185,38.67c.49.24,1.32,1.43,2.48,3.59,2.1,3.91,2.48,2.71,4,5.33.83,1.47.9,3,.55,3.39-2.86,3.07-10.6.81-16.63.81q-8.35,0-13.5-4.89t-5.27-13.26q0-8.09,4.71-13.25,4.86-5.34,12.87-5.34A15.27,15.27,0,0,1,185.66,20,16.35,16.35,0,0,1,190.37,31.68Zm-12.3-2.15a5.44,5.44,0,0,0-1.55-3.83,4.88,4.88,0,0,0-3.69-1.65,4.44,4.44,0,0,0-3.66,1.86,6.41,6.41,0,0,0-1.33,4c0,.64.32.95,1,.95a61.81,61.81,0,0,0,8.09-.81C177.68,30,178.07,29.79,178.07,29.53Z"/><path id="E1_Mod" data-name="E1 Mod" d="M273.66,31.27c0,2.37-.77,3.72-2.29,4.05-.26,0-2.68.3-7.28.77q-4.14.46-12.37,1.09a5,5,0,0,0,3,3.48,10.47,10.47,0,0,0,4.64,1A13.35,13.35,0,0,0,265.64,40l2.67-1.69q.74.34,2.48,3.59c2.1,3.9,2.49,2.71,4,5.33.82,1.47.9,3,.55,3.39-2.86,3.07-10.61.8-16.63.8q-8.37,0-13.5-4.88-5.28-5-5.27-13.26,0-8.09,4.71-13.25,4.84-5.34,12.86-5.34A15.31,15.31,0,0,1,269,19.57,16.34,16.34,0,0,1,273.66,31.27Zm-12.31-2.14a5.4,5.4,0,0,0-1.55-3.83,4.88,4.88,0,0,0-3.69-1.65,4.44,4.44,0,0,0-3.65,1.86,6.4,6.4,0,0,0-1.34,4c0,.63.33.95,1,.95a61.54,61.54,0,0,0,8.08-.81C261,29.58,261.35,29.39,261.35,29.13Z"/><path d="M217.55,28.86c0,.92-.51,1.37-1.51,1.37-.45,0-1.1,0-2-.08s-1.49-.09-1.91-.09c-1.95,0-3.27.3-4,.91s-1.06,1.84-1.06,3.69c0,1,0,2.54.05,4.59s.06,3.58.06,4.59c0,.68,0,1.69.14,3s.14,2.35.14,3-.39.88-1.16,1c-1.13.09-2.85.14-5.17.14s-4-.07-5.34-.21c-.78-.1-1.16-.48-1.16-1.16q0-2.82,0-8.42c0-3.74,0-6.55,0-8.42a51,51,0,0,0-1.52-13.61,3.1,3.1,0,0,1-.07-.53.69.69,0,0,1,.53-.7q1.93-.21,5.66-.77,5.55-1.1,5.73-1.09c.42,0,.69.73.81,2.21s.33,2.22.63,2.22c-.33,0,.64-.62,2.89-1.85a13.54,13.54,0,0,1,6.5-1.85c1.31,0,2,.29,2,.85a27.51,27.51,0,0,1-.21,2.88c-.14,1.34-.23,2.3-.25,2.88s0,1.59,0,2.71C217.52,27.5,217.55,28.42,217.55,28.86Z"/><path id="I1_Mod" data-name="I1 Mod" d="M234.67,34.63q0,2.57.1,7.65t.11,7.61c0,.49-.29.78-.88.88a41.08,41.08,0,0,1-5.38.21,41.34,41.34,0,0,1-5.41-.21c-.52-.1-.83-.25-1-.46a4,4,0,0,1-.07-1.06q0-2.41.1-7.29t.11-7.33a127.3,127.3,0,0,0-.78-15.89c0-.38-.07-.62-.07-.74,0-.47.32-.7.95-.7s1.66.07,3,.21,2.36.21,3,.21,1.7-.06,3.06-.18,2.38-.17,3.06-.17.84.23.84.7a6.09,6.09,0,0,1-.07.67A145,145,0,0,0,234.67,34.63ZM237.38,9c-.68,4-4.09,5.61-8.69,5.61a7.59,7.59,0,0,1-4.89-1.54,5.56,5.56,0,0,1-2.1-4.57A5.5,5.5,0,0,1,223.88,4c1.33-1.08,2.78-2.27,4.65-2.34,3.2-.1,5.17-.53,8.21,1.23C240.15,4.86,237.69,7.18,237.38,9Z"/><path id="I2_Mod" data-name="I2 Mod" d="M373.82,34.59q0,2.56.1,7.65t.11,7.61c0,.49-.3.78-.88.88a41.08,41.08,0,0,1-5.38.21,41.34,41.34,0,0,1-5.41-.21c-.52-.1-.84-.25-.95-.46a3.8,3.8,0,0,1-.07-1.05q0-2.43.1-7.3c.07-3.24.11-5.69.11-7.33a127.41,127.41,0,0,0-.78-15.89c0-.37-.07-.62-.07-.74,0-.47.32-.7.95-.7s1.66.07,3,.21,2.36.21,3,.21,1.7-.06,3.06-.17,2.38-.18,3.06-.18.84.23.84.7a5.87,5.87,0,0,1-.07.67A142.56,142.56,0,0,0,373.82,34.59ZM376.53,9c-.68,4-4.1,5.62-8.69,5.62A7.59,7.59,0,0,1,363,13a5.56,5.56,0,0,1-2.11-4.57A5.53,5.53,0,0,1,363,4c1.34-1.08,2.79-2.27,4.66-2.33,3.2-.11,5.17-.54,8.21,1.22C379.29,4.83,376.84,7.14,376.53,9Z"/><path d="M312.47,49.75a1,1,0,0,1-1,1.09c-.65.09-2.36.14-5.13.14a40.22,40.22,0,0,1-5.48-.21,1.29,1.29,0,0,1-1.06-1.45c0-1.1,0-2.76.11-5s.1-3.9.1-5c0-.86,0-2.16-.07-3.88s-.07-3-.07-3.88c0-3.22-1.39-4.82-4.18-4.82a6.17,6.17,0,0,0-3.2,1.19c-1.31.89-2,1.77-2,2.64v19a1.15,1.15,0,0,1-1.09,1.3c-.82.09-2.49.14-5,.14a41.07,41.07,0,0,1-5.34-.21c-.73-.12-1.09-.51-1.09-1.16q0-2.74,0-8.27t0-8.29a54.42,54.42,0,0,0-1.37-13.75,2.34,2.34,0,0,1-.07-.53.77.77,0,0,1,.53-.77q2.21-.24,5.9-.77,5.59-1.1,6.3-1.09c.25,0,.45.79.59,2.37s.34,2.37.6,2.37q-.39,0,3.78-2.44a14.94,14.94,0,0,1,7.3-2.44,12.58,12.58,0,0,1,7.45,2.11,7.85,7.85,0,0,1,3.34,6.75V36.07q0,2.28,0,6.84T312.47,49.75Z"/><path d="M355.61.88c0-.52-.1.26-.29,2.32q-.37,3.9-.59,10-.28,6.9-.28,15.68a181.64,181.64,0,0,0,.8,20.68c.05.44.07.72.07.84s-.17.41-.52.46c-.85.11-3.95.17-9.32.17-1.27,0-2-.24-2.18-.74l-.14-2.67a1.06,1.06,0,0,0-.28-.56,2.26,2.26,0,0,0-.53.42,13,13,0,0,1-9.49,3.73A14.86,14.86,0,0,1,321,46a18.5,18.5,0,0,1-4.26-12.51q0-7.66,4.19-12.62a14.78,14.78,0,0,1,11.95-5.28A10.4,10.4,0,0,1,341.12,19c.33.37.56.56.7.56s.32-.3.32-.91c0-1.81-.05-4.5-.14-8.09s-.14-6.27-.14-8c0-.68.19-1.07.56-1.16q2.25-.11,6.19-.42,7-.89,6.22-.88C355.35,0,355.61.29,355.61.88ZM342.35,33.19a6.94,6.94,0,0,0-1.93-4.87,6.12,6.12,0,0,0-4.68-2.09,5.61,5.61,0,0,0-4.59,2.09,7.69,7.69,0,0,0-1.7,5,7,7,0,0,0,1.72,4.81,5.66,5.66,0,0,0,4.57,2.11,6.05,6.05,0,0,0,4.71-2.11A7.12,7.12,0,0,0,342.35,33.19Z"/><path d="M404.12,40.46a30,30,0,0,1-.26,3.2,28.16,28.16,0,0,0-.27,3.15,2.44,2.44,0,0,1-.21,1.28,4,4,0,0,1-1.16.81,20.41,20.41,0,0,1-10.05,2.5Q382,51.4,382,43.63c0-1.55.06-3.87.17-7s.18-5.43.18-7c0-1-.6-1.55-1.79-1.55h-.46a3.38,3.38,0,0,1-.46,0c-.89,0-1.33-.32-1.33-.95,0-.37,0-.95.08-1.72s.09-1.35.09-1.72,0-1.25-.09-2.25-.08-1.76-.08-2.25.75-.73,2.25-.78c.84,0,1.3-.26,1.37-.7a26.89,26.89,0,0,0,.14-4.22c-.1-3-.14-4.46-.14-4.32,0-2.72.26-4.08.77-4.08a12.64,12.64,0,0,1,2.71.42,27,27,0,0,0,2.78.53c1.19.16,3,.38,5.41.67.59,0,.88.24.88.59,0,.94-.08,2.36-.23,4.26S394,15,394,15.93c0,1.14.34,1.72,1,1.72s2.06,0,3.73-.11,2.92-.1,3.76-.1c.51,0,.77.17.77.52,0,.54-.06,1.35-.17,2.43a24.12,24.12,0,0,0-.18,2.43c0,.56,0,1.38,0,2.46s0,1.9,0,2.46-.34.74-1,.74c-.47,0-1.25,0-2.35-.06l-2.36-.05h-2.64c-.35,0-.52.52-.52,1.55v2.49c0,1.13,0,2,0,2.5a8.64,8.64,0,0,0,.67,4.08c.63,1,1.87,1.51,3.73,1.51a11.29,11.29,0,0,0,2.51-.4,11.44,11.44,0,0,1,2.3-.41C403.88,39.69,404.12,40,404.12,40.46Z"/></g></g></svg>