<svg xmlns="http://www.w3.org/2000/svg" viewBox="0 0 789.5 136.25"><defs><style>.cls-1{fill:#1d1d1b;}.cls-2{fill:#334b5e;}.cls-3{fill:#fff;}.cls-4{fill:#adb4bb;}.cls-5{fill:#cfd6e0;}</style></defs><g id="Capa_2" data-name="Capa 2"><g id="Capa_1-2" data-name="Capa 1"><g id="M4Logotipo"><g id="LaMeriendita"><path id="A2_Mod" data-name="A2 Mod" class="cls-1" d="M784.5,86.1c0,4.7.2,11.6.6,20.8s3.5,19.1,3.5,23.7c0,2.4-4.2,4.1-5.6,4.3-5.2.6-10.5-2.6-17.2-2.6-.8,0-1.3-1.7-1.6-5.2s-.6-5.3-1-5.3a10.1,10.1,0,0,0-1.3,1.6c-4.7,6.9-9.6,10.3-14.9,10.3-8.1,0-14.8-4.7-20.1-14-5-8.7-7.5-19.1-7.5-31.3,0-14,2.6-25.3,7.8-33.8,5.4-8.9,12.8-13.3,22.2-13.3,6.5,0,11.7,3.3,15.4,10,.2.3.3.5.4.5.4,0,.8-1.5,1.3-4.4s1-4.4,1.7-4.4c1.5,0,5.4-2.9,9.7-1.6,4.1,1.2,8,.2,9.8,1,.6.4,1.8,8.7,1.8,9.3,0,.2-2.8-1.4-2.9-.3A286.06,286.06,0,0,0,784.5,86.1Zm-20,.6c0-5.1-1.1-9.4-3.3-12.8s-5.1-5-8.7-5-6.5,1.7-8.7,5-3.3,7.6-3.3,12.8A22.22,22.22,0,0,0,744,99.3c2.3,3.5,5.1,5.3,8.5,5.3s6.4-1.7,8.7-5,3.3-7.6,3.3-12.9Z"/><path id="T" class="cls-1" d="M715.4,104.9c0,1.8-.2,4.6-.5,8.3s-.5,6.4-.5,8.1a7.51,7.51,0,0,1-.4,3.3,10.45,10.45,0,0,1-2.1,2.1,27.68,27.68,0,0,1-17.8,6.5q-18,0-18-20.1c0-4,.1-10,.3-18.1s.3-14,.3-18c0-2.7-1.1-4-3.2-3.8h-.8a2.2,2.2,0,0,0-.8-.1,2.22,2.22,0,0,1-2.4-1.8v-.6a42.33,42.33,0,0,1,.2-4.5,42.33,42.33,0,0,0,.2-4.5c0-1.3,0-3.2-.2-5.8s-.2-4.5-.2-5.8,1.3-1.9,4-2q2.25-.15,2.4-1.8a79.34,79.34,0,0,0,.2-10.9c-.2-7.8-.2-11.5-.2-11.2,0-7,.5-10.5,1.4-10.5a16,16,0,0,1,4.8,1.1,39.43,39.43,0,0,0,4.9,1.4c2.1.4,5.3,1,9.6,1.7,1,.1,1.6.6,1.6,1.5,0,2.4-.1,6.1-.4,11s-.4,8.6-.4,11.1q0,4.5,1.8,4.5,2.25,0,6.6-.3c2.9-.2,5.2-.3,6.7-.3a1.25,1.25,0,0,1,1.4,1v.3q0,2.1-.3,6.3t-.3,6.3c0,1.4,0,3.6.1,6.4s.1,4.9.1,6.4c0,1.3-.6,1.9-1.8,1.9-.8,0-2.2-.1-4.2-.1s-3.3-.1-4.2,2h-4.7c-.6-2.1-.9-.8-.5,1.9v6.4a35,35,0,0,0-.3,6.5q0,7.65,1.2,10.5,1.65,3.9,6.6,3.9a14.6,14.6,0,0,0,4.5-1,14.48,14.48,0,0,1,4.1-1C715,102.9,715.4,103.6,715.4,104.9Z"/><path id="I2_Mod" data-name="I2 Mod" class="cls-1" d="M661.8,89.7c0,4.4.1,11,.2,19.8s.2,15.3.2,19.7a2,2,0,0,1-1.6,2.3c-1.4.4-4.6.5-9.5.5a60.26,60.26,0,0,1-9.6-.5,2.3,2.3,0,0,1-1.7-1.2,12.21,12.21,0,0,1-.1-2.7c0-4.2.1-10.5.2-18.9s.2-14.7.2-19c0-17.2-.5-30.9-1.4-41.1a17.67,17.67,0,0,1-.1-1.9c0-1.2.6-1.8,1.7-1.8a45.34,45.34,0,0,1,5.3.5,29.41,29.41,0,0,0,10.8,0,49.26,49.26,0,0,1,5.4-.5q1.5,0,1.5,1.8a14.89,14.89,0,0,1-.1,1.7C662.2,60.5,661.8,74.2,661.8,89.7Zm4.8-66.2C665.4,33.9,659.4,38,651.2,38a11,11,0,0,1-8.7-4c-2.5-2.9-3.7-6.8-3.7-11.8a16.85,16.85,0,0,1,3.9-11.6c2.4-2.8,4.9-5.9,8.2-6,5.7-.3,9.2-1.4,14.5,3.2C671.5,12.8,667.1,18.7,666.6,23.5Z"/><path id="D" class="cls-1" d="M629.5,2.6c0-1.3-.2.7-.5,6-.5,6.7-.8,15.3-1.1,25.8-.3,11.9-.5,25.4-.5,40.5,0,25,.5,42.8,1.4,53.5.1,1.1.1,1.9.1,2.2a1,1,0,0,1-.9,1.2h0c-1.5.3-7,.5-16.5.5-2.2,0-3.5-.6-3.9-1.9l-.2-6.9a3.36,3.36,0,0,0-.5-1.4,3.13,3.13,0,0,0-.9,1.1q-6.75,9.6-16.8,9.6c-8.8,0-15.8-4.5-21-13.4-5-8.6-7.5-19.3-7.5-32.4s2.4-24.1,7.3-32.6c5.2-9.1,12.3-13.6,21.2-13.6,6.3,0,11.1,2.9,14.6,8.7q.9,1.5,1.2,1.5c.2,0,.6-.8.6-2.4,0-4.7-.1-11.6-.2-20.9s-.2-16.2-.2-20.8c0-1.8.3-2.8,1-3,2.7-.2,6.3-.5,11-1.1,8.3-1.5,11.9-2.3,11-2.3C629.1.3,629.5,1,629.5,2.6ZM606.1,86.1a23.42,23.42,0,0,0-3.4-12.6c-2.3-3.6-5-5.4-8.3-5.4s-6.1,1.8-8.1,5.4a26.72,26.72,0,0,0-3,13,23.27,23.27,0,0,0,3,12.4c2.1,3.6,4.8,5.5,8.1,5.5s6.1-1.8,8.3-5.5A23.86,23.86,0,0,0,606.1,86.1Z"/><path id="N" class="cls-1" d="M553.1,129.2c0,1.6-.6,2.6-1.8,2.8a69.28,69.28,0,0,1-9.1.4c-5.3,0-8.5-.2-9.8-.6s-1.9-1.6-1.9-3.8c0-2.9.1-7.2.2-13s.2-10.2.2-13.1c0-2.2,0-5.6-.1-10.1s-.1-7.8-.1-10.1c0-8.4-2.5-12.5-7.5-12.5-1.6,0-3.5,1-5.7,3.1-2.3,2.3-3.5,4.6-3.5,6.9v49.4c0,2-.6,3.1-1.9,3.4-3,.3-6,.4-9,.4-4.9,0-8.1-.2-9.5-.6s-1.9-1.3-1.9-3c0-4.8,0-11.9.1-21.5s.1-16.8.1-21.6c0-15.2-.8-27.1-2.4-35.8a6.6,6.6,0,0,1-.1-1.4,2.15,2.15,0,0,1,.9-2c2.6-.4,6.1-1.1,10.5-2,6.7-1.9,10.4-2.8,11.2-2.8.5,0,.8,2.1,1.1,6.2s.6,6.2,1.1,6.2c-.4,0,1.8-2.1,6.7-6.3s9.3-6.4,13-6.4a18,18,0,0,1,13.3,5.5c4,4.2,6,10.1,6,17.6V93.6c0,4,0,9.9.1,17.8C553.1,119.3,553.1,125.2,553.1,129.2Z"/><path id="E2_Mod" data-name="E2 Mod" class="cls-1" d="M337,82.2c0,6.1-1.3,9.6-4,10.5-.5.1-4.8.8-12.9,2-4.9.8-12.2,1.7-21.9,2.8a12.68,12.68,0,0,0,5.3,9,13.47,13.47,0,0,0,8.2,2.5c3.7,0,7.4-1.5,11.1-4.4l4.7-4.4c.9.6,2.3,3.7,4.4,9.3,3.7,10.1,4.4,7,7,13.8,1.5,3.8,1.6,7.8,1,8.8-5.1,7.9-18.8,2.1-29.4,2.1-9.9,0-17.9-4.2-23.9-12.6-6.2-8.5-9.3-20-9.3-34.3,0-13.9,2.8-25.4,8.4-34.3q8.55-13.8,22.8-13.8c8,0,14.8,4.2,20.3,12.7C334.1,60.4,336.9,70.5,337,82.2Zm-21.8-5.5a18.23,18.23,0,0,0-2.7-9.9c-1.8-2.9-4-4.3-6.5-4.3s-4.7,1.6-6.5,4.8a22.12,22.12,0,0,0-2.3,10.5q0,2.4,1.8,2.4c3.1,0,7.8-.7,14.3-2.1,1.2-.3,1.9-.8,1.9-1.4Z"/><path id="I1_Mod" data-name="I1 Mod" class="cls-1" d="M415.4,89.8c0,4.4.1,11,.2,19.8s.2,15.3.2,19.7a2,2,0,0,1-1.6,2.3c-1.4.4-4.6.6-9.5.6s-8.2-.2-9.6-.6a2.3,2.3,0,0,1-1.7-1.2,12.21,12.21,0,0,1-.1-2.7c0-4.2.1-10.5.2-18.9s.2-14.7.2-19c0-17.2-.5-30.9-1.4-41.1a17.67,17.67,0,0,1-.1-1.9c0-1.2.6-1.8,1.7-1.8a45.34,45.34,0,0,1,5.3.5,29.41,29.41,0,0,0,10.8,0,49.26,49.26,0,0,1,5.4-.5q1.5,0,1.5,1.8a14.89,14.89,0,0,1-.1,1.7C415.8,60.5,415.4,74.3,415.4,89.8Zm4.8-66.2C419,34,412.9,38.1,404.8,38.1a10.7,10.7,0,0,1-8.6-4c-2.5-2.9-3.7-6.9-3.7-11.8a16.85,16.85,0,0,1,3.9-11.6c2.4-2.8,4.9-5.9,8.2-6,5.7-.3,9.1-1.4,14.5,3.2C425.1,12.9,420.7,18.8,420.2,23.6Z"/><path id="R" class="cls-1" d="M385.1,74.9q0,3.6-2.7,3.6c-.8,0-1.9-.1-3.5-.2s-2.7-.2-3.4-.2c-3.4,0-5.8.8-7,2.4s-1.9,4.8-1.9,9.5c0,2.6,0,6.6.1,11.9s.1,9.3.1,11.9c0,1.8.1,4.4.2,7.9s.2,6.1.2,7.8a2.09,2.09,0,0,1-1.9,2.4h-.2c-3,.3-6.1.4-9.1.4a50.55,50.55,0,0,1-9.5-.6q-2.1-.3-2.1-3c0-4.8,0-12.1.1-21.8s.1-16.9,0-21.8c0-14.2-.9-26-2.7-35.2a6.6,6.6,0,0,1-.1-1.4,1.83,1.83,0,0,1,.9-1.8c2.3-.4,5.6-1,10-2,6.6-1.9,9.9-2.8,10.1-2.8.8,0,1.2,1.9,1.4,5.7s.6,5.7,1.1,5.7q-.9,0,5.1-4.8c4-3.2,7.8-4.8,11.5-4.8,2.3,0,3.5.7,3.5,2.2,0,1.8-.1,4.2-.4,7.5-.2,3.5-.4,5.9-.4,7.5,0,1.8,0,4.1.1,7A67.23,67.23,0,0,1,385.1,74.9Z"/><path id="E1_Mod" data-name="E1 Mod" class="cls-1" d="M484.4,81.2c0,6.1-1.4,9.6-4,10.4-.4.1-4.7.8-12.9,2-4.9.8-12.2,1.7-21.9,2.8a12.68,12.68,0,0,0,5.3,9,14.26,14.26,0,0,0,8.2,2.6c3.7,0,7.4-1.5,11.1-4.4l4.7-4.4c.9.6,2.3,3.7,4.4,9.3,3.7,10.1,4.4,7,7,13.8,1.5,3.8,1.6,7.8,1,8.8-5.1,7.9-18.8,2.1-29.4,2.1-9.9,0-17.8-4.2-23.9-12.6s-9.3-20-9.3-34.3c0-13.9,2.8-25.4,8.3-34.3q8.55-13.8,22.8-13.8c8,0,14.8,4.2,20.3,12.7S484.4,69.5,484.4,81.2Zm-21.8-5.6a18.23,18.23,0,0,0-2.7-9.9c-1.8-2.8-4-4.3-6.5-4.3s-4.8,1.6-6.5,4.8a23.34,23.34,0,0,0-2.4,10.4c0,1.6.6,2.5,1.7,2.5,3.1,0,7.8-.7,14.3-2.1,1.5-.2,2.1-.7,2.1-1.4Z"/><path id="M" class="cls-1" d="M268.8,129.8c0,1.9-.6,2.8-1.8,2.8H245c-1.2,0-1.8-1.1-1.8-3.2,0-6.1.2-15.3.5-27.6s.5-21.4.4-27.6c0-1.8-.2-2.7-.6-2.8-.5.4-3.2,9.7-8.4,28.1-3,10.8-6,21.5-9,32.3-.4,1.4-.9,2.2-1.6,2.5a20.9,20.9,0,0,1-2.5.1q-3.15,0-3.9-1.8c-2.2-6.7-5.2-16.4-8.8-29.1-3.9-13.4-6.8-23.2-8.8-29.2a2.07,2.07,0,0,0-.6-1,5.69,5.69,0,0,0-.4,2.6c0,5.9.1,14.9.3,26.7s.3,20.8.3,26.7c0,2.1-.6,3.2-1.7,3.2H177.6q-1.2,0-1.5-.6c-.2-.4-.1-18.6.4-31.8s.6-23.2.6-29.8c0-7-.2-20.2-.6-39.5q0-7.5-.6-22.5l-.1-1.5c-.1-1.2.8-1.8,2.6-1.8,2.3,0,5.7-.1,10.3-.3s8-.3,10.3-.3c.5,0,1.1,1.3,1.9,3.8l18.2,58.3c1.3,3.9,2.4,5.9,3.2,5.9.4,0,1.4-2.3,2.9-6.8q6.3-19,18.6-57.5c.7-2.4,1.5-3.6,2.3-3.6,1.2,0,3,.1,5.5.3s4.3.3,5.5.3c1.6-.1,3.2-.2,4.7-.4a39.06,39.06,0,0,1,4.8-.5c1.2,0,1.9.7,1.9,2.2,0,7.2-.2,17.8-.5,32s-.5,24.9-.5,32q0,9.9.6,29.7C268.5,113.3,268.8,123.3,268.8,129.8Z"/><path id="A1_Mod" data-name="A1 Mod" class="cls-1" d="M131.3,86.1c0,4.7.2,11.6.6,20.8s3.5,19.1,3.5,23.7c0,2.4-4.2,4.1-5.6,4.3-5.1.6-10.5-2.6-17.2-2.6-.8,0-1.3-1.7-1.6-5.2s-.6-5.3-1-5.3a5.09,5.09,0,0,0-1.3,1.6c-4.7,6.9-9.6,10.3-14.9,10.3-8.1,0-14.8-4.7-20.1-14-5-8.7-7.5-19.2-7.5-31.3,0-14,2.6-25.3,7.8-33.8,5.4-8.9,12.8-13.3,22.2-13.3,6.5,0,11.7,3.3,15.4,10,.2.3.3.5.4.5.4,0,.8-1.5,1.3-4.4s1-4.4,1.7-4.4c1.5,0,5.4-2.9,9.7-1.6,4.1,1.2,8,.2,9.8,1,.6.4,1.8,8.7,1.8,9.3,0,.2-2.8-1.4-2.9-.3A250.64,250.64,0,0,0,131.3,86.1Zm-20.1.6c0-5.1-1.1-9.4-3.3-12.8s-5.1-5-8.7-5-6.5,1.7-8.7,5-3.3,7.6-3.3,12.8a22.22,22.22,0,0,0,3.5,12.6c2.3,3.5,5.1,5.3,8.5,5.3s6.4-1.7,8.7-5S111.2,92,111.2,86.7Z"/><path id="L" class="cls-1" d="M55,133.5c-3.5,0-8-.1-13.5-.4L28,132.7l-18-.4a67.92,67.92,0,0,1-7.8-.4q-1.8-.45-1.8-2.7c0-6.4.1-16,.2-28.8S.8,78,.8,71.6C.8,64.8.7,54.6.4,41S0,17.3,0,10.5C0,9.2.6,8.6,1.8,8.6s3,.1,5.4.3,4.2.3,5.3.3c1.3,0,3.3-.1,5.9-.3s4.6-.3,5.9-.3c.6,0,.9.6.8,1.7L25,11.4c-.5,11-1,27.6-1.6,49.8l-.1,23.2c0,7.5,0,13,.1,16.5l.1,2.1a1.29,1.29,0,0,0,.9,1.3h1.7c3.6,0,9-.3,16.2-.8s12.6-.8,16.2-.8c1.1,0,1.6.7,1.6,2a188,188,0,0,1-1.5,26c-.2,1.5-.6,2.4-1.3,2.7A16.22,16.22,0,0,1,55,133.5Z"/></g><g id="Gorro2"><circle class="cls-2" cx="652.1" cy="19" r="19"/><path class="cls-3" d="M665.4,13.1A5.29,5.29,0,0,0,660,7.8a5,5,0,0,0-2.7.8,6.93,6.93,0,0,0-9.7-.6l-.6.6a5.38,5.38,0,0,0-2.8-.8,5.49,5.49,0,0,0-5.4,5.3,5.45,5.45,0,0,0,3.4,5V30.7a46.73,46.73,0,0,1,19.7,0V18.1A5.39,5.39,0,0,0,665.4,13.1Z"/><path class="cls-4" d="M662,26.9v3.8a43.68,43.68,0,0,0-19.7,0V26.9A43.68,43.68,0,0,1,662,26.9Z"/><path class="cls-5" d="M640.7,14.4c.1.2.2.3.2.4s.2.3.3.4a1.38,1.38,0,0,1,.3.4,1.38,1.38,0,0,0,.4.3c.1.1.3.2.4.3s.3.1.4.2a.75.75,0,0,0,.5.1c.2,0,.3.1.5.1h.9a2.92,2.92,0,0,0,.9-.2c.1-.1.3-.1.4-.2l.4-.3.8-.5.2-.1.2.2.5.5.5.5.5.5c.2.1.4.3.6.4a4.84,4.84,0,0,0,2.6.7h.6c.2,0,.4-.1.7-.1a4.33,4.33,0,0,0,1.2-.5,4.44,4.44,0,0,0,1.1-.8l.5-.5.5-.5.2-.2.2.1.8.5.4.3c.1.1.3.1.4.2a2.92,2.92,0,0,0,.9.2h1a.9.9,0,0,0,.5-.1c.2,0,.3-.1.5-.1s.3-.1.4-.2.3-.2.4-.3.3-.2.4-.3a1.38,1.38,0,0,0,.3-.4c.1-.1.2-.3.3-.4a.76.76,0,0,0,.2-.4c0,.2-.1.3-.2.5a.76.76,0,0,0-.2.4c-.1.1-.2.3-.3.4l-.4.4c-.1.1-.3.2-.4.3a.76.76,0,0,1-.4.2c-.2.1-.3.2-.5.2a.9.9,0,0,1-.5.1l-.5.1h-.5a3.55,3.55,0,0,1-1-.2c-.2-.1-.3-.1-.5-.2l-.4-.2-.8-.5h.3l-.5.5c-.2.2-.3.4-.5.5a4,4,0,0,1-1.2,1,3.51,3.51,0,0,1-1.4.6c-.2.1-.5.1-.8.2h-.8a6,6,0,0,1-2.9-.8,2.65,2.65,0,0,1-.6-.5c-.2-.2-.4-.3-.5-.5l-.5-.5-.5-.5h.3l-.9.5-.4.2c-.2.1-.3.2-.5.2a3.55,3.55,0,0,1-1,.2h-.6a.9.9,0,0,1-.5-.1c-.2,0-.3-.1-.5-.1l-.5-.2-.5-.3-.4-.3a1.38,1.38,0,0,1-.3-.4c-.1-.1-.2-.3-.3-.4a.76.76,0,0,1-.2-.4A1.42,1.42,0,0,0,640.7,14.4Z"/></g><g id="Gorro1"><circle class="cls-2" cx="405.3" cy="19.2" r="19"/><path class="cls-3" d="M418.5,13.2a5.29,5.29,0,0,0-5.4-5.3,5,5,0,0,0-2.7.8,6.93,6.93,0,0,0-9.7-.6l-.6.6a5.32,5.32,0,1,0-5.5,9.1,3.55,3.55,0,0,0,.9.4V30.8a46.73,46.73,0,0,1,19.7,0V18.2A5.36,5.36,0,0,0,418.5,13.2Z"/><path class="cls-4" d="M415.1,27v3.8a43.68,43.68,0,0,0-19.7,0V27A43.68,43.68,0,0,1,415.1,27Z"/><path class="cls-5" d="M393.9,14.6a.76.76,0,0,1,.2.4c.1.1.2.3.3.4a1.38,1.38,0,0,1,.3.4,1.38,1.38,0,0,0,.4.3c.1.1.3.2.4.3s.3.1.4.2a.75.75,0,0,0,.5.1c.2,0,.3.1.5.1h.9a2.92,2.92,0,0,0,.9-.2c.1-.1.3-.1.4-.2l.4-.3.8-.5.2-.1.1.2.5.5.5.5.5.5c.2.1.4.3.6.4a4.84,4.84,0,0,0,2.6.7h.6c.2,0,.5-.1.7-.1a5,5,0,0,0,2.3-1.4l.5-.5.5-.5.1-.2.2.1.8.5.4.3c.1.1.3.1.4.2a2.92,2.92,0,0,0,.9.2h1c.2,0,.3-.1.5-.1s.3-.1.5-.1.3-.1.4-.2.3-.2.4-.3.3-.2.4-.3a1.38,1.38,0,0,0,.3-.4c.1-.1.2-.3.3-.4a.76.76,0,0,0,.2-.4c0,.2-.1.3-.2.5s-.2.3-.2.4-.2.3-.3.4l-.4.4c-.2.2-.3.2-.4.3a.76.76,0,0,1-.5.2.76.76,0,0,1-.5.2.9.9,0,0,1-.5.1l-.5.1h-.5a3.55,3.55,0,0,1-1-.2c-.2-.1-.3-.1-.5-.2l-.4-.2-.9-.5h.3l-.5.5-.5.5a2.65,2.65,0,0,1-.6.5,2.09,2.09,0,0,1-.6.4,3.51,3.51,0,0,1-1.4.6c-.2.1-.5.1-.8.2H405a6,6,0,0,1-2.9-.8,2.65,2.65,0,0,1-.6-.5c-.2-.2-.4-.3-.5-.5s-.3-.4-.5-.5l-.5-.5h.3l-.9.5-.4.2c-.2.1-.3.2-.5.2a3.55,3.55,0,0,1-1,.2H397a.9.9,0,0,1-.5-.1c-.2,0-.3-.1-.5-.1s-.3-.1-.5-.2l-.4-.3c-.1-.1-.3-.2-.4-.3s-.3-.2-.4-.4-.2-.3-.3-.4a.76.76,0,0,1-.2-.4C394,14.8,393.9,14.7,393.9,14.6Z"/></g></g></g></g></svg>